<svg xmlns="http://www.w3.org/2000/svg" xmlns:xlink="http://www.w3.org/1999/xlink" width="53" height="45" viewBox="0 0 53 45">
    <defs>
        <path id="a" d="M.947.805H15.88v16.16H.947z"/>
    </defs>
    <g fill="none" fill-rule="evenodd">
        <path fill="#FFF" d="M15.273 19.848c3.06 0 6.122.054 9.182-.026 1.205-.03 1.531.361 1.54 1.601.03 4.651.076 4.65-4.438 4.651-5.02 0-10.039-.047-15.058.031-1.39.021-1.648-.462-1.431-1.769.44-2.679 1.86-4.701 3.745-6.456 1.754-1.63 3.783-2.865 5.722-4.23 1.242-.874 2.482-1.757 3.327-3.088 1.05-1.655.898-3.206-.382-4.117-1.487-1.063-3.717-.618-4.66.942-.172.285-.258.62-.421.91-.432.764.175 2.232-.941 2.368-1.862.224-3.774.074-5.657-.019-.448-.02-.37-.622-.379-1.022C5.333 5.12 8.015 1.516 12.3.544c2.778-.63 5.586-.636 8.302.341 5.966 2.146 7.243 9.288 2.447 13.539-1.901 1.682-4.164 2.755-6.321 4.011-.543.314-1.058.678-1.585 1.019l.13.394M32.837 14.365c1.93 0 3.385-.006 4.84.002.566.004 1.06.007 1.05-.78-.024-2.038-.008-4.072-.008-6.59l-5.882 7.368M45.86 7.408c0 1.375.034 2.75-.01 4.122-.053 1.647-.302 3.372 2.357 2.86.556-.107.798.305.79.868a79.517 79.517 0 0 0 .002 3.728c.034 1.01-.65 1.045-1.322.946-1.487-.223-1.91.307-1.86 1.801.113 3.37.023 3.373-3.392 3.373-3.64 0-3.7-.002-3.676-3.666.007-1.211-.315-1.56-1.545-1.521-2.918.088-5.843-.006-8.763.046-1.005.016-1.32-.258-1.395-1.307-.214-2.977.261-5.5 2.599-7.79 2.862-2.801 5.334-6 7.857-9.122C38.432.592 39.42.088 40.878.27c1.623.2 3.808-.714 4.742.405.792.949.214 3.007.237 4.574.01.72.003 1.441.003 2.16M5.348 36.485c0 2.067-.04 4.135.017 6.199.026.944-.13 1.356-1.23 1.387C.02 44.184.02 44.236.02 40.083c0-3.46.035-6.92-.02-10.379-.017-1.06.252-1.386 1.373-1.52 2.797-.338 4.87.369 5.994 3.173.26.646.769 1.19 1.283 1.961.49-.772 1.038-1.36 1.277-2.055 1.04-3.013 3.302-3.349 5.992-3.06.848.09 1.08.326 1.075 1.154-.03 4.505-.044 9.01.006 13.513.01.98-.336 1.158-1.224 1.192-3.938.141-3.937.174-3.937-3.736v-4.282l-.311-.202c-.487.755-.977 1.51-1.462 2.264-1.106 1.717-2.04 1.745-3.176.084-.406-.588-.793-1.189-1.188-1.784-.117.028-.235.053-.354.079M29.313 37.519c-.844 1.378-1.83 2.69-2.491 4.152-.876 1.932-2.149 2.578-4.23 2.409-2.55-.21-2.562-.052-2.562-2.62 0-3.92.048-7.843-.029-11.76-.024-1.226.352-1.533 1.526-1.539 3.83-.023 3.83-.073 3.83 3.875-.002.902 0 1.803 0 2.705.111.053.225.106.338.158.833-1.399 1.78-2.743 2.467-4.215.901-1.925 2.13-2.749 4.338-2.55 2.844.259 2.464-.237 2.475 2.537.015 3.92-.03 7.843.024 11.762.015 1.102-.13 1.622-1.43 1.632-3.913.034-3.912.1-3.912-3.943v-2.506c-.117-.033-.229-.066-.344-.097"/>
        <g transform="translate(37 27.106)">
            <mask id="b" fill="#fff">
                <use xlink:href="#a"/>
            </mask>
            <path fill="#FFF" d="M7.802 4.614c-.623.051-1.43-.2-1.43.863-.003 1.122 0 2.243-.007 3.365-.003.578.307.76.862.842 1.664.249 2.927-.657 3.105-2.301.191-1.774-.68-2.728-2.53-2.769zm-6.84 4.12c0-2.255.027-4.512-.014-6.767C.929 1.13 1.164.782 2.078.806c2.55.07 5.117-.06 7.658.114 3.886.262 6.173 2.607 6.144 6.04-.027 3.54-2.38 6.008-6.126 6.421-.402.044-.82.14-1.204.072-1.834-.322-2.464.456-2.159 2.178.193 1.09-.36 1.29-1.37 1.312-4.062.087-4.06.122-4.06-3.829v-4.38z" mask="url(#b)"/>
        </g>
    </g>
</svg>
