<svg xmlns="http://www.w3.org/2000/svg" xmlns:xlink="http://www.w3.org/1999/xlink" width="160" height="20" viewBox="0 0 160 20">
    <defs>
        <path id="a" d="M0 .02h151.634V20H0z"/>
        <path id="c" d="M.717.148H6.69V6H.717z"/>
    </defs>
    <g fill="none" fill-rule="evenodd">
        <g>
            <mask id="b" fill="#fff">
                <use xlink:href="#a"/>
            </mask>
            <path fill="#FFF" d="M137.313 12.579c0-2.015.727-3.75 2.185-5.208 1.455-1.457 3.425-2.185 5.905-2.185 1.091 0 2.156.178 3.2.536 1.044.357 1.904.892 2.58 1.608l-2.058 3.188c-.977-.915-2.115-1.374-3.411-1.374-1.09 0-1.94.334-2.552 1.002-.611.67-.915 1.461-.915 2.378 0 .935.319 1.755.958 2.46.64.706 1.53 1.059 2.678 1.059 1.297 0 2.622-.569 3.975-1.704l1.776 3.325c-.714.715-1.63 1.283-2.75 1.703a9.77 9.77 0 0 1-3.48.633c-2.481 0-4.45-.724-5.906-2.172-1.458-1.446-2.185-3.196-2.185-5.249zm-15.144 7.092V5.515h4.877v5.003h4.482V5.515h4.878v14.156h-4.878v-5.167h-4.482v5.167h-4.877zm-10.154-8.878h4.34c0-.605-.182-1.11-.549-1.512-.365-.404-.851-.604-1.452-.604-1.24 0-2.02.705-2.34 2.116zm-5.104 1.786c0-2.125.685-3.89 2.058-5.29 1.372-1.402 3.205-2.103 5.498-2.103 2.086 0 3.727.637 4.92 1.91 1.194 1.273 1.79 2.918 1.79 4.933 0 .33-.039.825-.113 1.485H111.9c.17.825.568 1.451 1.197 1.882.632.431 1.359.647 2.186.647 1.203 0 2.538-.478 4.003-1.43l1.806 3.325c-.771.642-1.716 1.146-2.833 1.513-1.12.365-2.242.549-3.37.549-2.462 0-4.407-.733-5.836-2.198-1.429-1.467-2.143-3.208-2.143-5.223zm-19.767 7.092l1.382-14.156h5.638l2.142 6.212.565 1.648h.027c.225-.621.422-1.171.592-1.648l2.144-6.212h5.61l1.382 14.156h-4.682l-.338-6.514.028-2.42h-.055a38.545 38.545 0 0 1-.79 2.09l-1.918 4.947h-3.946l-1.917-4.948-.846-2.089h-.057l.03 2.42-.34 6.514h-4.651zM72.93 12.579c0-2.015.728-3.75 2.185-5.208 1.456-1.457 3.426-2.185 5.907-2.185 1.09 0 2.157.178 3.198.536 1.045.357 1.903.892 2.581 1.608l-2.059 3.188c-.976-.915-2.115-1.374-3.41-1.374-1.092 0-1.941.334-2.553 1.002a3.41 3.41 0 0 0-.915 2.378c0 .935.319 1.755.958 2.46.64.706 1.531 1.059 2.678 1.059 1.298 0 2.622-.569 3.975-1.704l1.777 3.325c-.715.715-1.631 1.283-2.75 1.703a9.78 9.78 0 0 1-3.48.633c-2.48 0-4.451-.724-5.907-2.172-1.457-1.446-2.185-3.196-2.185-5.249zm-9.336-1.786h4.342c0-.605-.184-1.11-.55-1.512-.367-.404-.85-.604-1.453-.604-1.24 0-2.021.705-2.34 2.116zm-5.103 1.786c0-2.125.686-3.89 2.058-5.29 1.371-1.402 3.203-2.103 5.496-2.103 2.087 0 3.727.637 4.921 1.91 1.194 1.273 1.79 2.918 1.79 4.933 0 .33-.038.825-.113 1.485H63.48c.169.825.569 1.451 1.197 1.882.63.431 1.358.647 2.185.647 1.204 0 2.54-.478 4.004-1.43l1.804 3.325c-.77.642-1.715 1.146-2.832 1.513-1.12.365-2.243.549-3.37.549-2.462 0-4.407-.733-5.836-2.198-1.429-1.467-2.142-3.208-2.142-5.223zm-15.145 7.092V5.515h4.878v5.003h4.483V5.515h4.877v14.156h-4.877v-5.167h-4.483v5.167h-4.878zm-13-1.76l1.944-2.968c.47.421 1.029.775 1.679 1.058.648.283 1.253.425 1.816.425 1.167 0 1.749-.412 1.749-1.236 0-.385-.107-.678-.324-.88-.215-.201-.634-.302-1.254-.302h-1.777v-3.134h1.466c.978 0 1.465-.365 1.465-1.099 0-.75-.505-1.125-1.521-1.125-1.054 0-2.198.356-3.439 1.07l-1.41-2.94c1.578-1.063 3.534-1.594 5.865-1.594 1.54 0 2.818.357 3.833 1.072 1.014.715 1.522 1.667 1.522 2.858 0 1.484-.601 2.548-1.804 3.188v.055c1.504.678 2.255 1.722 2.255 3.135 0 1.446-.554 2.56-1.663 3.338-1.108.78-2.556 1.168-4.34 1.168-1.11 0-2.206-.18-3.285-.536-1.082-.357-2.007-.874-2.777-1.553zM15.68 19.67V5.515h4.595v6.24c0 .459-.019.925-.055 1.402h.055c.114-.275.376-.743.79-1.402l4.032-6.24h4.736v14.156h-4.595v-6.185c0-.586.018-1.062.056-1.429h-.056c-.056.147-.32.615-.79 1.402l-4.032 6.212H15.68zM4.934 15.548h2.51c.788 0 1.399-.187 1.83-.564.435-.375.65-.884.65-1.525 0-.642-.22-1.16-.661-1.554-.443-.393-1.077-.59-1.904-.59H4.934v4.233zM0 19.671V.019h13.111v4.122H4.934v3.052h3.44c1.954 0 3.537.585 4.75 1.759 1.212 1.172 1.818 2.673 1.818 4.507 0 1.832-.606 3.325-1.819 4.48-1.212 1.155-2.795 1.732-4.75 1.732H0z" mask="url(#b)"/>
        </g>
        <g transform="translate(153 14)">
            <mask id="d" fill="#fff">
                <use xlink:href="#c"/>
            </mask>
            <path fill="#FFF" d="M3.704.148c1.65 0 2.987 1.31 2.987 2.926S5.354 6 3.704 6C2.054 6 .717 4.69.717 3.074S2.055.148 3.704.148" mask="url(#d)"/>
        </g>
    </g>
</svg>
