<svg xmlns="http://www.w3.org/2000/svg" width="69" height="56" viewBox="0 0 69 56">
    <g fill="#EB1751" fill-rule="nonzero">
        <path d="M5.56 35.44A1.51 1.51 0 0 0 4.5 35c-.394 0-.781.16-1.06.44-.28.279-.44.664-.44 1.06 0 .395.16.782.44 1.06.279.28.666.44 1.06.44s.782-.16 1.06-.44c.28-.28.44-.666.44-1.06 0-.395-.16-.782-.44-1.06zM7.61 3.157L4.943.403a1.304 1.304 0 0 0-1.886 0L.39 3.157a1.41 1.41 0 0 0 0 1.948c.521.537 1.365.537 1.886 0l.39-.403v25.921C2.667 31.383 3.265 32 4 32c.736 0 1.333-.617 1.333-1.377V4.702l.39.403a1.308 1.308 0 0 0 1.886 0 1.41 1.41 0 0 0 0-1.948zM68.607 50.892l-2.683-2.756a1.317 1.317 0 0 0-1.897 0 1.405 1.405 0 0 0 0 1.95l.393.403h-4.814V31.153c0-.76-.601-1.378-1.342-1.378-.74 0-1.341.617-1.341 1.378V50.49H42.386V41.67c0-.76-.6-1.377-1.341-1.377s-1.342.617-1.342 1.377v8.819H28.551V28.378c0-.761-.6-1.378-1.341-1.378-.74 0-1.341.617-1.341 1.378v22.11H15.098v-8.61c0-.762-.6-1.379-1.341-1.379s-1.342.617-1.342 1.378v8.612H5.683v-7.93c0-.761-.6-1.378-1.342-1.378-.74 0-1.341.617-1.341 1.377v9.308c0 .761.6 1.378 1.341 1.378H64.42l-.393.404a1.405 1.405 0 0 0 0 1.948 1.32 1.32 0 0 0 1.897 0l2.683-2.755a1.404 1.404 0 0 0 0-1.949z"/>
        <path d="M58.174 11c-2.661 0-4.826 2.21-4.826 4.925 0 .778.178 1.515.495 2.17l-10.466 10.68a4.721 4.721 0 0 0-4.675-.027l-7.08-7.224a4.978 4.978 0 0 0 .436-2.039c0-2.715-2.165-4.924-4.827-4.924-2.66 0-4.826 2.209-4.826 4.924 0 .838.207 1.628.57 2.32l-6.82 6.959a4.721 4.721 0 0 0-2.329-.613C11.165 28.15 9 30.36 9 33.075 9 35.791 11.165 38 13.826 38c2.662 0 4.827-2.21 4.827-4.925 0-.865-.22-1.678-.606-2.385l6.792-6.93a4.721 4.721 0 0 0 5.038-.159l6.927 7.068a4.97 4.97 0 0 0-.614 2.4c0 2.715 2.165 4.924 4.826 4.924 2.661 0 4.826-2.21 4.826-4.925 0-.851-.213-1.653-.587-2.352l10.389-10.6a4.726 4.726 0 0 0 2.53.733c2.661 0 4.826-2.209 4.826-4.924C63 13.209 60.835 11 58.174 11zM13.827 35.272c-1.187 0-2.153-.985-2.153-2.196 0-1.212.965-2.197 2.152-2.197.582 0 1.11.237 1.497.62l.02.022.024.023c.378.396.613.936.613 1.532 0 1.211-.966 2.196-2.153 2.196zm13.405-13.59c-1.187 0-2.153-.986-2.153-2.197s.965-2.197 2.153-2.197c1.187 0 2.153.986 2.153 2.197s-.966 2.197-2.153 2.197zm13.784 13.583c-1.187 0-2.153-.986-2.153-2.197s.966-2.197 2.153-2.197 2.153.986 2.153 2.197-.966 2.197-2.153 2.197zM58.174 18.12c-1.187 0-2.153-.985-2.153-2.197 0-1.21.966-2.196 2.153-2.196s2.153.985 2.153 2.196c0 1.212-.966 2.197-2.153 2.197zM59.56 24.44A1.511 1.511 0 0 0 58.5 24c-.395 0-.782.16-1.06.44-.28.278-.44.665-.44 1.06s.16.782.44 1.06c.279.28.666.44 1.06.44.395 0 .782-.16 1.06-.44.28-.278.44-.665.44-1.06s-.16-.782-.44-1.06z"/>
    </g>
</svg>
