<svg xmlns="http://www.w3.org/2000/svg" xmlns:xlink="http://www.w3.org/1999/xlink" width="93" height="108" viewBox="0 0 93 108">
    <defs>
        <path id="a" d="M0 .324h92.642V108H0z"/>
    </defs>
    <g fill="none" fill-rule="evenodd">
        <path fill="#FFF" d="M46.021 42h1.994c1.1 0 1.989-.785 1.985-1.749-.006-.967-.904-1.752-2.004-1.752l-.01-1.749c-.005-.967-.901-1.75-2.001-1.75-1.1 0-1.99.783-1.985 1.75l.017 3.501c.008.964.904 1.749 2.004 1.749M56.015 39c1.102 0 1.99-.895 1.985-1.999l-.008-1.998A2.01 2.01 0 0 0 55.986 33c-1.1 0-1.99.895-1.986 2.003L54.01 37A2.008 2.008 0 0 0 56.015 39"/>
        <g>
            <mask id="b" fill="#fff">
                <use xlink:href="#a"/>
            </mask>
            <path fill="#FFF" d="M77.82 104.288l-.035-7.427h11.103l.036 7.427H77.82zm-.069-14.852a1.866 1.866 0 0 0-1.86-1.857c-1.021 0-1.846.83-1.84 1.857l.07 14.852H53.59l-1.744-16.62 1.014-5.216 7.4 3.286a1.847 1.847 0 0 0 2.583-1.486l1.66-15.238h11.3c7.148.009 12.971 5.82 13.012 12.997l.054 11.138H77.767l-.016-3.713zM58.167 69.014h2.612l-1.333 12.302-8.368-3.712 7.09-8.59zm-15.309 35.274l1.41-14.852h4.063l1.55 14.852h-7.023zm-9.833-23.113l-1.414-12.161h2.616l7.149 8.554-8.35 3.607zm6.124 23.113H18.61l-.07-14.852a1.866 1.866 0 0 0-1.861-1.857c-1.022 0-1.846.83-1.84 1.857l.017 3.713h-11.1L3.701 82.01C3.675 74.835 9.44 69.023 16.59 69.014h11.298l1.736 15.055a1.858 1.858 0 0 0 2.578 1.502l7.429-3.203 1.082 5.3-1.565 16.62zm-35.342 0l-.036-7.427h11.103l.034 7.427h-11.1zm45.59-23.379l-.936 4.814h-4.367l-.985-4.85 1.661-.72h2.924l1.703.756zm-2.186-4.47h-1.955l-6.243-7.47a1.82 1.82 0 0 0 1.624-1.81l-.03-6.362a19.861 19.861 0 0 0 11.1 0l.033 6.361a1.841 1.841 0 0 0 1.602 1.804c.01.005.025.009.036.012L47.21 76.44zM29.413 41.168l-.081-16.71h26.766l6.589 9.84.032 6.87c.043 9.225-7.376 16.708-16.574 16.708s-16.69-7.483-16.732-16.708zm-7.526-25.994l-.04-8.513 2.402 2.401c.349.348.821.542 1.311.542h31.457c3.066 0 5.564 2.494 5.577 5.57l.009 1.547c.007.052.016.106.03.156a1.567 1.567 0 0 0-.03.154 1.864 1.864 0 0 0 1.86 1.856h3.7a1.722 1.722 0 0 1 1.858 1.52l.054 11.572a6.166 6.166 0 0 0-.925-.095h-3.636L58.62 21.569a2.16 2.16 0 0 0-.186-.217c-.029-.025-.047-.057-.075-.084a1.905 1.905 0 0 0-.508-.343.839.839 0 0 0-.133-.05 1.79 1.79 0 0 0-.649-.13H27.463c-3.064 0-5.562-2.494-5.576-5.57zm1.05 25.994a2.798 2.798 0 0 1-2.79-2.787 2.762 2.762 0 0 1 2.76-2.783h2.777l.028 5.57h-2.776zm49.02-2.787a2.767 2.767 0 0 1-2.762 2.787h-2.777l-.027-5.57h2.775a2.796 2.796 0 0 1 2.79 2.783zm20.561 43.63c-.053-9.227-7.54-16.7-16.732-16.71H55.43l-.027-5.572a1.78 1.78 0 0 0-.073-.37 20.324 20.324 0 0 0 10.752-14.48h3.13c3.57.005 6.456-2.896 6.444-6.48a6.53 6.53 0 0 0-1.873-4.552l-.062-13.44c-.115-2.98-2.608-5.32-5.577-5.233h-1.85c-.03-5.125-4.19-9.273-9.295-9.282H26.31L21.275.867a1.846 1.846 0 0 0-2.617 0c-.343.35-.536.82-.534 1.314l.062 12.993c.027 4.41 3.136 8.21 7.444 9.098l.036 7.612h-2.774c-3.577 0-6.464 2.908-6.446 6.497.016 3.59 2.93 6.498 6.507 6.498h3.128A20.59 20.59 0 0 0 36.972 59.37c-.037.116-.06.238-.071.358l.027 5.572H16.573C7.38 65.311-.033 72.784 0 82.011l.126 25.988h92.517l-.124-25.988z" mask="url(#b)"/>
        </g>
        <path fill="#FFF" d="M36.987 33A1.986 1.986 0 0 0 35 35l.01 2c.005 1.105.9 2 2.004 2 1.103 0 1.99-.895 1.986-2l-.01-2a2.009 2.009 0 0 0-2.003-2M50.89 50.07c.989-.394 1.393-1.362.9-2.165-.489-.8-1.688-1.132-2.675-.74-.011.005-.019.006-.029.01-1.948.787-4.244.787-6.203 0-.99-.396-2.188-.073-2.676.726-.489.8-.081 1.772.907 2.17 3.086 1.239 6.704 1.239 9.776 0v-.001z"/>
    </g>
</svg>
