<svg xmlns="http://www.w3.org/2000/svg" width="83" height="73" viewBox="0 0 83 73">
    <g fill="#EB1751" fill-rule="nonzero">
        <path d="M25.55 25.284a1.182 1.182 0 0 0-1.713.187c-.492.634-1.144.983-1.837.983-.693 0-1.345-.349-1.837-.983a1.182 1.182 0 0 0-1.712-.187 1.313 1.313 0 0 0-.18 1.79C19.222 28.299 20.582 29 22 29c1.42 0 2.779-.702 3.728-1.925a1.313 1.313 0 0 0-.179-1.79zM16 19c-.552 0-1 .57-1 1.273v1.454c0 .703.448 1.273 1 1.273s1-.57 1-1.273v-1.454C17 19.57 16.552 19 16 19zM27 19c-.552 0-1 .57-1 1.273v1.454c0 .703.448 1.273 1 1.273s1-.57 1-1.273v-1.454C28 19.57 27.552 19 27 19zM65.55 32.284a1.182 1.182 0 0 0-1.713.187c-.492.634-1.145.983-1.837.983-.693 0-1.345-.349-1.837-.983a1.182 1.182 0 0 0-1.712-.187 1.312 1.312 0 0 0-.179 1.79C59.222 35.299 60.58 36 62 36c1.42 0 2.779-.702 3.728-1.925a1.312 1.312 0 0 0-.179-1.79zM57 25c-.552 0-1 .57-1 1.273v1.454c0 .703.448 1.273 1 1.273s1-.57 1-1.273v-1.454C58 25.57 57.552 25 57 25zM68 25c-.552 0-1 .57-1 1.273v1.454c0 .703.448 1.273 1 1.273s1-.57 1-1.273v-1.454C69 25.57 68.552 25 68 25z"/>
        <path d="M79.617 48.41l-9.526-3.657c-.051-.02-.099-.044-.147-.069 6.579-1.437 9.695-3.84 9.833-3.948.329-.259.493-.664.433-1.068-.014-.092-1.377-9.357-1.377-18.501 0-8.73-7.4-15.834-16.496-15.834-9.096 0-16.496 7.103-16.496 15.834 0 2.392-.113 5.318-.298 8.088l-2.654 1.274-7.79-3.74c-.023-.01-.047-.018-.07-.027.371-1.037.613-2.13.702-3.264 1.63-.484 2.818-1.943 2.818-3.664 0-1.16-.54-2.2-1.39-2.903V9.167c0-2.145-1.129-4.152-2.98-5.358C33.55 1.572 31.457 0 28.998 0H17.885c-6.032 0-10.94 4.71-10.94 10.5v6.431c-.85.704-1.389 1.743-1.389 2.902 0 1.721 1.188 3.181 2.817 3.664.307 3.918 2.41 7.36 5.518 9.576v3.225L3.836 39.194C1.542 39.854 0 41.844 0 44.143v13.023c0 .645.544 1.167 1.216 1.167h.173v13.5c0 .644.544 1.167 1.216 1.167.671 0 1.216-.523 1.216-1.167v-13.5h4.514v13.5c0 .644.544 1.167 1.216 1.167.671 0 1.215-.523 1.215-1.167V51.71a5.005 5.005 0 0 0-.904-2.866l-2.078-2.992a1.248 1.248 0 0 0-1.686-.324 1.138 1.138 0 0 0-.337 1.618l2.078 2.993c.324.466.496 1.01.496 1.57V56H2.432V44.142c0-1.261.845-2.351 2.103-2.714l4.174-1.202c1.454 5.842 6.974 10.106 13.344 10.106 2.288 0 4.51-.541 6.501-1.572a4.045 4.045 0 0 0 3.222 1.572h.174v.167c0 3.912 2.242 7.329 5.556 9.135v1.904a.167.167 0 0 1-.118.157l-4.536 1.452c-2.201.704-3.68 2.674-3.68 4.901v3.784c0 .644.544 1.167 1.215 1.167.672 0 1.216-.523 1.216-1.167v-3.784c0-1.221.811-2.301 2.018-2.687l1.334-.427C36.719 67.461 39.687 69 42.889 69c3.206 0 6.17-1.538 7.935-4.065l1.333.427c1.207.386 2.018 1.466 2.018 2.687v3.784c0 .644.545 1.167 1.216 1.167.672 0 1.216-.523 1.216-1.167v-3.784c0-2.227-1.48-4.197-3.68-4.901l-4.536-1.451a.167.167 0 0 1-.119-.158v-1.904c2.482-1.352 4.36-3.608 5.148-6.298C55.717 55.644 58.926 57 62.337 57c5.384 0 10.108-3.34 11.735-8.204l4.641 1.782c1.127.432 1.855 1.465 1.855 2.63v5.458h-4.513v-1.5c0-.644-.545-1.167-1.216-1.167-.672 0-1.216.523-1.216 1.167v14.667c0 .645.544 1.167 1.216 1.167.671 0 1.215-.522 1.215-1.167V61h3.125v10.833c0 .645.545 1.167 1.216 1.167.672 0 1.216-.522 1.216-1.167V61h.173c.323 0 .632-.123.86-.342.228-.219.356-.515.356-.825v-6.625c0-2.125-1.328-4.008-3.383-4.797zM48.273 21.168c0-7.444 6.309-13.5 14.064-13.5s14.064 6.056 14.064 13.5c0 7.836.984 15.758 1.303 18.124-1.09.684-3.879 2.19-8.595 3.18v-1.856a13.657 13.657 0 0 0 1.846-1.203c2.392-1.856 4.083-4.456 4.76-7.32.226-.954.34-1.938.34-2.925 0-6.596-4.97-7.543-9.776-8.459-3.058-.583-6.22-1.185-8.739-3.119a1.257 1.257 0 0 0-1.286-.14c-.421.194-.69.603-.69 1.051 0 .031-.052 3.102-4.635 4.202-.651.156-1.047.79-.884 1.415.163.625.823 1.005 1.474.849 3.836-.92 5.4-2.986 6.038-4.537 2.637 1.5 5.59 2.062 8.248 2.569 5.138.978 7.818 1.697 7.818 6.169 0 .813-.094 1.624-.28 2.409-.556 2.355-1.947 4.493-3.917 6.02C67.4 39.17 64.948 40 62.337 40c-2.38 0-4.646-.701-6.568-2.025a13.145 13.145 0 0 0-3.33-4.925v-5.216c0-.405-.217-.78-.576-.993a1.26 1.26 0 0 0-1.183-.051l-2.625 1.26c.144-2.43.218-4.741.218-6.883zm1.735 8.555v4.223l-4.4-2.112 4.4-2.111zm-14.238 0l4.4 2.111-4.4 2.112v-4.223zM29.171 42.5v1.108c-.87.722-1.389 1.778-1.389 2.892a11.592 11.592 0 0 1-5.73 1.5c-5.288 0-9.864-3.573-11.008-8.445l3.003-.865c.741 3.593 4.049 6.31 8.006 6.31 3.142 0 5.873-1.714 7.236-4.218-.078.566-.118 1.14-.118 1.718zm-12.848-5.335V34.46a14.112 14.112 0 0 0 5.73 1.206c2.044 0 3.985-.432 5.73-1.205v2.704c0 3.033-2.57 5.5-5.73 5.5-3.155 0-5.721-2.46-5.73-5.485v-.016zm5.73-3.832c-6.224 0-11.287-4.86-11.287-10.833 0-.644-.544-1.167-1.215-1.167-.862 0-1.563-.673-1.563-1.5 0-.826.701-1.5 1.563-1.5h2.778c.523 0 .988-.32 1.153-.797l1.116-3.213c2.794-.061 11.456-.438 16.333-2.779.6-.288.844-.989.544-1.565-.3-.577-1.03-.81-1.631-.522C24.61 11.968 13.826 12 13.718 12c-.524 0-.988.322-1.154.798L11.452 16H9.551c-.058 0-.116.002-.174.004V10.5c0-4.503 3.817-8.166 8.508-8.166h11.113c1.452 0 2.672 1.004 2.9 2.388.06.352.281.658.604.833 1.373.743 2.226 2.127 2.226 3.612v6.837a4 4 0 0 0-.173-.004h-1.39c-.67 0-1.215.522-1.215 1.167 0 .644.544 1.167 1.216 1.167h1.389c.861 0 1.562.672 1.562 1.5 0 .826-.7 1.499-1.562 1.499-.672 0-1.216.522-1.216 1.167 0 5.973-5.063 10.833-11.286 10.833zm8.161 3.834v-4.094a13.537 13.537 0 0 0 3.125-3.1v3.077a13.172 13.172 0 0 0-3.134 4.441 7.44 7.44 0 0 0 .009-.324zm18.184 26.992c-1.339 1.57-3.35 2.507-5.509 2.507-2.156 0-4.168-.938-5.507-2.507l.775-.248c1.065-.341 1.781-1.294 1.781-2.372v-.93a11.33 11.33 0 0 0 5.903 0v.93c0 1.077.716 2.03 1.781 2.372l.776.248zm4.215-16.16c-.671 0-1.215.523-1.215 1.167V50.5c0 4.503-3.817 8.166-8.509 8.166-4.69 0-8.508-3.663-8.508-8.166v-1.334c0-.644-.544-1.167-1.215-1.167h-1.39c-.86 0-1.562-.672-1.562-1.5 0-.531.294-1.013.785-1.287a1.2 1.2 0 0 0 .288-.227c3.005-.084 12.748-.627 19.151-4.139.583-.32.786-1.032.453-1.592s-1.076-.754-1.66-.434c-5.609 3.076-14.423 3.692-17.628 3.815V42.5c0-2.17.685-4.273 1.926-6.045.097.148.227.276.387.37a1.254 1.254 0 0 0 1.183.052l7.79-3.74 7.792 3.74a1.258 1.258 0 0 0 1.182-.051c.16-.095.29-.223.387-.37a10.538 10.538 0 0 1 1.926 6.044v1.703c0 .415.23.8.604 1.009.492.274.785.756.785 1.288 0 .827-.701 1.5-1.562 1.5h-1.39zm9.724 6.667c-3.366 0-6.489-1.645-8.307-4.333 2.19-.015 3.966-1.728 3.966-3.833 0-1.114-.518-2.17-1.389-2.892V42.5c0-.47-.026-.937-.078-1.4a14.251 14.251 0 0 0 10.149.552v1.709c0 1.577.985 2.974 2.51 3.56l2.622 1.006c-1.256 3.988-5.093 6.739-9.473 6.739z"/>
        <path d="M46.55 52.284a1.182 1.182 0 0 0-1.713.187c-.492.634-1.145.983-1.837.983s-1.345-.349-1.837-.983a1.182 1.182 0 0 0-1.712-.187 1.312 1.312 0 0 0-.18 1.79c.95 1.224 2.31 1.926 3.73 1.926 1.419 0 2.778-.702 3.727-1.925a1.313 1.313 0 0 0-.179-1.79z"/>
        <circle cx="39" cy="48" r="1"/>
        <circle cx="47" cy="48" r="1"/>
    </g>
</svg>
