<svg xmlns="http://www.w3.org/2000/svg" width="106" height="27" viewBox="0 0 106 27">
    <g fill="#FFF" fill-rule="evenodd">
        <path d="M51.88 7c-.894 0-1.376.095-2.1.411-1.318.577-2.309 1.52-3.192 3.042l-.277.475.036-.844c.02-.464.052-1.332.073-1.927l.037-1.084h-.19c-.243 0-7.864 1.454-8.094 1.544-.15.06-.173.122-.173.473 0 .36.02.407.173.438.095.02.445.085.778.146.674.123.874.223 1.152.574.512.647.618 1.79.612 6.628-.004 3.955-.09 5.925-.287 6.54-.241.756-.669 1.142-1.414 1.275-.24.043-.559.103-.706.133l-.27.054-.023.508c-.016.356.007.526.077.568.055.033 2.662.053 5.793.044l5.692-.018.022-.569c.013-.313-.004-.57-.038-.57-.442 0-1.797-.177-2.011-.262-.642-.256-.953-.806-1.087-1.922-.158-1.31-.25-4.57-.208-7.241.044-2.698.045-2.709.222-2.89.412-.422 1.457-.75 2.392-.752.752-.002 1.525.183 2.35.56.396.182.76.315.81.296C52.132 12.593 54 7.883 54 7.66c0-.33-1.06-.66-2.12-.66"/>
        <path d="M29.355 25.459c-2.109.613-3.619-1.355-4.203-5.479-.19-1.333-.189-4.964.001-6.488.413-3.316 1.457-5.001 3.104-5.004.741 0 1.153.178 1.733.75 1.381 1.363 2.036 3.966 2.025 8.058-.007 3.265-.339 5.32-1.081 6.71-.359.674-1.033 1.293-1.58 1.453m8.587-10.052c-.403-3.355-1.855-5.811-4.25-7.193-2.663-1.535-6.709-1.625-9.583-.21-2.076 1.02-3.772 2.988-4.526 5.247-.776 2.332-.776 5.391.001 7.772.499 1.524 1.175 2.637 2.217 3.648 1.249 1.213 2.885 1.989 4.756 2.256.67.096 2.782.098 3.474.003.328-.044.895-.166 1.26-.27 3.39-.962 5.706-3.516 6.5-7.171.194-.893.275-3.058.151-4.082"/>
        <path d="M10.202 2.058h2.428c2.79 0 3.247.056 4.236.52 1.432.674 2.479 2.007 3.392 4.321.371.943.367.94 1.193.7l.549-.16-.05-3.411c-.028-1.876-.073-3.544-.1-3.707L21.8.026 11.153.005C5.298-.007.394.003.254.027L0 .071l.045 1.211.81.093c1.052.12 1.68.404 2.052.924.84 1.174.993 2.771.991 10.366-.001 8.087-.177 10.05-.99 11.07-.418.526-.758.7-1.706.868-1.237.22-1.196.192-1.196.805 0 .34.033.524.097.55.139.054 13.756.057 13.901.003.187-.068.176-1.032-.013-1.125-.074-.037-.534-.124-1.022-.194s-1.027-.186-1.197-.256c-.892-.372-1.388-1.4-1.574-3.262-.134-1.334-.238-3.794-.238-5.612v-1.668l.83.024c1.766.051 2.679.14 3.048.297.8.338 1.446 1.283 1.782 2.602l.179.702.63.022.63.021V8.631l-.63.021-.63.022-.184.701c-.357 1.36-.938 2.194-1.794 2.574-.348.154-.595.196-1.428.244-.553.031-1.327.06-1.72.062l-.713.003V10.06c-.002-2.204.122-6.885.2-7.613l.042-.388M105.517 18.092c-.618-1.273-1.756-2.144-4.14-3.17-1.948-.837-2.926-1.418-3.523-2.09-.484-.545-.626-.986-.578-1.802.043-.752.222-1.2.68-1.705.589-.647 1.398-.874 2.366-.663 1.589.346 2.609 1.479 3.486 3.873.314.853.35.88.913.665l.356-.136-.012-.984c-.007-.541-.034-1.677-.06-2.525l-.047-1.541-.266-.116c-1.453-.634-4.226-1.028-6.033-.859-2.051.193-3.558.864-4.718 2.101-1.153 1.23-1.673 2.672-1.58 4.384.076 1.416.482 2.433 1.33 3.326.786.828 1.446 1.22 3.338 1.98 3.054 1.228 3.863 1.956 3.856 3.47-.006 1.278-.664 2.214-1.865 2.65-.428.156-1.514.154-2.093-.002-1.517-.412-2.68-1.765-3.67-4.276l-.254-.643-.299.014c-.163.008-.389.06-.5.114l-.204.1.019 1.097c.01.604.04 1.876.065 2.827l.047 1.73.339.149c.694.307 2.779.777 4.089.922.162.017 1.055.023 1.986.013 1.614-.018 1.73-.03 2.542-.248 2.396-.644 3.947-2.019 4.635-4.107.21-.64.24-.836.27-1.79.04-1.27-.073-1.931-.475-2.758M80.187 14.628l-1.425.023.001-.307c.001-.168.049-.612.108-.986.475-3.046 1.616-4.874 3.045-4.875 1.314-.002 2.124 1.8 2.292 5.095l.048.935-1.322.046c-.727.025-1.964.056-2.747.069m5.665-6.895c-2.087-1.041-5.312-.965-7.67.178-2.234 1.085-3.773 2.893-4.63 5.445-.448 1.33-.589 2.4-.544 4.124.03 1.09.078 1.652.192 2.156.881 3.913 3.578 6.573 7.348 7.25.83.15 2.715.152 3.553.007 1.198-.21 2.58-.74 3.45-1.325 1.064-.714 2.154-1.79 2.154-2.123 0-.203-.365-.671-.524-.671-.07 0-.365.153-.656.341-1.04.668-2.034.944-3.417.944-1.908 0-3.117-.474-4.332-1.694-.538-.541-.76-.833-1.039-1.369-.611-1.177-.943-2.532-.992-4.064l-.021-.662 5.624-.018 5.623-.02.025-.378c.014-.208-.013-.753-.06-1.21-.351-3.399-1.733-5.74-4.084-6.91M60.421 25.255c-.098-.25-.214-8.947-.167-12.42l.038-2.713.508-.145c.339-.096.738-.144 1.202-.144.649 0 .733.018 1.28.28 1.319.63 2.222 2.197 2.644 4.58.154.88.173 3.285.033 4.34-.344 2.592-1.22 4.683-2.384 5.697-.466.404-.899.619-1.455.72-.405.075-.526.077-1.257.02-.31-.022-.379-.056-.442-.215m5.466-17.512c-.453-.09-.86-.109-1.741-.08-1.323.046-2.234.238-3.222.68a8.456 8.456 0 0 1-.636.266c-.023 0-.02-1.937.007-4.304C60.33.97 60.32 0 60.25 0c-.25-.004-8.084 1.442-8.17 1.508-.063.049-.09.209-.076.452.025.421-.026.388.929.595.287.063.623.184.748.269.318.22.583.695.766 1.376.146.538.165.922.232 4.557.068 3.71.054 7.526-.05 14.515l-.044 2.903.561.123c.812.18 3.138.554 3.9.628 1.115.11 3.717.094 4.545-.026 3.598-.524 6.31-2.543 7.573-5.637.335-.82.657-2.082.77-3.02.131-1.1.058-3.297-.142-4.18-.763-3.389-2.95-5.728-5.905-6.32"/>
    </g>
</svg>
