<svg xmlns="http://www.w3.org/2000/svg" width="71" height="71" viewBox="0 0 71 71">
    <g fill="#EB1751" fill-rule="nonzero">
        <path d="M32.56 48.561a1.502 1.502 0 0 0 0-2.122 1.503 1.503 0 0 0-2.121 0 1.503 1.503 0 0 0 0 2.122 1.503 1.503 0 0 0 2.122 0zM26 15.5C26 24.046 32.953 31 41.5 31S57 24.046 57 15.5C57 6.953 50.047 0 41.5 0S26 6.953 26 15.5zm28.182 0c0 6.993-5.69 12.682-12.682 12.682-6.993 0-12.682-5.69-12.682-12.682 0-6.993 5.69-12.682 12.682-12.682 6.993 0 12.682 5.69 12.682 12.682z"/>
        <path d="M15.973 70.596a1.4 1.4 0 0 0 1.957.01l6.724-6.532a4.093 4.093 0 0 0 .987-4.244l1.446-1.376a4.166 4.166 0 0 1 2.888-1.15H48.41c3.271 0 6.362-1.24 8.706-3.489.096-.092-.732.87 12.577-14.818a5.426 5.426 0 0 0-.659-7.712c-2.323-1.93-5.803-1.653-7.782.61l-8.183 8.296a5.603 5.603 0 0 0-4.312-2.036H33.293a18.107 18.107 0 0 0-6.944-1.368c-6.678 0-12.509 3.042-15.638 8.746A4.18 4.18 0 0 0 7 46.666L.406 53.192a1.355 1.355 0 0 0-.003 1.93l15.571 15.474zm10.375-31.073c2.124 0 4.178.421 6.105 1.253a1.4 1.4 0 0 0 .556.115h15.748c1.504 0 2.774 1.209 2.774 2.735 0 1.509-1.244 2.736-2.774 2.736H37.443c-.766 0-1.387.612-1.387 1.367 0 .756.621 1.368 1.387 1.368h11.314c3.059 0 5.547-2.454 5.547-5.471 0-.24-.017-.479-.049-.715 7.916-8.026 9.033-9.153 9.08-9.21a2.81 2.81 0 0 1 3.91-.325 2.715 2.715 0 0 1 .325 3.86L55.132 51.902a9.728 9.728 0 0 1-6.722 2.666H29.975a6.945 6.945 0 0 0-4.814 1.918l-1.179 1.121-10.864-10.714c2.54-4.698 7.304-7.37 13.23-7.37zM8.964 48.599a1.398 1.398 0 0 1 1.717-.192c.24.144-.449-.475 12.012 11.798.554.546.524 1.418.007 1.927l-5.731 5.57L3.343 54.16l5.621-5.56zM39.723 6.358v1.59c-1.536.56-2.639 2.068-2.639 3.838 0 2.245 1.776 4.072 3.958 4.072.728 0 1.32.608 1.32 1.357 0 .748-.592 1.357-1.32 1.357-.563 0-1.172-.365-1.713-1.027a1.294 1.294 0 0 0-1.859-.166 1.384 1.384 0 0 0-.16 1.913c.705.862 1.534 1.464 2.413 1.767v1.584c0 .75.59 1.357 1.32 1.357.728 0 1.318-.607 1.318-1.357v-1.59c1.536-.56 2.639-2.07 2.639-3.838 0-2.246-1.775-4.072-3.958-4.072-.727 0-1.319-.609-1.319-1.357s.592-1.358 1.32-1.358c.467 0 .96.246 1.426.71a1.294 1.294 0 0 0 1.866-.031 1.385 1.385 0 0 0-.03-1.92c-.67-.666-1.34-1.043-1.944-1.249v-1.58c0-.75-.59-1.358-1.319-1.358-.728 0-1.319.608-1.319 1.358z"/>
    </g>
</svg>
