<svg xmlns="http://www.w3.org/2000/svg" width="73" height="72" viewBox="0 0 73 72">
    <g fill="#EB1751" fill-rule="nonzero">
        <path d="M16.59 26.677a3.054 3.054 0 0 0-4.364.552 1.118 1.118 0 0 0 .183 1.539 1.041 1.041 0 0 0 1.495-.19.962.962 0 0 1 1.375-.173 1.045 1.045 0 0 0 1.495-.19 1.118 1.118 0 0 0-.183-1.538zM28.59 24.677a3.054 3.054 0 0 0-4.364.552 1.118 1.118 0 0 0 .183 1.539 1.041 1.041 0 0 0 1.495-.19.962.962 0 0 1 1.375-.173 1.045 1.045 0 0 0 1.495-.189 1.118 1.118 0 0 0-.183-1.539zM26.963 33.51l-.128-1.032a1.668 1.668 0 0 0-.641-1.121 1.706 1.706 0 0 0-1.255-.344l-6.445.782c-.45.055-.853.28-1.133.634-.28.355-.403.795-.348 1.242l.128 1.031c.333 2.68 2.806 4.59 5.514 4.261 2.708-.329 4.64-2.775 4.308-5.453zm-4.582 3.25c-1.478.18-2.83-.865-3.012-2.328l-.062-.499 5.366-.652.062.499c.182 1.464-.874 2.8-2.354 2.98z"/>
        <path d="M35.898 4.836C34.783 2.629 32.885.983 30.41.074c-.543-.2-1.162.015-1.43.496-1.222 2.196-4.175 3.76-7.899 4.181l-6.57.745c-.623.07-1.066.594-.99 1.17.077.574.645.983 1.267.913l6.57-.745c3.998-.454 7.303-2.087 9.078-4.44 3.704 1.825 4.602 5.652 4.2 8.529-.417 2.99-2.12 5.24-4.14 5.468L8.388 18.897c-1.835.208-3.145 1.756-2.92 3.45l.272 2.043-1.721.195-1.726-12.978a2.435 2.435 0 0 1 .574-1.912 2.85 2.85 0 0 1 1.87-.977l5.515-.625c.622-.07 1.065-.594.989-1.17-.077-.574-.644-.982-1.266-.912l-5.515.625c-2.78.315-4.764 2.66-4.423 5.226l1.784 13.415C.67 26.035.023 27.333.202 28.671c.242 1.815 1.916 3.184 3.894 3.184.154 0 .314-.009.482-.027l2.12-.242.209 1.563c.435 3.276 2.226 6.198 5.043 8.23C14.326 43.093 17.192 44 20.16 44c.55 0 1.103-.031 1.658-.094a14.095 14.095 0 0 0 4.832-1.442 13.147 13.147 0 0 0 3.784-2.876c.404-.444.34-1.106-.14-1.478-.481-.372-1.198-.314-1.6.13a10.916 10.916 0 0 1-3.143 2.388 11.702 11.702 0 0 1-4.01 1.196c-2.945.334-5.854-.411-8.192-2.098-2.338-1.687-3.825-4.113-4.187-6.833l-.347-2.604a1.034 1.034 0 0 0-.428-.699 1.204 1.204 0 0 0-.838-.214l-3.243.369a1.925 1.925 0 0 1-.21.012c-.832 0-1.537-.577-1.639-1.342-.091-.683.326-1.34 1.015-1.6l.003-.001c.134-.05.276-.085.423-.102l3.248-.368c.623-.07 1.066-.594.989-1.17l-.41-3.083c-.073-.546.35-1.045.94-1.112l20.979-2.378 1.569 11.793a9.42 9.42 0 0 1-.495 4.522c-.2.549.12 1.144.714 1.329.12.037.243.055.363.055.474 0 .917-.276 1.077-.714.643-1.76.843-3.594.596-5.448L31.884 18.23c2.564-.843 4.516-3.526 5.006-7.038.31-2.22-.042-4.477-.992-6.355zM61.774 54.229a3.054 3.054 0 0 0-4.365-.552 1.118 1.118 0 0 0-.183 1.539 1.045 1.045 0 0 0 1.495.189.962.962 0 0 1 1.375.174 1.041 1.041 0 0 0 1.495.189 1.118 1.118 0 0 0 .183-1.54zM49.774 53.229a3.054 3.054 0 0 0-4.365-.552 1.118 1.118 0 0 0-.183 1.539 1.045 1.045 0 0 0 1.495.189.962.962 0 0 1 1.375.174 1.042 1.042 0 0 0 1.495.189 1.118 1.118 0 0 0 .183-1.54zM54.506 59.795l-6.443-.782a1.706 1.706 0 0 0-1.254.344c-.806.622-.618 1.46-.77 2.151-.539 4.345 4.52 7.105 7.956 4.451 2.064-1.595 1.857-3.795 1.992-4.29a1.688 1.688 0 0 0-1.48-1.874zm-1.893 4.416a2.708 2.708 0 0 1-1.993.546c-1.483-.18-2.535-1.512-2.353-2.978l.062-.499 5.365.652c-.065.235.034 1.418-1.08 2.279z"/>
        <path d="M71.962 36.14a4.902 4.902 0 0 0-3.258-1.78l-15.032-1.783a2.064 2.064 0 0 1-1.408-.808 9.472 9.472 0 0 0-4.093-3.13c-.559-.222-1.198.035-1.429.574-.23.54.036 1.158.595 1.38a7.295 7.295 0 0 1 3.152 2.412 4.274 4.274 0 0 0 2.916 1.67l15.032 1.783c1.48.175 2.536 1.48 2.354 2.91L69.13 52.442l-1.658-.197.261-2.058c.217-1.706-1.044-3.265-2.81-3.475l-21.286-2.524c-2-.238-3.768-1.226-4.978-2.783a6.86 6.86 0 0 1-1.373-5.4c.52-3.098 3.144-5.523 6.38-5.899.6-.07 1.028-.596.955-1.175-.072-.58-.617-.993-1.216-.923-4.199.487-7.603 3.637-8.279 7.658-.42 2.5.214 4.988 1.784 7.008a9.467 9.467 0 0 0 5.383 3.422l-1.518 11.94c-.203 1.59-.09 3.177.333 4.715.13.473.573.785 1.056.785.094 0 .188-.012.282-.036.584-.15.932-.729.776-1.293a9.94 9.94 0 0 1-.276-3.914l1.51-11.879 20.2 2.396c.569.067.975.57.905 1.12l-.395 3.106c-.035.278.046.559.224.78.179.22.44.364.729.398l3.127.37c.133.016.262.05.384.096.68.253 1.093.916 1.003 1.62-.098.77-.776 1.352-1.577 1.352-.063 0-.13-.004-.198-.012l-3.127-.372a1.122 1.122 0 0 0-.807.216 1.049 1.049 0 0 0-.413.704l-.334 2.624c-.348 2.739-1.78 5.183-4.03 6.882-2.252 1.7-5.052 2.45-7.888 2.114a10.862 10.862 0 0 1-4.17-1.375 10.539 10.539 0 0 1-3.15-2.766 1.12 1.12 0 0 0-1.528-.226 1.033 1.033 0 0 0-.234 1.477 12.69 12.69 0 0 0 3.793 3.33 13.085 13.085 0 0 0 5.023 1.657c.533.064 1.066.095 1.595.095 2.858 0 5.618-.914 7.906-2.64 2.712-2.047 4.436-4.991 4.855-8.29l.2-1.575c1.954.224 2.106.27 2.507.27 1.904 0 3.516-1.379 3.75-3.207.172-1.364-.448-2.663-1.56-3.423l1.717-13.51a4.578 4.578 0 0 0-1-3.484zM57 9c-.552 0-1 .503-1 1.124v2.752c0 .62.448 1.124 1 1.124s1-.503 1-1.124v-2.752C58 9.504 57.552 9 57 9zM57 16c-.552 0-1 .503-1 1.124v2.752c0 .62.448 1.124 1 1.124s1-.503 1-1.124v-2.752c0-.62-.448-1.124-1-1.124zM62.876 14h-2.752c-.62 0-1.124.448-1.124 1s.503 1 1.124 1h2.752c.62 0 1.124-.448 1.124-1s-.503-1-1.124-1zM53.876 14h-2.752c-.62 0-1.124.448-1.124 1s.503 1 1.124 1h2.752c.62 0 1.124-.448 1.124-1s-.503-1-1.124-1zM17 51c-.552 0-1 .503-1 1.124v2.752c0 .62.448 1.124 1 1.124s1-.503 1-1.124v-2.752c0-.62-.448-1.124-1-1.124zM17 59c-.552 0-1 .503-1 1.124v2.752c0 .62.448 1.124 1 1.124s1-.503 1-1.124v-2.752c0-.62-.448-1.124-1-1.124zM21.876 56h-2.752c-.62 0-1.124.448-1.124 1s.503 1 1.124 1h2.752c.62 0 1.124-.448 1.124-1s-.503-1-1.124-1zM14.876 56h-2.752c-.62 0-1.124.448-1.124 1s.503 1 1.124 1h2.752c.62 0 1.124-.448 1.124-1s-.503-1-1.124-1z"/>
    </g>
</svg>
