<svg xmlns="http://www.w3.org/2000/svg" width="74" height="72" viewBox="0 0 74 72">
    <g fill="#EB1751" fill-rule="nonzero">
        <path d="M49.5 46.155c-1.877 0-3.405-1.202-3.405-2.68 0-1.478 1.528-2.68 3.405-2.68 1.877 0 3.405 1.202 3.405 2.68 0 .777.693 1.407 1.547 1.407.855 0 1.548-.63 1.548-1.407 0-2.579-2.113-4.747-4.952-5.336v-.732c0-.777-.693-1.407-1.548-1.407-.855 0-1.548.63-1.548 1.407v.732C45.113 38.728 43 40.896 43 43.475c0 3.03 2.916 5.494 6.5 5.494 1.877 0 3.405 1.202 3.405 2.68 0 1.478-1.528 2.68-3.405 2.68-1.877 0-3.405-1.202-3.405-2.68 0-.777-.693-1.407-1.547-1.407-.855 0-1.548.63-1.548 1.407 0 2.579 2.113 4.747 4.952 5.336v.608c0 .777.693 1.407 1.548 1.407.855 0 1.548-.63 1.548-1.407v-.608C53.887 56.396 56 54.228 56 51.649c0-3.03-2.916-5.494-6.5-5.494zM64.972 38.038a19.18 19.18 0 0 0-7.856-6.893 1.481 1.481 0 0 0-1.97.685 1.458 1.458 0 0 0 .69 1.953c5.597 2.666 9.212 8.365 9.212 14.516 0 2.633-.654 5.243-1.892 7.55-.383.713-.11 1.6.61 1.98a1.478 1.478 0 0 0 1.996-.605A18.932 18.932 0 0 0 68 48.299c0-3.652-1.047-7.2-3.028-10.261zM51.552 30h-.098c-.803 0-1.454.672-1.454 1.5s.651 1.5 1.454 1.5H51.546c.8 0 1.45-.667 1.454-1.493.004-.828-.644-1.503-1.448-1.507zM42.163 62.217c-5.595-2.667-9.211-8.365-9.211-14.516 0-2.633.655-5.243 1.892-7.55.383-.713.11-1.6-.61-1.98a1.482 1.482 0 0 0-1.996.605A18.932 18.932 0 0 0 30 47.701c0 3.652 1.047 7.2 3.028 10.262a19.18 19.18 0 0 0 7.856 6.892 1.478 1.478 0 0 0 1.97-.685 1.458 1.458 0 0 0-.69-1.953zM47.545 63h-.084c-.807-.001-1.457.664-1.461 1.493-.004.828.645 1.503 1.448 1.507h.097C48.35 66 49 65.328 49 64.5s-.651-1.5-1.455-1.5z"/>
        <path d="M55.993 24.498a6.5 6.5 0 0 0-.643-1.162h3.763c3.666 0 6.649-2.936 6.649-6.546 0-3.609-2.983-6.545-6.649-6.545H47.54a6.438 6.438 0 0 0 1.168-3.7C48.707 2.936 45.724 0 42.059 0H6.649C2.982 0 0 2.936 0 6.545c0 3.61 2.983 6.546 6.648 6.546h11.574a6.438 6.438 0 0 0 0 7.4h-3.769c-3.666 0-6.648 2.935-6.648 6.545 0 2.072.985 3.922 2.517 5.122-1.532 1.2-2.517 3.05-2.517 5.123 0 2.072.985 3.922 2.517 5.122-1.532 1.2-2.517 3.05-2.517 5.123 0 2.072.985 3.922 2.517 5.122-1.532 1.2-2.517 3.05-2.517 5.123 0 3.609 2.982 6.545 6.648 6.545h17.033A24.685 24.685 0 0 0 49.43 72C62.978 72 74 61.149 74 47.81c0-11.1-7.636-20.478-18.007-23.312zm3.12-11.407c2.072 0 3.758 1.66 3.758 3.7s-1.686 3.7-3.758 3.7h-35.41c-2.072 0-3.758-1.66-3.758-3.7s1.686-3.7 3.758-3.7h35.41zM6.648 10.245c-2.072 0-3.757-1.66-3.757-3.7s1.685-3.7 3.757-3.7h35.41c2.073 0 3.758 1.66 3.758 3.7s-1.685 3.7-3.757 3.7H6.649zm7.805 13.09h35.41c.582 0 1.14.134 1.64.373a25.163 25.163 0 0 0-2.073-.087 24.688 24.688 0 0 0-17.387 7.114h-17.59c-2.072 0-3.758-1.66-3.758-3.7s1.686-3.7 3.758-3.7zm0 10.246h15.12a23.973 23.973 0 0 0-3.715 7.4H14.453c-2.072 0-3.758-1.66-3.758-3.7s1.686-3.7 3.758-3.7zm0 10.245h10.742a23.88 23.88 0 0 0-.09 7.4H14.453c-2.072 0-3.758-1.66-3.758-3.7s1.686-3.7 3.758-3.7zm0 17.644c-2.072 0-3.758-1.66-3.758-3.7s1.686-3.699 3.758-3.699h11.243a23.923 23.923 0 0 0 3.467 7.4h-14.71zm34.977 7.684c-11.954 0-21.68-9.575-21.68-21.344 0-11.769 9.726-21.344 21.68-21.344 11.954 0 21.68 9.575 21.68 21.344 0 11.77-9.726 21.344-21.68 21.344z"/>
    </g>
</svg>
