<svg xmlns="http://www.w3.org/2000/svg" xmlns:xlink="http://www.w3.org/1999/xlink" width="97" height="108" viewBox="0 0 97 108">
    <defs>
        <path id="a" d="M.181.598h88.335v106.681H.181z"/>
    </defs>
    <g fill="none" fill-rule="evenodd">
        <path fill="#FFF" d="M0 40l.015 3H3l-.014-3zM10.015 43H13l-.014-3H10zM90.014 18H93l-.015-3H90zM7.985 34H5l.015 3H8z"/>
        <g transform="translate(4.73)">
            <mask id="b" fill="#fff">
                <use xlink:href="#a"/>
            </mask>
            <path fill="#FFF" d="M74.392 103.783l-.075-15.74a1.766 1.766 0 0 0-1.774-1.748c-.974 0-1.76.78-1.757 1.748l.078 15.74h-7.058l-.16-33.23h8.822c6.818.008 12.368 5.487 12.409 12.242l.101 20.988H74.392zM63.536 47.82h.882a6.11 6.11 0 0 0 2.644-.616l.094 19.85h-3.528l-.092-19.234zm-.043-8.746h.882c1.462 0 2.653 1.175 2.66 2.622a2.62 2.62 0 0 1-2.633 2.624h-.884l-.025-5.246zm-.039-8.044c-.016-4.242-2.25-8.183-5.903-10.406l-12.542-9.18a1.772 1.772 0 0 0-2.1 0l-12.324 9.092a12.215 12.215 0 0 0-5.95 10.494l.023 4.548h-.882a6.15 6.15 0 0 0-2.644.612l-.051-10.582 9.96-14.912 12.877-6.391L56.855 10.7l10.102 14.907.032 6.472h-3.53l-.005-1.05zm-34.94 72.753l-.158-33.23h1.762l.021 4.092c.046 6.192 2.846 12.063 7.655 16.041a6.844 6.844 0 0 0-.507 2.603c.02 3.862 3.194 6.994 7.09 6.994 3.899 0 7.045-3.132 7.027-6.994a6.903 6.903 0 0 0-.532-2.603 20.815 20.815 0 0 0 7.499-16.04l-.02-4.093h1.764l.161 33.23H28.514zm-.243-50.425a15.754 15.754 0 0 0 3.746 5.863c.999.987 2.129 1.828 3.364 2.501 0 .03-.018.055-.018.088l.027 5.245h-7.052l-.067-13.697zm24.77 13.697l-.024-5.245c-.002-.033-.018-.058-.02-.088a14.804 14.804 0 0 0 3.342-2.5 15.551 15.551 0 0 0 3.694-5.864l.066 13.697h-7.057zm-14.134-3.97c1.206.31 2.448.47 3.694.473h3.201a15.008 15.008 0 0 0 3.691-.473l.028 5.72a1.765 1.765 0 0 0 1.771 1.748h.923c-1.838 4.368-6.908 6.415-11.324 4.572a8.684 8.684 0 0 1-4.635-4.572h.922c.975 0 1.76-.783 1.757-1.748l-.028-5.72zM49.36 35.578h10.267l-1.028 6.243a3.495 3.495 0 0 1-2.147.751h-3.529c-1.95 0-3.536-1.565-3.545-3.498l-.018-3.496zm-7.057 0h3.528l.008 1.748H42.31l-.007-1.748zM29.587 41.82l-1.082-6.243h10.267l.018 3.496c.01 1.933-1.564 3.498-3.512 3.498H31.75a3.533 3.533 0 0 1-2.163-.751zm2.18 4.249h3.529a7.006 7.006 0 0 0 5.495-2.678l-.124.376a1.748 1.748 0 0 0 .435 1.79l1.774 1.748c.705.672 1.82.651 2.495-.044a1.737 1.737 0 0 0-.012-2.43l-.998-.983 1.003-3.025h.745c.815 3.078 3.624 5.235 6.83 5.246h3.53c.496 0 .99-.056 1.472-.158l-.687 4.194a12.062 12.062 0 0 1-3.415 6.648 11.338 11.338 0 0 1-8.055 3.306h-3.199a11.45 11.45 0 0 1-8.084-3.311 12.208 12.208 0 0 1-3.483-6.646l-.728-4.198c.486.105.981.163 1.476.165zm16.106 47.219c.01 1.93-1.563 3.496-3.51 3.496-1.95 0-3.538-1.565-3.547-3.496-.01-1.931 1.562-3.498 3.512-3.498s3.538 1.567 3.545 3.498zm-3.561-6.994a6.992 6.992 0 0 0-4.422 1.591c-3.913-3.317-6.186-8.15-6.221-13.24l-.007-1.47c3.348 5.797 10.79 7.827 16.62 4.534a12.027 12.027 0 0 0 4.554-4.533l.005 1.463a17.346 17.346 0 0 1-6.093 13.241 7.051 7.051 0 0 0-4.436-1.586zM28.164 31.03a8.828 8.828 0 0 1 4.389-7.594l11.414-8.42 11.639 8.51a8.824 8.824 0 0 1 4.32 7.504l.004 1.05H28.17l-.006-1.05zm-3.447 16.79l.092 19.235h-3.53l-.095-19.85c.827.4 1.732.61 2.65.615h.883zm-.898-3.5c-1.464 0-2.655-1.173-2.66-2.624-.009-1.447 1.171-2.622 2.633-2.622h.882l.027 5.246h-.882zm-5.891 59.463l-.077-15.74a1.764 1.764 0 0 0-1.774-1.748c-.972 0-1.757.78-1.755 1.748l.076 15.74H3.812l-.101-20.988C3.686 76.04 9.185 70.56 16.002 70.553h8.823l.161 33.23h-7.058zm49.08-67.593a6.192 6.192 0 0 0-2.649-.612h2.646l.003.612zm5.443 30.865h-1.764l-.153-31.477h5.293c.975 0 1.762-.785 1.757-1.75a1.767 1.767 0 0 0-1.774-1.748h-5.294l-.033-6.996a1.734 1.734 0 0 0-.302-.971L59.521 8.374a1.789 1.789 0 0 0-.682-.596L44.688.784a1.765 1.765 0 0 0-1.578 0L29.028 7.778a1.748 1.748 0 0 0-.676.596L17.84 24.113a1.752 1.752 0 0 0-.291.97l.202 41.972h-1.764C7.221 67.067.15 74.107.182 82.795l.11 22.734c.003.968.796 1.75 1.772 1.75H86.76c.976 0 1.762-.782 1.756-1.75l-.11-22.734c-.051-8.688-7.19-15.728-15.955-15.74z" mask="url(#b)"/>
        </g>
        <path fill="#FFF" d="M44.563 52.88v.003a9.767 9.767 0 0 0 8.631 0 1.733 1.733 0 0 0 .797-2.341 1.775 1.775 0 0 0-2.364-.8l-.023.01a6.198 6.198 0 0 1-5.48 0 1.77 1.77 0 0 0-2.363.783 1.748 1.748 0 0 0 .802 2.346M52.275 25.084h-7.058c-.975 0-1.76.782-1.757 1.748a1.767 1.767 0 0 0 1.774 1.748h7.057c.976 0 1.762-.781 1.757-1.748a1.767 1.767 0 0 0-1.773-1.748M8.255 44.321h-3.53l.017 3.498h3.53zM92.79 11.093l.019 3.496h3.527l-.016-3.496zM92.775 7.596h-3.53l.018 3.497h3.528zM85.734 11.093l.016 3.496h3.531l-.02-3.496z"/>
    </g>
</svg>
