<svg xmlns="http://www.w3.org/2000/svg" width="82" height="22" viewBox="0 0 82 22">
    <g fill="#FFF" fill-rule="evenodd">
        <path d="M63.231 21.987c.005-.129.015-.257.015-.386.001-7.057.002-14.116-.007-21.173 0-.33.082-.406.404-.4 1.448.017 2.901.017 4.351 0 .321-.006.38.093.378.394-.012 2.878-.007 5.756-.007 8.636v.428c.638-.767 1.22-1.463 1.797-2.16 1.963-2.363 3.928-4.723 5.884-7.089a.588.588 0 0 1 .516-.235c1.58.01 3.158.005 4.738.005h.368l-2.087 2.436c-2.224 2.592-4.446 5.187-6.676 7.771-.15.176-.11.266.014.422 3.002 3.702 6 7.408 8.998 11.116.055.07.162.115.134.235h-5.929c-.04-.062-.076-.129-.12-.186-2.494-3.156-4.988-6.31-7.484-9.464-.033-.043-.048-.127-.145-.1-.002.063-.007.127-.007.19v9.337c0 .075.014.148.02.223h-5.155zM48.74 15.078v2.865c0 .122-.044.265.173.26 1.243-.039 2.492.093 3.728-.089.93-.138 1.74-.526 2.154-1.43.466-1.027.473-2.09.012-3.116-.452-1.008-1.366-1.373-2.386-1.503-1.164-.149-2.337-.037-3.505-.072-.218-.008-.176.13-.176.253v2.832zm-4.718 6.91c-.006-.119-.015-.236-.015-.354 0-7.089.001-14.178-.007-21.267 0-.28.054-.368.358-.367 4.37.01 8.742.01 13.114.001.267 0 .361.04.354.338a77.148 77.148 0 0 0 0 3.191c.007.31-.097.354-.372.353-2.78-.01-5.564-.002-8.345-.013-.26 0-.339.051-.338.326.004 1.332-.01 2.664-.035 3.995-.004.237.05.311.297.31 1.246-.007 2.492-.02 3.736.022 1.297.045 2.555.294 3.73.876 1.694.838 2.711 2.198 3.06 4.048.265 1.423.24 2.848-.21 4.233-.69 2.13-2.25 3.326-4.34 3.912a9.52 9.52 0 0 1-1.962.334c-.053.004-.112-.01-.129.061h-8.896zM0 .007h20.449c-.004.138-.101.182-.166.245A54218.613 54218.613 0 0 1 .215 20.312c-.068.068-.144.128-.215.192V.007zM1.481 21.987c.104-.109.204-.22.311-.326l19.9-19.88c.073-.076.132-.169.183-.234.16.053.117.143.117.207.002 6.702.002 13.402.001 20.104 0 .044-.009.085-.015.13H1.481zM31.06 7.13c0 1.052 0 2.104.003 3.157 0 .108-.047.24.155.234 1.095-.034 2.195.08 3.281-.079.843-.123 1.587-.455 2.102-1.173.559-.778.63-1.672.578-2.585-.09-1.624-.988-2.594-2.593-2.814-1.078-.147-2.166-.04-3.248-.08-.225-.009-.287.051-.283.278.014 1.021.006 2.041.006 3.061zM26.17 21.986c.005-.129.017-.257.017-.384 0-7.078.002-14.155-.006-21.23 0-.28.052-.375.36-.373 2.479.014 4.96-.006 7.44.015 1.569.013 3.1.247 4.524.953 2.006.994 3.05 2.66 3.326 4.841.156 1.267.122 2.531-.273 3.758-.684 2.124-2.215 3.352-4.294 3.975-1.12.334-2.27.45-3.432.452-.839.001-1.677.004-2.514-.003-.174 0-.265.01-.262.233.012 2.587.01 5.174.012 7.763H26.17z"/>
    </g>
</svg>
