<svg xmlns="http://www.w3.org/2000/svg" width="58" height="73" viewBox="0 0 58 73">
    <g fill="#EB1751" fill-rule="nonzero">
        <path d="M29.5 6c-.832 0-1.5.67-1.5 1.5 0 .773.581 1.416 1.35 1.492.89.089 1.65-.604 1.65-1.492 0-.831-.67-1.5-1.5-1.5z"/>
        <path d="M56.619 8.555c-3.807 0-6.905-3.198-6.905-7.13 0-.787-.618-1.425-1.38-1.425H9.666c-.763 0-1.381.638-1.381 1.426 0 3.93-3.098 7.129-6.905 7.129C.618 8.555 0 9.193 0 9.98v23.268C0 51.38 11.447 67.628 28.603 72.94a1.345 1.345 0 0 0 .794 0C46.18 67.742 58 51.777 58 33.248V9.98c0-.787-.618-1.425-1.381-1.425zm-1.38 24.693c0 17.03-10.527 31.78-26.239 36.835C13.413 65.068 2.762 50.185 2.762 33.248V11.305c4.227-.627 7.58-4.089 8.187-8.453h36.102c.607 4.364 3.96 7.826 8.187 8.453v21.943z"/>
        <path d="M52.172 13.447c-2.883-1.295-5.165-3.639-6.428-6.597A1.382 1.382 0 0 0 44.478 6h-9.451c-.764 0-1.383.635-1.383 1.419 0 .783.62 1.419 1.383 1.419h8.577c1.46 2.934 3.772 5.307 6.631 6.806v17.767c0 13.885-8.12 25.865-20.735 30.661C16.886 59.276 8.765 47.296 8.765 33.411V15.644c2.859-1.499 5.17-3.872 6.631-6.806h8.577c.764 0 1.383-.636 1.383-1.42 0-.783-.62-1.418-1.383-1.418h-9.45c-.55 0-1.047.334-1.267.85-1.263 2.958-3.545 5.302-6.428 6.597a1.421 1.421 0 0 0-.828 1.3v18.664c0 15.211 9.167 28.469 23.039 33.508a1.35 1.35 0 0 0 .922 0C43.821 61.884 53 48.635 53 33.41V14.747a1.42 1.42 0 0 0-.828-1.3z"/>
        <path d="M29.5 21C22.608 21 17 26.832 17 34s5.608 13 12.5 13S42 41.168 42 34s-5.608-13-12.5-13zm0 23.111c-5.36 0-9.722-4.536-9.722-10.111 0-5.575 4.361-10.111 9.722-10.111 5.36 0 9.722 4.536 9.722 10.111 0 5.575-4.361 10.111-9.722 10.111z"/>
        <path d="M34.61 29.418a1.272 1.272 0 0 0-1.886 0L27 35.551l-1.724-1.847a1.272 1.272 0 0 0-1.886 0 1.502 1.502 0 0 0 0 2.02l2.667 2.858c.26.278.602.418.943.418.341 0 .682-.14.943-.418l6.667-7.143c.52-.558.52-1.463 0-2.02z"/>
    </g>
</svg>
