<svg xmlns="http://www.w3.org/2000/svg" xmlns:xlink="http://www.w3.org/1999/xlink" width="88" height="105" viewBox="0 0 88 105">
    <defs>
        <path id="a" d="M0 .621h87.037V105H0z"/>
    </defs>
    <g fill="none" fill-rule="evenodd">
        <path fill="#FFF" d="M43.686 41h1.662c.916 0 1.658-.786 1.652-1.751-.003-.967-.75-1.75-1.669-1.75l-.007-1.748c-.005-.967-.752-1.751-1.669-1.751-.92 0-1.658.784-1.655 1.751l.018 3.498c.003.965.752 1.751 1.668 1.751M33.987 32c-1.101 0-1.992.747-1.987 1.667l.009 1.668c.005.92.903 1.665 2.006 1.665 1.101 0 1.992-.746 1.985-1.665l-.009-1.668c-.004-.92-.903-1.667-2.004-1.667M53.013 37c1.103 0 1.994-.746 1.987-1.665l-.009-1.668c-.005-.92-.903-1.667-2.006-1.667-1.1 0-1.992.747-1.985 1.667l.009 1.668c.005.92.903 1.665 2.004 1.665"/>
        <g>
            <mask id="b" fill="#fff">
                <use xlink:href="#a"/>
            </mask>
            <path fill="#FFF" d="M73.111 101.52l-.032-6.958h10.43l.034 6.958H73.11zm-.156-32.914a12.258 12.258 0 0 1 10.488 12.039l.05 10.438H73.062l-.106-22.477zM17.482 101.52l-.156-33.052h13.907l.065 13.917c.007.959.787 1.74 1.747 1.74.188 0 .373-.031.55-.09l3.886-1.3 4.535 7.504a1.743 1.743 0 0 0 2.39.593c.24-.145.444-.35.59-.593l4.463-7.507 3.898 1.297c.178.062.363.094.55.096.959 0 1.735-.781 1.728-1.74l-.065-13.917h13.909l.156 33.052H17.482zm10.15-59.148l-.03-6.087 6.237-4.699c.435-.327.69-.843.688-1.39l-.017-3.48h17.384l.018 3.48c.003.547.262 1.063.702 1.39l6.28 4.699.028 6.087c.043 8.647-6.929 15.657-15.57 15.657s-15.68-7.01-15.72-15.657zm-.134-27.834a3.458 3.458 0 0 1 3.46-3.48c.96 0 1.735-.776 1.73-1.738a5.186 5.186 0 0 1 5.19-5.219H48.31a5.248 5.248 0 0 1 5.24 5.219 1.745 1.745 0 0 0 1.746 1.738 3.498 3.498 0 0 1 3.494 3.48l.083 17.397-3.489-2.609-.02-4.35a1.75 1.75 0 0 0-1.748-1.74H51.88l-.018-3.48a1.749 1.749 0 0 0-1.747-1.738 1.73 1.73 0 0 0-1.73 1.739l.017 3.48h-3.477l-.031-6.959a1.752 1.752 0 0 0-1.749-1.74c-.961 0-1.734.78-1.729 1.74l.033 6.959h-3.476l-.018-3.48a1.749 1.749 0 0 0-1.747-1.739 1.73 1.73 0 0 0-1.73 1.739l.017 3.48h-1.739c-.96 0-1.734.78-1.73 1.738l.022 4.351-3.464 2.61-.085-17.398zM43.46 80.741l2.61.87-2.585 4.348-2.629-4.349 2.604-.869zm-5.31-19.972c3.412.987 7.028.987 10.429 0l.028 5.496-5.173 9.132-5.259-9.132-.026-5.496zm2.734 17.159l-6.12 2.04-.055-11.5h.73l1.089 1.892 4.356 7.568zm11.21-9.46l.055 11.5-6.14-2.047 4.284-7.568 1.071-1.885h.73zM3.575 101.52l-.033-6.958h10.43l.033 6.958H3.575zm-.098-20.875A12.11 12.11 0 0 1 13.85 68.606l.106 22.477H3.525l-.048-10.438zm18.07-38.273a2.625 2.625 0 0 1-2.62-2.607 2.594 2.594 0 0 1 2.595-2.611h2.608l.024 5.218h-2.607zm43.436-5.218a2.625 2.625 0 0 1 2.62 2.61 2.591 2.591 0 0 1-2.596 2.608H62.4l-.026-5.218h2.609zm21.938 43.49c-.05-8.642-7.084-15.646-15.721-15.655H52.076l-.026-5.592a19.052 19.052 0 0 0 10.034-13.546h2.94a6.05 6.05 0 0 0 6.055-6.086 6.12 6.12 0 0 0-6.113-6.09H62.36l-.091-19.137a7.015 7.015 0 0 0-5.388-6.772A8.76 8.76 0 0 0 48.294.62H37.862a8.654 8.654 0 0 0-8.518 7.145 6.929 6.929 0 0 0-5.322 6.772l.093 19.137h-2.61a6.05 6.05 0 0 0-6.055 6.09 6.12 6.12 0 0 0 6.113 6.086h2.94a19.306 19.306 0 0 0 10.164 13.546l.026 5.592H15.57C6.934 64.998-.033 72.002 0 80.645L.117 105h86.92l-.116-24.355z" mask="url(#b)"/>
        </g>
        <path fill="#FFF" d="M48.802 46.121c-.456-1.001-1.56-1.408-2.463-.905a5.855 5.855 0 0 1-5.695 0c-.907-.501-2.007-.095-2.455.907-.447 1.002-.074 2.217.836 2.718 2.83 1.545 6.148 1.545 8.969 0 .903-.501 1.265-1.716.808-2.72M55 91l.018 4H68l-.018-4zM42 94l.02 4H46l-.021-4z"/>
    </g>
</svg>
