<?xml version="1.0" encoding="utf-8"?>
<!-- Generator: Adobe Illustrator 22.0.1, SVG Export Plug-In . SVG Version: 6.00 Build 0)  -->
<svg version="1.1" id="Layer_1" xmlns="http://www.w3.org/2000/svg" xmlns:xlink="http://www.w3.org/1999/xlink" x="0px" y="0px"
	 viewBox="0 0 170.5 182.9" style="enable-background:new 0 0 170.5 182.9;" xml:space="preserve">
<style type="text/css">
	.st0{fill:url(#SVGID_1_);}
	.st1{fill:#EB1751;}
	.st2{fill:#FFFFFF;}
</style>
<g>
	
		<linearGradient id="SVGID_1_" gradientUnits="userSpaceOnUse" x1="-217.6892" y1="402.0076" x2="-217.6892" y2="401.0076" gradientTransform="matrix(87.6538 -104.4617 -156.6627 -131.4557 82063.4609 30142.5801)">
		<stop  offset="0" style="stop-color:#70058A"/>
		<stop  offset="1" style="stop-color:#460575"/>
	</linearGradient>
	<path class="st0" d="M32.8,150.5c23.6,23.3,58.1,35.3,91.2,31.7c15.9-1.7,36.3-9.4,42.8-25.4c0.4-0.9,0.7-1.9,1.1-2.9
		c5.2-15.9,2.4-37-8.6-49.2C140.5,84,103.9,83.4,89.9,59.2c-5.7-9.9-6.5-22.1-10.5-32.7c0.8-3.6,3.8-10.3,2.3-12.4
		c-1.5-2.1-7-0.8-9.2,0.7c-6.7-7.3-16.9-10.3-27-9.6c-0.5-2.5-1.8-5-3.5-5.2c-2.6-0.3-7.2,5.8-10,8c-0.2,0.2-0.3,0.4-0.3,0.5
		c-2.6,1.1-5,2.5-7.3,4.2C9.7,23.5,2.5,42,0.6,60C-2.9,92.9,9.2,127.2,32.8,150.5"/>
	<path class="st1" d="M43,50c0,0.6,0.2,1.1,0.5,1.6c0.3,0.5,0.9,0.8,1.5,0.7c0.6,0,1-0.4,1.4-0.9c0.3-0.5,0.5-1,0.7-1.5
		c0.1-0.4,0.3-0.9,0.4-1.3c0-0.1,0-0.1,0-0.2c0-0.1-0.1-0.1-0.1-0.2c-0.4-0.5-0.8-1.1-1.1-1.7c0.1,0.2-1.3,0.2-1.4,0.2
		c-0.4,0-0.8,0-1.1,0.3C43.1,47.6,42.9,49,43,50"/>
	<path d="M43.6,49.9c0,0.5,0.2,1,0.4,1.3c0.2,0.3,0.6,0.5,0.9,0.5c0.3,0,0.7-0.3,0.9-0.6c0.3-0.4,0.4-0.9,0.6-1.4l0.4-1.2
		c-0.3-0.4-0.6-0.8-0.8-1.2c-0.4,0-0.7,0.1-1.1,0c-0.3,0-0.5,0-0.6,0.1C43.8,47.9,43.5,49.1,43.6,49.9 M43.3,52.3
		c-0.1-0.1-0.2-0.2-0.3-0.4c-0.4-0.5-0.6-1.2-0.7-1.9c-0.1-1.2,0.2-2.7,1.1-3.5c0.5-0.5,0.8,0.1,1.2,0.1c0.3,0,1.1-0.5,1.1-0.3
		l0.5,0.2c0,0,0.3,0.8,0.7,1.4c0.1,0.1,0.9,0.4,1,0.7c0,0.2,0.2,0.2,0.1,0.3l-0.4,1.3c-0.2,0.5-0.4,1.2-0.8,1.7
		c-0.5,0.7-1.1,1.1-1.8,1.1C44.4,53,43.8,52.7,43.3,52.3 M68.4,41.4c-0.3,1.4-0.7,2.9-1.6,3.9c-1,1.1-2.7,1.6-3.9,0.9
		c-0.8-0.4-1.2-1.2-1.6-2c-0.2-0.5-0.5-0.9-0.5-1.4c-0.1-0.7,0.1-1.3,0.3-2l0.6-1.9c0.3-1.2,0.7-2.4,1.5-3.4c0.8-1,2-1.6,3.2-1.4
		C69.2,34.9,68.9,39.2,68.4,41.4"/>
	<path d="M42.4,47.1c1,0.4,2,0.2,2.7-0.1c0.1,0,0.2-0.1,0.3-0.1c0.2-0.1,0.6-0.1,0.7,0.2c0,0,0,0,0,0.1c0.2,0.5,0.5,1,0.9,1.3
		c1.2,1.1,3.1,1.2,4.4,0.4c0.3-0.2,0.4-0.5,0.2-0.8c-0.1-0.3-0.5-0.4-0.8-0.2c0,0,0,0,0,0c-0.9,0.6-2.3,0.5-3.1-0.3
		c-0.7-0.6-1-1.6-0.8-2.5c0-0.1,0-0.2,0-0.3c0-0.3-0.3-0.5-0.5-0.5c-0.1,0-0.3,0.1-0.3,0.2c-0.1,0.1-0.2,0.2-0.2,0.3
		c-0.3,0.6-0.7,1-1.3,1.3c-0.6,0.3-2.6,0.6-3.6-1.7c-0.1-0.3-0.5-0.4-0.8-0.3c0,0,0,0,0,0c-0.3,0.2-0.3,0.5-0.2,0.8
		C40.7,46.1,41.5,46.8,42.4,47.1 M47.5,40.9c1.5,0.5,2.6,1.2,2.4,1.6c-0.2,0.4-1.5,0.9-2.8,0.5c-1.3-0.5-2.4-1.9-2.2-2.2
		C45.2,40.3,46,40.3,47.5,40.9 M21.6,39.5c2.2,0.7,3.3-2.7,1.1-3.4C20.4,35.4,19.4,38.8,21.6,39.5 M67.9,55.8c1.9,0.6,2.8-2.4,0.9-3
		C66.9,52.2,66,55.2,67.9,55.8 M39.4,26.8c0.3,1.3,0.2,2.6-0.1,3.9c-0.5,2.1-1.4,4.2-3.1,5.4c-0.4,0.3-0.8,0.5-1.2,0.6
		c-0.5,0.1-0.9-0.1-1.3-0.3c-1.8-0.9-2.8-3-2.8-5c0-2,0.8-3.9,1.8-5.7c0.5-0.8,1-1.7,1.8-2.3C37,21.7,39,24.5,39.4,26.8"/>
	<path class="st2" d="M67.8,41.2c2.3,0.6,3.2-2.9,0.9-3.5C66.4,37.1,65.5,40.6,67.8,41.2 M38.7,30c2.3,0.6,3.2-2.9,0.9-3.5
		C37.3,25.9,36.4,29.5,38.7,30"/>
</g>
</svg>
