<?xml version="1.0" encoding="utf-8"?>
<!-- Generator: Adobe Illustrator 22.0.1, SVG Export Plug-In . SVG Version: 6.00 Build 0)  -->
<svg version="1.1" id="Layer_1" xmlns="http://www.w3.org/2000/svg" xmlns:xlink="http://www.w3.org/1999/xlink" x="0px" y="0px"
	 viewBox="0 0 172 167" style="enable-background:new 0 0 172 167;" xml:space="preserve">
<style type="text/css">
	.st0{filter:url(#Adobe_OpacityMaskFilter);}
	.st1{fill:#FFFFFF;}
	.st2{mask:url(#c_1_);fill:url(#SVGID_1_);}
</style>
<g>
	<g transform="translate(0 .913)">
		<defs>
			<filter id="Adobe_OpacityMaskFilter" filterUnits="userSpaceOnUse" x="0" y="0.1" width="172" height="165.9">
				<feColorMatrix  type="matrix" values="1 0 0 0 0  0 1 0 0 0  0 0 1 0 0  0 0 0 1 0"/>
			</filter>
		</defs>
		<mask maskUnits="userSpaceOnUse" x="0" y="0.1" width="172" height="165.9" id="c_1_">
			<g class="st0">
				<path id="a_1_" class="st1" d="M0,0.1h172V166H0V0.1z"/>
			</g>
		</mask>
		
			<linearGradient id="SVGID_1_" gradientUnits="userSpaceOnUse" x1="-211.7827" y1="380.8064" x2="-210.7827" y2="381.8064" gradientTransform="matrix(171.979 0 0 -165.9118 36418.5234 63342.7266)">
			<stop  offset="0" style="stop-color:#FF9600"/>
			<stop  offset="1" style="stop-color:#FDCC80"/>
		</linearGradient>
		<path class="st2" d="M156.2,84.4c-20.7-16.9-55.3-12.2-72-33.1c-6.5-8.2-9.1-19-13.9-28.2c0.3-0.3,0.4-0.7,0.3-1.2
			c-1.3-6-0.9-18.9-4.7-21.3c-3.5-2.2-10.6,2.8-13.5,6.5c-6.2-1.9-13.2-1.8-19.8,0c-3,0.8-5.9,2-8.7,3.6C21.1,7.3,12.7,2.6,9.3,5.3
			C5.9,8.1,9.8,18.5,8.3,26c0,0.2,0,0.4,0,0.6C1.8,37.8-0.5,51.6,0.1,64.8c1.4,31.6,17.7,62.1,43.3,80.8
			c25.6,18.7,59.8,25.1,90.6,17c14.7-3.9,32.9-14,36.7-30.1c0.2-0.9,0.4-1.9,0.6-2.9C174,113.8,168.4,94.3,156.2,84.4"/>
	</g>
	<path class="st1" d="M29.7,49.2c7.1-7.9-5.2-19-12.3-11C10.3,46,22.6,57.1,29.7,49.2"/>
	<path d="M39.8,56.4c1-0.1,1.9-0.7,2.4-1.3c0.1-0.1,0.1-0.2,0.2-0.3c0.2-0.2,0.5-0.3,0.7-0.1c0,0,0,0,0.1,0c0.4,0.4,0.9,0.6,1.4,0.8
		c1.5,0.4,3.3-0.3,4.1-1.6c0.2-0.3,0.1-0.6-0.1-0.8c-0.2-0.2-0.6-0.1-0.8,0.1c0,0,0,0,0,0c-0.6,0.9-1.8,1.4-2.9,1.1
		c-0.9-0.2-1.6-1-1.8-1.9c0-0.1-0.1-0.2-0.1-0.3c-0.1-0.2-0.5-0.3-0.7-0.2c-0.1,0.1-0.2,0.2-0.2,0.3c0,0.1-0.1,0.3-0.1,0.3
		c0,0.6-0.2,1.2-0.6,1.7c-0.4,0.5-2,1.6-3.9,0.1c-0.2-0.2-0.6-0.1-0.8,0.1c0,0,0,0,0,0c-0.2,0.3-0.1,0.6,0.2,0.8
		C37.8,56.3,38.8,56.5,39.8,56.4 M41.4,49.1c1.6-0.2,2.9-0.2,2.9,0.2c0,0.5-0.9,1.5-2.2,1.7c-1.4,0.2-3-0.5-3-0.9
		C39,49.8,39.8,49.4,41.4,49.1 M15.8,55.1c2-0.3,1.6-3.4-0.4-3.1C13.4,52.3,13.8,55.4,15.8,55.1 M70.7,47.5c2.2-0.3,1.7-3.7-0.4-3.4
		C68.1,44.4,68.5,47.8,70.7,47.5 M19.8,48.2c0-0.1,0-0.2,0.1-0.2c0,0,0.1,0,0.1,0c0.8,0.2,3.4,1,5.3,0.6c2.4-0.4,4-2.4,4.1-2.2
		c0.2,0.4-0.6,2.9-3.6,3.6C23.1,50.6,20.3,49.4,19.8,48.2 M52.3,43.5c-0.1-0.2,0.1-0.4,0.3-0.3c0.9,0.2,3.3,0.9,5.2,0.6
		c2.4-0.4,4-2.4,4.1-2.2c0.2,0.4-0.6,2.9-3.6,3.6C55.6,45.8,52.9,44.7,52.3,43.5"/>
</g>
</svg>
