<?xml version="1.0" encoding="utf-8"?>
<!-- Generator: Adobe Illustrator 22.0.1, SVG Export Plug-In . SVG Version: 6.00 Build 0)  -->
<svg version="1.1" id="Layer_1" xmlns="http://www.w3.org/2000/svg" xmlns:xlink="http://www.w3.org/1999/xlink" x="0px" y="0px"
	 viewBox="0 0 210 274" style="enable-background:new 0 0 210 274;" xml:space="preserve">
<style type="text/css">
	.st0{filter:url(#Adobe_OpacityMaskFilter);}
	.st1{fill:#FFFFFF;}
	.st2{mask:url(#b_1_);fill:#FDCC80;}
</style>
<g>
	<g transform="translate(0 -.159)">
		<defs>
			<filter id="Adobe_OpacityMaskFilter" filterUnits="userSpaceOnUse" x="0" y="0.2" width="209.8" height="273.8">
				<feColorMatrix  type="matrix" values="1 0 0 0 0  0 1 0 0 0  0 0 1 0 0  0 0 0 1 0"/>
			</filter>
		</defs>
		<mask maskUnits="userSpaceOnUse" x="0" y="0.2" width="209.8" height="273.8" id="b_1_">
			<g class="st0">
				<path id="a_1_" class="st1" d="M209.8,274H0L0,0.2l209.8,0V274z"/>
			</g>
		</mask>
		<path class="st2" d="M6.6,182.3c-10.7,19.5-7.8,48.1,4.1,67.4c0.7,1.2,1.5,2.3,2.3,3.5c13.6,19,42.9,22.8,64.3,20.1
			c44.8-5.7,86.4-32.3,110.1-70.4c23.7-38.1,29-87,14-129.2c-6.3-17.8-16.8-34.9-31.6-46.2c-0.1-0.1-0.1-0.2-0.2-0.4
			c-5.9-9.1-6.3-24.9-12.3-26.7c-5.9-1.8-14.4,8.9-16.4,14.9c-4.3-0.5-8.6-0.5-12.9,0c-9.8,1.1-19.2,4.8-26.5,10.8
			c-6.1-3.1-16.8-5.3-20.1-0.9c-3.7,5.1,3.6,21.9,5.1,30.4c0.1,0.4,0.2,0.8,0.4,1c-1.3,14.5,1,29.9-3.3,43.9
			C72.8,136.9,24.9,149,6.6,182.3"/>
	</g>
	<path d="M147.8,67.9c0-0.7,1-0.8,1.2-0.2c0.5,1.7-0.7,3.5-2.5,3.7c-1.5,0.2-2.9-0.7-3.9-1.8c0.1,1.3-0.1,2.7-1.2,3.5
		c-1.3,1-3.3,0.6-4-0.9c-0.3-0.7,0.4-1.2,1-0.8c0.8,0.6,1.8,1.1,2.5,0c0.6-0.9,0.5-3,0.5-3.4c0-0.4,0.7-0.7,0.9-0.3
		c0.9,1.1,2,2.1,3.5,2.3C147.1,70.3,147.7,69.2,147.8,67.9 M143.2,64.5c0.6,1.6-3.6,3.4-4.3,1.6C138.3,64.3,142.6,62.9,143.2,64.5
		 M158.7,45.2c4.3,1.9,7.3,7.4,5.5,12c-1.9,4.6-7.3,2.5-10-0.2c-1.2-1.2-2.1-2.9-2.1-4.6c-0.1-1.5,0.5-3,1.1-4.3
		c0.7-1.5,1.8-3,3.4-3.2C157.2,44.7,158,44.9,158.7,45.2 M123,56.5c4.1,1.7,7.2,6.8,5.6,11.2c-1.7,4.4-6.9,2.6-9.6,0.1
		c-1.2-1.1-2.1-2.7-2.2-4.3c-0.1-1.4,0.4-2.8,0.9-4.2c0.6-1.4,1.6-2.9,3.1-3.2C121.6,56,122.3,56.2,123,56.5"/>
	<path class="st1" d="M154.3,53c-2.8,2.6-6.9-1.7-4.1-4.3C152.9,46.1,157,50.4,154.3,53 M118.4,64.9c-2.3,2.2-5.6-1.4-3.4-3.5
		C117.3,59.2,120.7,62.7,118.4,64.9"/>
	<path d="M113.5,81.8c-2.2,1.9-5.2-1.6-3-3.5C112.8,76.4,115.7,79.9,113.5,81.8 M174.6,61.1c-2.2,1.9-5.2-1.6-3-3.5
		C173.9,55.7,176.9,59.2,174.6,61.1"/>
</g>
</svg>
