<?xml version="1.0" encoding="utf-8"?>
<!-- Generator: Adobe Illustrator 22.0.1, SVG Export Plug-In . SVG Version: 6.00 Build 0)  -->
<svg version="1.1" id="Layer_1" xmlns="http://www.w3.org/2000/svg" xmlns:xlink="http://www.w3.org/1999/xlink" x="0px" y="0px"
	 viewBox="0 0 210 274" style="enable-background:new 0 0 210 274;" xml:space="preserve">
<style type="text/css">
	.st0{filter:url(#Adobe_OpacityMaskFilter);}
	.st1{fill:#FFFFFF;}
	.st2{mask:url(#b_1_);fill:#FDCC80;}
</style>
<g>
	<g transform="translate(0 -.159)">
		<defs>
			<filter id="Adobe_OpacityMaskFilter" filterUnits="userSpaceOnUse" x="0" y="0.2" width="209.8" height="273.8">
				<feColorMatrix  type="matrix" values="1 0 0 0 0  0 1 0 0 0  0 0 1 0 0  0 0 0 1 0"/>
			</filter>
		</defs>
		<mask maskUnits="userSpaceOnUse" x="0" y="0.2" width="209.8" height="273.8" id="b_1_">
			<g class="st0">
				<path id="a_1_" class="st1" d="M0,0.2h209.8V274H0V0.2z"/>
			</g>
		</mask>
		<path class="st2" d="M203.2,182.3C185,149,137,136.9,126.1,100.6c-4.2-14-1.9-29.4-3.3-43.9c0.2-0.3,0.4-0.6,0.4-1
			c1.5-8.5,8.8-25.4,5.1-30.4c-3.2-4.4-14-2.2-20.1,0.9c-7.3-6.1-16.7-9.7-26.5-10.8c-4.3-0.5-8.6-0.5-12.9,0
			c-2-6.1-10.5-16.7-16.5-14.9C46.5,2.2,46.1,18,40.2,27c-0.1,0.1-0.1,0.2-0.2,0.4C25.1,38.7,14.7,55.9,8.4,73.6
			c-15,42.2-9.7,91.1,14,129.2c23.7,38.1,65.3,64.7,110.1,70.4c21.4,2.7,50.7-1,64.3-20.1c0.8-1.1,1.6-2.3,2.3-3.5
			C211,230.4,213.9,201.8,203.2,182.3"/>
	</g>
	<path d="M62,67.9c0.1,1.2,0.7,2.3,2.1,2.2c1.4-0.2,2.6-1.2,3.5-2.3c0.3-0.3,0.9-0.1,0.9,0.3c0,0.4-0.1,2.5,0.5,3.4
		c0.7,1.1,1.7,0.7,2.5,0c0.6-0.4,1.3,0.1,1,0.8c-0.7,1.5-2.7,1.9-4,0.9c-1.1-0.8-1.3-2.2-1.2-3.5c-1,1.1-2.3,2-3.9,1.8
		c-1.8-0.2-3-2-2.5-3.7C61.1,67.1,62,67.3,62,67.9 M66.6,64.5c0.7-1.6,4.9-0.2,4.3,1.6C70.2,67.9,65.9,66.1,66.6,64.5 M51.2,45.2
		c0.7-0.3,1.5-0.5,2.2-0.4c1.6,0.2,2.7,1.8,3.4,3.2c0.6,1.4,1.2,2.8,1.1,4.3c-0.1,1.7-0.9,3.4-2.2,4.6c-2.7,2.7-8.1,4.8-10,0.2
		C43.8,52.6,46.9,47.1,51.2,45.2 M86.9,56.5c0.7-0.3,1.4-0.5,2.1-0.4c1.5,0.2,2.5,1.8,3.1,3.2c0.6,1.3,1,2.7,0.9,4.2
		c-0.1,1.7-1,3.2-2.2,4.3c-2.7,2.5-7.9,4.4-9.6-0.1C79.6,63.3,82.7,58.2,86.9,56.5"/>
	<path class="st1" d="M55.6,53c-2.8-2.6,1.3-6.9,4.1-4.3C62.4,51.4,58.3,55.7,55.6,53 M91.4,64.9c-2.3-2.2,1.1-5.7,3.4-3.5
		C97,63.5,93.7,67,91.4,64.9"/>
	<path d="M96.3,81.8c-2.2-1.9,0.7-5.4,3-3.5C101.5,80.2,98.6,83.7,96.3,81.8 M35.2,61.1c-2.2-1.9,0.7-5.4,3-3.5
		C40.4,59.6,37.4,63,35.2,61.1"/>
</g>
</svg>
