<?xml version="1.0" encoding="utf-8"?>
<!-- Generator: Adobe Illustrator 22.0.1, SVG Export Plug-In . SVG Version: 6.00 Build 0)  -->
<svg version="1.1" id="Layer_1" xmlns="http://www.w3.org/2000/svg" xmlns:xlink="http://www.w3.org/1999/xlink" x="0px" y="0px"
	 viewBox="0 0 172 167" style="enable-background:new 0 0 172 167;" xml:space="preserve">
<style type="text/css">
	.st0{filter:url(#Adobe_OpacityMaskFilter);}
	.st1{fill:#FFFFFF;}
	.st2{mask:url(#c_1_);fill:url(#SVGID_1_);}
</style>
<g>
	<g transform="translate(0 .913)">
		<defs>
			<filter id="Adobe_OpacityMaskFilter" filterUnits="userSpaceOnUse" x="0" y="0.1" width="172" height="165.9">
				<feColorMatrix  type="matrix" values="1 0 0 0 0  0 1 0 0 0  0 0 1 0 0  0 0 0 1 0"/>
			</filter>
		</defs>
		<mask maskUnits="userSpaceOnUse" x="0" y="0.1" width="172" height="165.9" id="c_1_">
			<g class="st0">
				<path id="a_1_" class="st1" d="M172,166H0L0,0.1l172,0V166z"/>
			</g>
		</mask>
		
			<linearGradient id="SVGID_1_" gradientUnits="userSpaceOnUse" x1="-211.7827" y1="380.8064" x2="-210.7827" y2="381.8064" gradientTransform="matrix(-171.979 0 0 -165.9118 -36246.543 63342.7266)">
			<stop  offset="0" style="stop-color:#FF9600"/>
			<stop  offset="1" style="stop-color:#FDCC80"/>
		</linearGradient>
		<path class="st2" d="M15.8,84.4C3.6,94.3-2,113.8,0.6,129.6c0.2,1,0.4,1.9,0.6,2.9c3.9,16.1,22,26.2,36.7,30.1
			c30.8,8.1,65,1.7,90.6-17c25.6-18.7,41.9-49.2,43.3-80.8c0.6-13.1-1.7-27-8.2-38.2c0-0.2,0-0.3,0-0.6c-1.5-7.5,2.5-17.9-1-20.7
			c-3.4-2.7-11.8,2-14.7,5.4c-2.7-1.5-5.7-2.7-8.7-3.6c-6.6-1.8-13.5-1.9-19.7,0c-2.9-3.7-10-8.7-13.5-6.5
			c-3.8,2.3-3.4,15.3-4.7,21.3c-0.1,0.6,0,1,0.3,1.2c-4.8,9.2-7.4,20-13.9,28.2C71,72.2,36.5,67.5,15.8,84.4"/>
	</g>
	<path class="st1" d="M142.3,49.2c7.1,7.9,19.4-3.1,12.3-11C147.5,30.2,135.1,41.2,142.3,49.2"/>
	<path d="M132.2,56.4c0.9,0.1,2-0.1,3.1-1c0.2-0.2,0.3-0.5,0.2-0.8c0,0,0,0,0,0c-0.2-0.2-0.5-0.3-0.8-0.1c-1.9,1.5-3.5,0.5-3.9-0.1
		c-0.4-0.5-0.6-1.1-0.6-1.7c0-0.1,0-0.2-0.1-0.3c0-0.1-0.1-0.2-0.2-0.3c-0.2-0.1-0.6-0.1-0.7,0.2c-0.1,0.1-0.1,0.2-0.1,0.3
		c-0.2,0.9-0.9,1.6-1.8,1.9c-1.1,0.3-2.3-0.2-2.9-1.1c0,0,0,0,0,0c-0.2-0.2-0.5-0.3-0.8-0.1c-0.2,0.2-0.3,0.5-0.1,0.8
		c0.8,1.3,2.6,2,4.1,1.6c0.5-0.1,1-0.4,1.4-0.8c0,0,0,0,0.1,0c0.2-0.2,0.5-0.1,0.7,0.1c0.1,0.1,0.1,0.2,0.2,0.3
		C130.3,55.7,131.2,56.2,132.2,56.4 M130.6,49.1c1.6,0.2,2.3,0.6,2.3,1.1c0,0.4-1.6,1.1-3,0.9c-1.4-0.2-2.3-1.3-2.2-1.7
		C127.7,48.9,129.1,48.9,130.6,49.1 M156.2,55.1c2,0.3,2.4-2.8,0.4-3.1C154.6,51.8,154.2,54.9,156.2,55.1 M101.3,47.5
		c2.2,0.3,2.6-3.1,0.4-3.4C99.6,43.9,99.1,47.2,101.3,47.5 M152.2,48.2c-0.5,1.3-3.3,2.5-6.1,1.8c-3-0.7-3.8-3.2-3.6-3.6
		c0.1-0.2,1.7,1.8,4.1,2.2c2,0.3,4.5-0.5,5.3-0.6c0,0,0.1,0,0.1,0C152.2,48,152.2,48.1,152.2,48.2 M119.7,43.5
		c-0.6,1.2-3.3,2.3-6,1.7c-3-0.7-3.8-3.2-3.6-3.6c0.1-0.2,1.7,1.8,4.1,2.2c1.9,0.3,4.3-0.4,5.2-0.6
		C119.6,43.1,119.8,43.3,119.7,43.5"/>
</g>
</svg>
