<?xml version="1.0" encoding="utf-8"?>
<!-- Generator: Adobe Illustrator 22.0.1, SVG Export Plug-In . SVG Version: 6.00 Build 0)  -->
<svg version="1.1" id="Layer_1" xmlns="http://www.w3.org/2000/svg" xmlns:xlink="http://www.w3.org/1999/xlink" x="0px" y="0px"
	 viewBox="0 0 170.5 182.9" style="enable-background:new 0 0 170.5 182.9;" xml:space="preserve">
<style type="text/css">
	.st0{fill:url(#SVGID_1_);}
	.st1{fill:#EB1751;}
	.st2{fill:#FFFFFF;}
</style>
<g>
	
		<linearGradient id="SVGID_1_" gradientUnits="userSpaceOnUse" x1="-217.6892" y1="402.0076" x2="-217.6892" y2="401.0076" gradientTransform="matrix(-87.6538 -104.4617 156.6627 -131.4557 -81893.0078 30142.5801)">
		<stop  offset="0" style="stop-color:#70058A"/>
		<stop  offset="1" style="stop-color:#460575"/>
	</linearGradient>
	<path class="st0" d="M137.6,150.5c23.6-23.3,35.8-57.6,32.2-90.5c-1.9-18-9.1-36.5-23.8-47.2c-2.3-1.6-4.7-3-7.3-4.2
		c0-0.2-0.1-0.4-0.3-0.5c-2.8-2.3-7.4-8.4-10-8c-1.7,0.2-2.9,2.8-3.5,5.2c-10.1-0.7-20.3,2.3-27,9.6c-2.2-1.5-7.7-2.8-9.2-0.7
		c-1.5,2.1,1.5,8.8,2.3,12.4c-3.9,10.6-4.7,22.8-10.5,32.7C66.5,83.4,30,84,11.1,104.7c-11,12.2-13.8,33.3-8.6,49.2
		c0.3,1,0.7,1.9,1.1,2.9c6.5,16,26.9,23.7,42.8,25.4C79.6,185.9,114.1,173.9,137.6,150.5"/>
	<path class="st1" d="M127.5,50c0.1-1-0.2-2.3-0.9-3c-0.3-0.3-0.7-0.3-1.1-0.3c-0.1,0-1.5,0-1.4-0.2c-0.3,0.6-0.7,1.2-1.1,1.7
		c0,0.1-0.1,0.1-0.1,0.2c0,0.1,0,0.1,0,0.2c0.1,0.4,0.3,0.9,0.4,1.3c0.2,0.5,0.3,1.1,0.7,1.5c0.3,0.5,0.8,0.8,1.4,0.9
		c0.6,0,1.1-0.3,1.5-0.7C127.3,51.1,127.4,50.5,127.5,50"/>
	<path d="M126.9,49.9c0.1-0.9-0.2-2-0.7-2.6c-0.1-0.1-0.3-0.1-0.6-0.1c-0.4,0-0.7,0-1.1,0c-0.2,0.4-0.5,0.8-0.8,1.2l0.4,1.2
		c0.2,0.5,0.3,1,0.6,1.4c0.2,0.4,0.6,0.6,0.9,0.6c0.3,0,0.7-0.2,0.9-0.5C126.7,50.9,126.8,50.4,126.9,49.9 M127.1,52.3
		c-0.5,0.4-1.1,0.6-1.7,0.6c-0.7-0.1-1.4-0.5-1.8-1.1c-0.4-0.5-0.6-1.2-0.8-1.7l-0.4-1.3c0-0.1,0.1-0.1,0.1-0.3c0-0.3,0.9-0.6,1-0.7
		c0.4-0.5,0.7-1.4,0.7-1.4l0.5-0.2c-0.1-0.2,0.7,0.3,1.1,0.3c0.4,0,0.7-0.6,1.2-0.1c0.9,0.8,1.2,2.4,1.1,3.5
		c-0.1,0.8-0.3,1.4-0.7,1.9C127.3,52.1,127.2,52.2,127.1,52.3 M102,41.4c-0.4-2.3-0.8-6.5,2.2-7.2c1.2-0.3,2.5,0.4,3.2,1.4
		c0.8,1,1.1,2.2,1.5,3.4l0.6,1.9c0.2,0.6,0.4,1.3,0.3,2c-0.1,0.5-0.3,1-0.5,1.4c-0.4,0.8-0.9,1.6-1.6,2c-1.3,0.7-2.9,0.2-3.9-0.9
		C102.7,44.3,102.3,42.9,102,41.4"/>
	<path d="M128,47.1c0.9-0.3,1.8-1,2.4-2.3c0.1-0.3,0.1-0.6-0.2-0.8c0,0,0,0,0,0c-0.3-0.1-0.6,0-0.8,0.3c-1.1,2.3-3,2-3.6,1.7
		c-0.6-0.3-1-0.7-1.3-1.3c0-0.1-0.1-0.1-0.2-0.3c-0.1-0.1-0.2-0.2-0.3-0.2c-0.3,0-0.5,0.2-0.5,0.5c0,0.1,0,0.3,0,0.3
		c0.2,0.9-0.1,1.9-0.8,2.5c-0.8,0.7-2.2,0.9-3.1,0.3c0,0,0,0,0,0c-0.3-0.1-0.6,0-0.8,0.2c-0.1,0.3,0,0.6,0.2,0.8
		c1.3,0.8,3.2,0.6,4.4-0.4c0.4-0.4,0.7-0.8,0.9-1.3c0,0,0,0,0-0.1c0.1-0.2,0.4-0.3,0.7-0.2c0.1,0.1,0.2,0.1,0.3,0.1
		C126,47.4,127,47.5,128,47.1 M122.9,40.9c1.5-0.5,2.3-0.6,2.6-0.2c0.2,0.4-0.9,1.8-2.2,2.2c-1.3,0.5-2.6,0-2.8-0.5
		C120.3,42.1,121.5,41.4,122.9,40.9 M148.9,39.5c2.2-0.7,1.1-4.1-1.1-3.4C145.6,36.8,146.7,40.2,148.9,39.5 M102.6,55.8
		c1.9-0.6,1-3.6-0.9-3C99.7,53.4,100.7,56.4,102.6,55.8 M131,26.8c0.5-2.3,2.4-5.1,4.9-3.3c0.8,0.6,1.3,1.4,1.8,2.3
		c1,1.8,1.8,3.7,1.8,5.7c0,2-1,4.2-2.8,5c-0.4,0.2-0.9,0.3-1.3,0.3c-0.4-0.1-0.9-0.3-1.2-0.6c-1.7-1.3-2.7-3.4-3.1-5.4
		C130.9,29.4,130.8,28.1,131,26.8"/>
	<path class="st2" d="M102.7,41.2c2.3-0.6,1.4-4.1-0.9-3.5C99.5,38.2,100.4,41.7,102.7,41.2 M131.8,30c2.3-0.6,1.4-4.1-0.9-3.5
		C128.6,27.1,129.5,30.6,131.8,30"/>
</g>
</svg>
