<?xml version="1.0" encoding="utf-8"?>
<!-- Generator: Adobe Illustrator 22.0.1, SVG Export Plug-In . SVG Version: 6.00 Build 0)  -->
<svg version="1.1" id="Capa_1" xmlns="http://www.w3.org/2000/svg" xmlns:xlink="http://www.w3.org/1999/xlink" x="0px" y="0px"
	 viewBox="0 0 131.6 290" style="enable-background:new 0 0 131.6 290;" xml:space="preserve">
<style type="text/css">
	.st0{fill:#FF9600;}
</style>
<path class="st0" d="M126.6,0h-15.7C67.3,0,31.8,35.5,31.8,79.1v33.4H5c-2.8,0-5,2.2-5,5v40c0,2.8,2.2,5,5,5h26.8V285
	c0,2.8,2.2,5,5,5h40c2.8,0,5-2.2,5-5V162.5h39.8c2.8,0,5-2.2,5-5v-40c0-2.8-2.2-5-5-5H81.8V79.1c0-16,13.1-29.1,29.1-29.1h15.7
	c2.8,0,5-2.2,5-5V5C131.6,2.2,129.4,0,126.6,0z"/>
</svg>
