<svg xmlns="http://www.w3.org/2000/svg" xmlns:xlink="http://www.w3.org/1999/xlink" width="45" height="72" viewBox="0 0 45 72">
    <defs>
        <path id="a" d="M0 .45h44.483V36H0z"/>
        <path id="c" d="M.403.39h37.431v36.494H.403z"/>
    </defs>
    <g fill="none" fill-rule="evenodd">
        <g transform="translate(0 36)">
            <mask id="b" fill="#fff">
                <use xlink:href="#a"/>
            </mask>
            <path fill="#460575" d="M18.595 14.828C12.852 14.25 7.674 12.883 3.24 9.53c-.55-.416-1.118-.819-1.62-1.284-1.94-1.801-2.136-3.865-.6-5.992C2.333.435 4.538-.052 6.83.993c.443.203.866.455 1.271.726 8.262 5.49 19.612 5.64 27.905.248.822-.61 1.7-1.106 2.718-1.36 1.98-.49 3.825.213 4.888 1.886 1.213 1.912 1.198 3.778-.298 5.261-2.294 2.277-5.051 3.924-8.117 5.072-2.897 1.085-6.07 1.633-9.213 1.996.475.498.698.743.995 1.032 4.265 4.143 8.55 8.269 12.801 12.425 1.449 1.416 1.75 3.17.954 4.817-.872 1.8-2.824 2.986-4.738 2.858-1.213-.08-2.16-.663-3-1.483-3.218-3.13-6.498-6.204-9.651-9.395-.92-.927-1.36-.751-2.17.053a631.853 631.853 0 0 1-9.84 9.552c-1.487 1.416-3.256 1.672-4.98.863-1.833-.86-2.999-2.668-2.908-4.485.062-1.23.686-2.168 1.56-3.01 4.221-4.076 8.43-8.16 12.643-12.242.278-.271.538-.56.944-.979" mask="url(#b)"/>
        </g>
        <g transform="translate(3)">
            <mask id="d" fill="#fff">
                <use xlink:href="#c"/>
            </mask>
            <path fill="#460575" d="M28.288 18.62c-.018-4.957-4.074-8.906-9.156-8.91-5.126-.005-9.218 4.015-9.179 9.019.038 4.94 4.13 8.858 9.226 8.841 5.081-.018 9.126-3.991 9.109-8.95m-9.307 18.264C8.741 36.851.343 28.584.403 18.597.462 8.5 8.865.362 19.206.39c10.362.029 18.68 8.281 18.628 18.484-.053 9.967-8.508 18.044-18.853 18.01" mask="url(#d)"/>
        </g>
    </g>
</svg>
