<svg xmlns="http://www.w3.org/2000/svg" xmlns:xlink="http://www.w3.org/1999/xlink" width="93" height="53" viewBox="0 0 93 53">
    <defs>
        <path id="a" d="M0 0h93v53H0z"/>
    </defs>
    <g fill="none" fill-rule="evenodd">
        <mask id="b" fill="#fff">
            <use xlink:href="#a"/>
        </mask>
        <path fill="#70058A" d="M92.506 47.865a6.385 6.385 0 0 0-.315-.604c-1.613-2.904-4.697-6.467-9.248-10.69l-.097-.097-.047-.047-.049-.049h-.05c-2.065-1.967-3.372-3.29-3.92-3.967-1.002-1.29-1.228-2.595-.68-3.918.388-.999 1.842-3.11 4.357-6.335a333.313 333.313 0 0 0 3.15-4.112C91.19 10.63 93.611 5.89 92.868 3.827l-.288-.482c-.195-.29-.696-.555-1.5-.798-.81-.241-1.842-.282-3.1-.121l-13.946.096c-.224-.08-.549-.072-.968.025l-.63.146-.242.12-.194.147c-.16.095-.339.265-.532.507-.194.24-.355.524-.483.846-1.519 3.901-3.244 7.528-5.182 10.881-1.195 2-2.291 3.732-3.294 5.2-1 1.468-1.839 2.548-2.516 3.241-.68.693-1.29 1.248-1.84 1.668-.55.42-.969.597-1.259.532-.29-.065-.565-.13-.824-.194a3.203 3.203 0 0 1-1.089-1.184c-.275-.5-.46-1.13-.557-1.887a21.148 21.148 0 0 1-.17-1.959 40.234 40.234 0 0 1 .025-2.322c.033-1 .048-1.676.048-2.031 0-1.225.025-2.556.073-3.99.048-1.435.088-2.572.121-3.41.032-.837.048-1.724.048-2.66 0-.935-.056-1.668-.17-2.201a7.601 7.601 0 0 0-.506-1.548 2.615 2.615 0 0 0-.993-1.16c-.436-.274-.978-.492-1.623-.653-1.71-.387-3.89-.596-6.536-.63-6.004-.063-9.862.325-11.574 1.162a6.564 6.564 0 0 0-1.84 1.45c-.58.71-.661 1.098-.242 1.16 1.938.29 3.31.984 4.116 2.081l.29.58c.228.42.453 1.161.68 2.226a22.28 22.28 0 0 1 .434 3.53c.16 2.354.16 4.37 0 6.045-.16 1.677-.314 2.983-.46 3.918-.145.936-.362 1.692-.653 2.274-.29.58-.484.933-.582 1.063-.096.13-.177.21-.241.242a3.62 3.62 0 0 1-1.308.242c-.452 0-1-.226-1.646-.678-.645-.45-1.315-1.072-2.01-1.862-.693-.79-1.477-1.893-2.349-3.312-.87-1.42-1.775-3.095-2.71-5.03l-.776-1.403a122.834 122.834 0 0 1-1.984-3.943 76.641 76.641 0 0 1-2.228-5.005c-.257-.678-.645-1.194-1.162-1.548l-.242-.145c-.161-.129-.42-.266-.774-.411a5.068 5.068 0 0 0-1.114-.314L3.1 2.423c-1.356 0-2.277.307-2.76.92l-.194.29c-.097.161-.146.42-.146.774 0 .355.097.79.291 1.305a159.78 159.78 0 0 0 6.317 13.156c2.277 4.225 4.255 7.626 5.932 10.204 1.679 2.581 3.39 5.015 5.133 7.305 1.744 2.289 2.898 3.755 3.462 4.4.566.646 1.01 1.13 1.332 1.451l1.211 1.16c.775.775 1.912 1.702 3.415 2.782a57.703 57.703 0 0 0 4.986 3.192c1.824 1.048 3.947 1.902 6.367 2.563 2.421.662 4.778.927 7.07.799h5.569c1.128-.097 1.985-.452 2.566-1.065l.193-.242c.129-.192.25-.49.362-.894.113-.402.17-.847.17-1.33-.033-1.385.072-2.636.314-3.747.241-1.112.517-1.95.824-2.515a6.21 6.21 0 0 1 1.04-1.426c.388-.387.663-.621.826-.702.16-.08.288-.137.385-.17.775-.257 1.686-.009 2.737.751 1.05.758 2.033 1.694 2.954 2.805a85.667 85.667 0 0 0 3.317 3.748c1.29 1.387 2.42 2.418 3.389 3.096l.969.58c.646.388 1.484.742 2.518 1.065 1.031.322 1.934.403 2.71.241l12.396-.193c1.227 0 2.18-.203 2.857-.605.677-.403 1.081-.848 1.211-1.33.13-.483.136-1.031.024-1.645-.115-.612-.228-1.04-.34-1.28" mask="url(#b)"/>
    </g>
</svg>
