<svg version="1" xmlns="http://www.w3.org/2000/svg" width="706.667" height="706.667" viewBox="0 0 530.000000 530.000000"><path d="M235.7 5.6c-.2.2-3 .6-6.2 1-3.3.3-6.2.9-6.5 1.2-.3.4-2.7.8-5.4 1-2.7.1-5.5.7-6.3 1.3-.7.6-1.3.8-1.3.4s-.6-.2-1.3.4c-.8.6-1.6.8-1.9.6-.5-.5-7 1.3-11.8 3.2-.8.3-2.1.7-2.9.9-7.1 1.4-34 14.9-46.6 23.2-5.5 3.7-10.4 6.9-11 7.1-.5.2-1.4.8-2 1.3-.5.4-2 1.6-3.1 2.6-13.6 11.1-18.9 15.7-26.9 23.8C92.9 83.4 87 90 87 91c0 .6-.3 1-.7 1-.5 0-1.9 1.6-3.2 3.5-1.3 1.9-3.2 4.5-4.2 5.7-3 3.7-3.3 4.1-7.2 10-2 3.1-3.7 6.1-3.7 6.6 0 .6-.4 1.2-.8 1.4-1.4.5-14.9 27.3-15.7 31.3-.2.5-1 3.2-2 6-.9 2.7-1.9 6.1-2.2 7.5-.2 1.4-.9 4.3-1.4 6.5-.5 2.2-1.1 5.1-1.4 6.5-.2 1.4-.6 3.8-.9 5.5-1.4 8.8-2 17.5-1.8 30.5.1 20.3.2 21.1.9 22.3.3.6.7 2.4.8 4.1.7 11 7.7 29.9 14.9 40.6 4.7 7 9 11.7 15.6 17 1.7 1.4 3.7 3.1 4.5 3.8.7.6 2.1 1.2 2.9 1.2.9 0 1.6.4 1.6.8 0 1 6.5 4.2 8.5 4.2.8 0 1.5.4 1.5.8 0 .5.6.9 1.3 1 3.8.5 5.4.9 6.4 1.5.6.4 2.3.8 3.7.9 1.4.1 2.6.6 2.6 1.1 0 .5.9.5 2 .2s2-.3 2 .2c0 .4 2.1.9 4.8 1 2.6.1 8.8.3 13.9.5 5 .2 9 .1 8.7-.3-.5-.9 1.7-.6 3.3.4.6.4 1.4.3 1.7-.2.3-.4 2.3-1.1 4.5-1.5 2.2-.3 4.7-.9 5.7-1.3 1.3-.5 1.5-.3.9.7-.5.9-.4 1.1.4.6.6-.4.9-1.2.6-1.7-.4-.5.7-1.2 2.4-1.5 1.7-.4 3.1-1.1 3.1-1.7 0-.6.3-.8.6-.4.3.3 2.3-.5 4.4-1.8 2.1-1.3 4.1-2.1 4.5-1.7.4.4.5.2.3-.3-.4-1.3 5.3-7.1 6.5-6.7.5.1.6-.2.2-.8-.3-.5-.1-1 .6-1s.9-.3.6-.6c-.4-.4.6-1.8 2.1-3.2 1.5-1.3 2.1-2.1 1.5-1.8-.9.5-1.1.2-.7-.9.5-1.3.9-1.3 2.2-.3 1.3 1.1 1.4 1 .4-.9-.8-1.4-.9-2.4-.2-2.8.5-.3 2.7-4.1 4.7-8.5 2.1-4.3 3.4-7.6 3-7.3-.5.3-.4-.3.2-1.3 1.5-2.7 3.5-7.8 3.3-8.7-.1-.4.3-.7.9-.7.5 0 .8-.4.5-.8-.3-.5.2-2.1.9-3.6.8-1.6 1.2-3.2.9-3.7-.3-.5 0-.9.5-.9.6 0 1-.6.9-1.3-.2-.6.2-1.1.7-1 .6.1 1.1-1 1-2.5 0-1.5 1.2-5.3 2.7-8.4 1.5-3.1 2.8-6.2 2.8-6.7 0-.6.5-1.1 1-1.1.6 0 1-.6 1-1.4 0-2.1 2.6-6.7 3.4-5.9.4.4.4 0 0-1-.3-1-.1-1.7.5-1.7s1.1-.6 1.1-1.4c0-.7.7-1.9 1.5-2.6.8-.7 1.5-2.1 1.5-3.1 0-2.1 1-2.4 2.8-.9.8.7.9.7.3-.1-1.1-1.4-.3-4.1 1-3.3.5.3.9.2.8-.3-.5-2.8.2-4.2 1.8-3.6.9.4 1.4.2 1-.3-.3-.6.5-2.2 1.9-3.7s2.2-2.7 1.8-2.7c-.4 0 1.1-1.4 3.4-3.2 2.3-1.8 4.2-3.6 4.2-4 0-.4.5-.8 1-.8.6 0 2-.9 3.2-2 1.2-1 2.4-1.7 2.8-1.5.5.3 1-.2 1.4-1 .3-.8 1.1-1.5 1.7-1.5.7 0 2.1-.8 3.2-1.8 1.5-1.2 1.8-1.3 1.2-.2-.7 1.2-.6 1.3.7.3.8-.7 1.9-.9 2.3-.5.5.4.5.2.2-.5-.4-.6.4-1.5 2.1-2.2 10-3.9 14-5.3 16.1-5.7 1.3-.3 3.8-1.1 5.5-1.8 1.7-.7 3.9-1.2 4.8-1 1 .1 2.1-.2 2.4-.8.3-.5 1.4-.2 2.6.9 1.1.9 1.9 1.3 1.8.8-.5-2.4.2-3.2 3.3-3.4 3.9-.3 8.2-.9 8.2-1.1 0-.2 1.1-.3 2.5-.4 1.4-.1 3.1-.5 3.9-1 .8-.5 1.6-.4 2.1.4.4.7.9.8 1.1.2.4-.9 9.7-2.2 19.5-2.7 2.8-.1 5.6-.5 6.2-.9.7-.4 1.2-.5 1.2-.2s1.1.1 2.5-.4c1.8-.7 2.5-.6 2.5.3.1.7.6.4 1.4-.6 1.1-1.4 1.5-1.5 1.9-.5.4 1 .6 1 .6 0 .1-.6.7-1.2 1.5-1.2 3.7 0 15.8-8.9 19.1-13.9 1.1-1.7 2.6-3.1 3.3-3.1.6 0 1.1-.3 1-.8-.2-.4 1.2-3.8 3-7.5 1.8-3.8 3.4-7.7 3.5-8.8.1-1 .4-1.9.7-1.9.4 0 .7-.6.8-1.3 0-.6.4-3 .8-5.2 1.3-6.9.8-20.7-.9-27.3-5.1-19.1-22.8-41.5-43.7-55.2-1.2-.8-2.9-2.1-3.6-2.8-.8-.7-1.4-1.1-1.4-.7 0 .3-.6.1-1.2-.5-6-5-19.4-11.8-31.5-15.8-10.2-3.5-14-4.5-27.3-6.8-3-.5-33.8-1.2-34.3-.8zM382.9 169.7c-1.3 1.6-1.2 1.7.4.4 1.6-1.3 2.1-2.1 1.3-2.1-.2 0-1 .8-1.7 1.7z"/><path d="M299.5 178.9c-.3.5-.2 1.2.3 1.5.5.3.9-.1.9-.9 0-1.7-.3-1.9-1.2-.6zM259.5 182.9c-.3.5-.2 1.2.3 1.5.5.3.9-.1.9-.9 0-1.7-.3-1.9-1.2-.6zM283.3 188.5c0 .8.4 1.2.9.9.5-.3.6-1 .3-1.5-.9-1.3-1.2-1.1-1.2.6zM297.6 188.2c.3.5 1 .6 1.5.3 1.3-.9 1.1-1.2-.6-1.2-.8 0-1.2.4-.9.9zM251.3 191.5c0 .8.4 1.2.9.9.5-.3.6-1 .3-1.5-.9-1.3-1.2-1.1-1.2.6zM363.3 191.5c0 .8.4 1.2.9.9.5-.3.6-1 .3-1.5-.9-1.3-1.2-1.1-1.2.6zM303.6 194.7c-.6 1.4-.5 1.5.5.6.7-.7 1-1.5.7-1.8-.3-.3-.9.2-1.2 1.2zM311.3 194.5c0 .8.4 1.2.9.9.5-.3.6-1 .3-1.5-.9-1.3-1.2-1.1-1.2.6zM231.3 195.5c0 .8.4 1.2.9.9.5-.3.6-1 .3-1.5-.9-1.3-1.2-1.1-1.2.6zM242.6 195.8c-.3.5.1.9.9.9s1.2-.4.9-.9c-.3-.4-.7-.8-.9-.8-.2 0-.6.4-.9.8zM258 196c-.9.6-1 1-.3 1 .6 0 1.5-.5 1.8-1 .8-1.2.4-1.2-1.5 0zM350.7 196.1c.7.7 1.5 1 1.8.7.3-.3-.2-.9-1.2-1.2-1.4-.6-1.5-.5-.6.5zM323.3 197.5c0 .8.4 1.2.9.9.5-.3.6-1 .3-1.5-.9-1.3-1.2-1.1-1.2.6zM281 203.4c0 .2.7.7 1.6 1 .8.3 1.2.2.9-.4-.6-1-2.5-1.4-2.5-.6zM305.6 204.2c.3.5 1 .6 1.5.3 1.3-.9 1.1-1.2-.6-1.2-.8 0-1.2.4-.9.9zM332.5 204c-.3.6.1.7.9.4 1.8-.7 2.1-1.4.7-1.4-.6 0-1.3.4-1.6 1zM263.5 205.1c-.4.6-.5 1.2-.2 1.5.2.3.7-.2 1-1.1.7-1.7.1-2-.8-.4zM255.5 212c.3.5.8 1 1.1 1 .2 0 .4-.5.4-1 0-.6-.5-1-1.1-1-.5 0-.7.4-.4 1zM292.5 212c-.3.6.1.7.9.4 1.8-.7 2.1-1.4.7-1.4-.6 0-1.3.4-1.6 1zM315.6 213.3c.3 1 .9 1.5 1.2 1.2.3-.3 0-1.1-.7-1.8-1-.9-1.1-.8-.5.6zM275.5 214c.3.5.8 1 1.1 1 .2 0 .4-.5.4-1 0-.6-.5-1-1.1-1-.5 0-.7.4-.4 1zM347.3 215.5c0 .8.4 1.2.9.9.5-.3.6-1 .3-1.5-.9-1.3-1.2-1.1-1.2.6zM243.6 218.7c-.6 1.4-.5 1.5.5.6.7-.7 1-1.5.7-1.8-.3-.3-.9.2-1.2 1.2zM255.5 218c.3.5.8 1 1.1 1 .2 0 .4-.5.4-1 0-.6-.5-1-1.1-1-.5 0-.7.4-.4 1zM227.5 221.1c-.4.6-.5 1.2-.2 1.5.2.3.7-.2 1-1.1.7-1.7.1-2-.8-.4zM291.6 221.3c.3 1 .9 1.5 1.2 1.2.3-.3 0-1.1-.7-1.8-1-.9-1.1-.8-.5.6zM253 224.1c0 .5.5.7 1 .4.6-.3 1-.8 1-1.1 0-.2-.4-.4-1-.4-.5 0-1 .5-1 1.1zM270.6 224.2c.3.4.9.8 1.5.8.5 0 .9-.4.9-.8 0-.5-.7-.9-1.5-.9s-1.2.4-.9.9zM231.3 226.5c0 .8.4 1.2.9.9.5-.3.6-1 .3-1.5-.9-1.3-1.2-1.1-1.2.6zM303.9 225.2c-.5 1.8-.6 3.8-.1 3.4.7-.8 1.2-3.6.6-3.6-.2 0-.4.1-.5.2zM311 225.9c0 .6.4 1.3 1 1.6.6.3.7-.1.4-.9-.7-1.8-1.4-2.1-1.4-.7zM212 228.5c-.7.9-1.1 1.7-.9 2 .3.2 1-.5 1.7-1.5 1.4-2.4 1-2.6-.8-.5zM217.6 227.8c-.3.5.1.9.9.9s1.2-.4.9-.9c-.3-.4-.7-.8-.9-.8-.2 0-.6.4-.9.8zM281 227.4c0 .2.7.7 1.6 1 .8.3 1.2.2.9-.4-.6-1-2.5-1.4-2.5-.6zM338.6 228.2c.3.5 1 .6 1.5.3 1.3-.9 1.1-1.2-.6-1.2-.8 0-1.2.4-.9.9zM315.5 228.9c-.3.5-.2 1.2.3 1.5.5.3.9-.1.9-.9 0-1.7-.3-1.9-1.2-.6zM289 231.4c0 .2.7.7 1.6 1 .8.3 1.2.2.9-.4-.6-1-2.5-1.4-2.5-.6zM267 233.9c0 .6.4 1.3 1 1.6.6.3.7-.1.4-.9-.7-1.8-1.4-2.1-1.4-.7zM275.5 233.9c-.3.5-.2 1.2.3 1.5.5.3.9-.1.9-.9 0-1.7-.3-1.9-1.2-.6zM303 234c0 .5.5 1 1.1 1 .5 0 .7-.5.4-1-.3-.6-.8-1-1.1-1-.2 0-.4.4-.4 1zM225.6 236.2c.3.5 1 .6 1.5.3 1.3-.9 1.1-1.2-.6-1.2-.8 0-1.2.4-.9.9zM308.5 236c-.3.6.1.7.9.4 1.8-.7 2.1-1.4.7-1.4-.6 0-1.3.4-1.6 1zM252.2 239.6c1 1 2 1.6 2.2 1.3.3-.3-.5-1.1-1.7-1.8-2.1-1.3-2.1-1.2-.5.5zM225.6 239.8c-.3.5.1.9.9.9s1.2-.4.9-.9c-.3-.4-.7-.8-.9-.8-.2 0-.6.4-.9.8zM231 240c0 .5.5 1 1.1 1 .5 0 .7-.5.4-1-.3-.6-.8-1-1.1-1-.2 0-.4.4-.4 1zM257.5 240c.3.5.8 1 1.1 1 .2 0 .4-.5.4-1 0-.6-.5-1-1.1-1-.5 0-.7.4-.4 1zM263.6 240.2c.3.5 1 .6 1.5.3 1.3-.9 1.1-1.2-.6-1.2-.8 0-1.2.4-.9.9zM211.6 242.7c-.6 1.4-.5 1.5.5.6.7-.7 1-1.5.7-1.8-.3-.3-.9.2-1.2 1.2zM243.6 242.7c-.6 1.4-.5 1.5.5.6.7-.7 1-1.5.7-1.8-.3-.3-.9.2-1.2 1.2zM289.6 244.2c.3.5 1 .6 1.5.3 1.3-.9 1.1-1.2-.6-1.2-.8 0-1.2.4-.9.9zM251.5 245.1c-.4.6-.5 1.2-.2 1.5.2.3.7-.2 1-1.1.7-1.7.1-2-.8-.4zM275.5 245.1c-.4.6-.5 1.2-.2 1.5.2.3.7-.2 1-1.1.7-1.7.1-2-.8-.4zM228.6 245.8c-.3.5.1.9.9.9s1.2-.4.9-.9c-.3-.4-.7-.8-.9-.8-.2 0-.6.4-.9.8zM242 248c.8.5 2 1 2.5 1 .6 0 .3-.5-.5-1s-1.9-1-2.5-1c-.5 0-.3.5.5 1zM267.6 250.7c-.6 1.4-.5 1.5.5.6.7-.7 1-1.5.7-1.8-.3-.3-.9.2-1.2 1.2zM221 252c0 .5.5 1 1.1 1 .5 0 .7-.5.4-1-.3-.6-.8-1-1.1-1-.2 0-.4.4-.4 1zM290.6 251.8c-.3.5.1.9.9.9s1.2-.4.9-.9c-.3-.4-.7-.8-.9-.8-.2 0-.6.4-.9.8zM299.6 251.8c-.3.5.1.9.9.9s1.2-.4.9-.9c-.3-.4-.7-.8-.9-.8-.2 0-.6.4-.9.8zM288.6 255.8c-.3.5.1.9.9.9s1.2-.4.9-.9c-.3-.4-.7-.8-.9-.8-.2 0-.6.4-.9.8zM361.6 256.7c-.6 1.4-.5 1.5.5.6.7-.7 1-1.5.7-1.8-.3-.3-.9.2-1.2 1.2zM213.3 259.1c-.2 2.3.3 2.5 1 .4.4-.8.3-1.6-.1-1.9-.4-.3-.9.4-.9 1.5zM201 259.4c0 .2.7.7 1.6 1 .8.3 1.2.2.9-.4-.6-1-2.5-1.4-2.5-.6zM221 260.1c0 .5.5.7 1 .4.6-.3 1-.8 1-1.1 0-.2-.4-.4-1-.4-.5 0-1 .5-1 1.1zM221 264c0 .5.5 1 1.1 1 .5 0 .7-.5.4-1-.3-.6-.8-1-1.1-1-.2 0-.4.4-.4 1zM243.6 266.7c-.6 1.4-.5 1.5.5.6.7-.7 1-1.5.7-1.8-.3-.3-.9.2-1.2 1.2zM206.6 267.8c-.2.4.4.8 1.4.8 1 0 1.6-.4 1.4-.8-.3-.4-.9-.8-1.4-.8-.5 0-1.1.4-1.4.8zM258.6 267.8c-.3.5.1.9.9.9s1.2-.4.9-.9c-.3-.4-.7-.8-.9-.8-.2 0-.6.4-.9.8zM219.5 269.1c-.4.6-.5 1.2-.2 1.5.2.3.7-.2 1-1.1.7-1.7.1-2-.8-.4zM227.6 269.3c.3 1 .9 1.5 1.2 1.2.3-.3 0-1.1-.7-1.8-1-.9-1.1-.8-.5.6zM195.9 272.7c-1.3 1.6-1.2 1.7.4.4.9-.7 1.7-1.5 1.7-1.7 0-.8-.8-.3-2.1 1.3zM245 272c0 .5.5 1 1.1 1 .5 0 .7-.5.4-1-.3-.6-.8-1-1.1-1-.2 0-.4.4-.4 1zM211 274c0 .5.5 1 1.1 1 .5 0 .7-.5.4-1-.3-.6-.8-1-1.1-1-.2 0-.4.4-.4 1zM215.5 274c-.3.5-.1 1 .4 1 .6 0 1.1-.5 1.1-1 0-.6-.2-1-.4-1-.3 0-.8.4-1.1 1zM231 273.9c0 .6.4 1.3 1 1.6.6.3.7-.1.4-.9-.7-1.8-1.4-2.1-1.4-.7zM319.5 275.1c-.4.6-.5 1.2-.2 1.5.2.3.7-.2 1-1.1.7-1.7.1-2-.8-.4zM235.5 276.9c-.3.5-.2 1.2.3 1.5.5.3.9-.1.9-.9 0-1.7-.3-1.9-1.2-.6zM203.5 278c.3.5.8 1 1.1 1 .2 0 .4-.5.4-1 0-.6-.5-1-1.1-1-.5 0-.7.4-.4 1zM215 283.9c0 .6.4 1.3 1 1.6.6.3.7-.1.4-.9-.7-1.8-1.4-2.1-1.4-.7zM225 283.4c0 .2.7.7 1.6 1 .8.3 1.2.2.9-.4-.6-1-2.5-1.4-2.5-.6zM189 288c0 .5.5 1 1.1 1 .5 0 .7-.5.4-1-.3-.6-.8-1-1.1-1-.2 0-.4.4-.4 1zM203 290c0 .5.5 1 1.1 1 .5 0 .7-.5.4-1-.3-.6-.8-1-1.1-1-.2 0-.4.4-.4 1zM207.5 289.9c-.3.5-.2 1.2.3 1.5.5.3.9-.1.9-.9 0-1.7-.3-1.9-1.2-.6zM219.5 289.9c-.3.5-.2 1.2.3 1.5.5.3.9-.1.9-.9 0-1.7-.3-1.9-1.2-.6zM215.5 290.9c-.3.5-.2 1.2.3 1.5.5.3.9-.1.9-.9 0-1.7-.3-1.9-1.2-.6zM313.5 296c.3.5.8 1 1.1 1 .2 0 .4-.5.4-1 0-.6-.5-1-1.1-1-.5 0-.7.4-.4 1zM178 300c-.9.6-1 1-.3 1 .6 0 1.5-.5 1.8-1 .8-1.2.4-1.2-1.5 0zM188.7 300.1c.7.7 1.5 1 1.8.7.3-.3-.2-.9-1.2-1.2-1.4-.6-1.5-.5-.6.5zM201.6 299.8c-.3.5.1.9.9.9s1.2-.4.9-.9c-.3-.4-.7-.8-.9-.8-.2 0-.6.4-.9.8zM255.5 300c.3.5.8 1 1.1 1 .2 0 .4-.5.4-1 0-.6-.5-1-1.1-1-.5 0-.7.4-.4 1zM227.6 308.2c.3.5 1 .6 1.5.3 1.3-.9 1.1-1.2-.6-1.2-.8 0-1.2.4-.9.9zM178 312c-.8.5-1 1-.5 1 .6 0 1.7-.5 2.5-1s1.1-1 .5-1c-.5 0-1.7.5-2.5 1zM203.4 311.8c.4.3 1.4.7 2.2.8.9.1 1.3 0 1-.4-.4-.3-1.4-.7-2.2-.8-.9-.1-1.3 0-1 .4zM187 313.9c0 .6.4 1.3 1 1.6.6.3.7-.1.4-.9-.7-1.8-1.4-2.1-1.4-.7zM195.6 314.7c-.6 1.4-.5 1.5.5.6.7-.7 1-1.5.7-1.8-.3-.3-.9.2-1.2 1.2zM151.6 316.2c.3.5 1 .6 1.5.3 1.3-.9 1.1-1.2-.6-1.2-.8 0-1.2.4-.9.9zM172.6 316.2c.3.5 1 .6 1.5.3 1.3-.9 1.1-1.2-.6-1.2-.8 0-1.2.4-.9.9zM218.6 315.8c-.3.5.1.9.9.9s1.2-.4.9-.9c-.3-.4-.7-.8-.9-.8-.2 0-.6.4-.9.8zM95.6 320.2c.3.5 1 .6 1.5.3 1.3-.9 1.1-1.2-.6-1.2-.8 0-1.2.4-.9.9zM165 320.1c0 .5.5.7 1 .4.6-.3 1-.8 1-1.1 0-.2-.4-.4-1-.4-.5 0-1 .5-1 1.1zM171.6 320.2c.3.5 1 .6 1.5.3 1.3-.9 1.1-1.2-.6-1.2-.8 0-1.2.4-.9.9zM178.6 319.8c-.3.5.1.9.9.9s1.2-.4.9-.9c-.3-.4-.7-.8-.9-.8-.2 0-.6.4-.9.8zM185.5 320c-.3.5-.1 1 .4 1 .6 0 1.1-.5 1.1-1 0-.6-.2-1-.4-1-.3 0-.8.4-1.1 1zM204.5 320c-.3.6.1.7.9.4 1.8-.7 2.1-1.4.7-1.4-.6 0-1.3.4-1.6 1zM155.5 322.9c-.3.5-.2 1.2.3 1.5.5.3.9-.1.9-.9 0-1.7-.3-1.9-1.2-.6zM177.6 323.8c-.3.5.1.9.9.9s1.2-.4.9-.9c-.3-.4-.7-.8-.9-.8-.2 0-.6.4-.9.8zM143 328.1c0 .5.5.7 1 .4.6-.3 1-.8 1-1.1 0-.2-.4-.4-1-.4-.5 0-1 .5-1 1.1zM250.7 328.1c.7.7 1.5 1 1.8.7.3-.3-.2-.9-1.2-1.2-1.4-.6-1.5-.5-.6.5zM124 332c-.9.6-1 1-.3 1 .6 0 1.5-.5 1.8-1 .8-1.2.4-1.2-1.5 0zM199.3 332.5c0 .8.4 1.2.9.9.5-.3.6-1 .3-1.5-.9-1.3-1.2-1.1-1.2.6zM183.5 333.1c-.4.6-.5 1.2-.2 1.5.2.3.7-.2 1-1.1.7-1.7.1-2-.8-.4zM155.3 335.5c0 .8.4 1.2.9.9.5-.3.6-1 .3-1.5-.9-1.3-1.2-1.1-1.2.6zM239.6 339.3c.3 1 .9 1.5 1.2 1.2.3-.3 0-1.1-.7-1.8-1-.9-1.1-.8-.5.6zM180.6 339.8c-.3.5.1.9.9.9s1.2-.4.9-.9c-.3-.4-.7-.8-.9-.8-.2 0-.6.4-.9.8zM206.7 344.1c.7.7 1.5 1 1.8.7.3-.3-.2-.9-1.2-1.2-1.4-.6-1.5-.5-.6.5zM126.6 345.8c-.3.5.1.9.9.9s1.2-.4.9-.9c-.3-.4-.7-.8-.9-.8-.2 0-.6.4-.9.8zM255 345.9c0 .6.4 1.3 1 1.6.6.3.7-.1.4-.9-.7-1.8-1.4-2.1-1.4-.7zM195.6 347.8c-.3.5.1.9.9.9s1.2-.4.9-.9c-.3-.4-.7-.8-.9-.8-.2 0-.6.4-.9.8zM203.5 351.1c-.4.6-.5 1.2-.2 1.5.2.3.7-.2 1-1.1.7-1.7.1-2-.8-.4zM186.6 356.2c.3.5 1 .6 1.5.3 1.3-.9 1.1-1.2-.6-1.2-.8 0-1.2.4-.9.9zM151 366.4c0 .2.8 1 1.8 1.7 1.5 1.3 1.6 1.2.3-.4s-2.1-2.1-2.1-1.3zM219 366.4c0 .2.8 1 1.8 1.7 1.5 1.3 1.6 1.2.3-.4s-2.1-2.1-2.1-1.3zM170.9 375.7c-1.3 1.6-1.2 1.7.4.4.9-.7 1.7-1.5 1.7-1.7 0-.8-.8-.3-2.1 1.3z"/></svg>