<?xml version="1.0" encoding="utf-8"?>
<!-- Generator: Adobe Illustrator 22.0.1, SVG Export Plug-In . SVG Version: 6.00 Build 0)  -->
<svg version="1.1" id="Layer_1" xmlns="http://www.w3.org/2000/svg" xmlns:xlink="http://www.w3.org/1999/xlink" x="0px" y="0px"
	 viewBox="0 0 105 72" style="enable-background:new 0 0 105 72;" xml:space="preserve">
<style type="text/css">
	.st0{fill:#FFFFFF;}
	.st1{filter:url(#Adobe_OpacityMaskFilter);}
	.st2{mask:url(#b_1_);fill:#FFFFFF;}
</style>
<g transform="translate(80 72)">
	<path class="st0" d="M25-38.9c-0.3-1-1.6-1.5-3-1.1c-1.4,0.3-1.7,1.3-1.4,2.3c0.3,1,1,1.6,2.3,1.2C24.3-36.9,25.2-37.9,25-38.9
		 M21.9-33.5c-0.7,0-0.9,0.4-1,1c0,0.6,0.2,1.1,0.8,1.1c0.7,0,1.6-0.4,1.6-0.9C23.4-33,22.6-33.5,21.9-33.5 M-34.7-46.9
		c0-0.6-0.3-1.1-0.8-1.4c-0.5-0.3-1.2-0.4-2.1-0.3c-0.9,0.1-1.7,0.6-2.6,1.5c-0.8,0.9-1.2,1.7-1.2,2.5l5.1-0.8
		C-35.1-45.5-34.7-46-34.7-46.9 M-29.9-24.5c-1.3,0.1-2.4,0.6-3.2,1.6c-0.8,1-1.2,2-1.3,3.1c0,1.1,0.4,2,1.2,2.8
		c0.8,0.8,1.9,1.2,3.1,1.1c1.2-0.1,2.2-0.6,3.1-1.5c0.8-0.9,1.2-1.9,1.3-3c0-1.1-0.4-2-1.1-2.9C-27.5-24.2-28.6-24.6-29.9-24.5"/>
	<defs>
		<filter id="Adobe_OpacityMaskFilter" filterUnits="userSpaceOnUse" x="-80" y="-72" width="100.9" height="72">
			<feColorMatrix  type="matrix" values="1 0 0 0 0  0 1 0 0 0  0 0 1 0 0  0 0 0 1 0"/>
		</filter>
	</defs>
	<mask maskUnits="userSpaceOnUse" x="-80" y="-72" width="100.9" height="72" id="b_1_">
		<g class="st1">
			<path id="a_1_" class="st0" d="M-80-72H20.9V0H-80V-72z"/>
		</g>
	</mask>
	<path class="st2" d="M17.9-54.7c0,0.4-0.2,0.8-0.4,1.2c-0.2,0.4-0.4,0.6-0.4,0.6l-3.7,6.5L5.3-32.1c-0.2,0.5-0.4,0.8-0.6,1
		c-0.2,0.2-0.4,0.5-0.7,0.7c-0.3,0.2-0.7,0.3-1.1,0.3c-0.4,0-1-0.2-1.8-0.6c-1.3-0.7-2-1.4-1.9-2.3c0.1-0.6,1.5-3.3,4.4-8.1
		l-4.9-10.3l-0.9-1.9c-0.4-0.8-0.6-1.4-0.5-1.8c0.1-0.8,0.8-1.5,2.2-2.2C0.4-57.8,1-58,1.5-58c0.5,0,0.8,0.1,1.1,0.3
		c0.3,0.2,0.4,0.4,0.6,0.6c0.1,0.2,0.6,1.3,1.6,3.4c0.9,1.9,1.8,3.8,2.7,5.7c0.1-0.1,0.2-0.4,0.5-0.9c0.4-0.7,1.1-1.9,2-3.5
		c0.8-1.4,1.6-2.7,2.3-4.1c0.1-0.2,0.3-0.4,0.5-0.6c0.4-0.4,0.8-0.6,1.4-0.6c0.6,0,1.2,0.2,1.9,0.6C17.4-56.4,18-55.6,17.9-54.7
		 M2.5-22.3c-0.3,1.8-0.9,2.9-1.7,3.3c-0.5,0.2-0.9,0.3-1.2,0.3c-0.3,0-0.8,0-1.5,0l-2.8-0.4l-0.5,2.9l-0.5,3.1
		c-0.1,0.8-0.1,1.4,0.1,1.7c0.2,0.4,0.6,0.6,1.3,0.6c0.7,0,1.2,0.1,1.5,0.2c0.4,0.1,0.7,0.2,1.1,0.5c0.6,0.4,0.8,1.4,0.5,3
		c-0.3,1.8-0.9,2.9-1.8,3.3c-0.5,0.2-0.9,0.3-1.2,0.3c-0.3,0-0.8,0-1.5,0c-3-0.2-5.2-1.1-6.5-2.6c-1.3-1.5-1.7-3.8-1.2-7.1l0.2-1.3
		l0.8-5.1c-0.6,0-2.8-0.1-3.4-0.2c-0.6,0-1.1-0.3-1.5-0.9c-0.3-0.5-0.4-1.4-0.2-2.6c0.2-1.2,0.1-2,0.4-2.5c0.2-0.5,0.5-0.9,0.8-1.1
		c0.5-0.3,1.1-0.5,1.8-0.4l3.3,0.4l0.7-4.5c0.1-0.7,0.2-1.2,0.3-1.5c0.1-0.3,0.3-0.7,0.6-1c0.5-0.7,1.7-1,3.5-0.8
		c2,0.1,3,0.8,3.2,1.9c0.1,0.5,0,1.2-0.1,2.2l-0.7,4.3c1.3,0,2.3,0,2.9,0c0.7,0,1.1,0.1,1.5,0.2c0.3,0.1,0.7,0.2,1.1,0.5
		C2.6-25.3,2.8-24.2,2.5-22.3 M-18.4-36.4c-0.7,0.1-1.5,0.1-2.4,0.1c-1.9,0-3.1-0.5-3.7-1.4c-0.7-1.1-1.1-2.9-1.2-5.4L-26-53.5
		l-0.2-6.6c0-0.5,0-1,0-1.2c0-0.3,0.1-0.6,0.3-1c0.3-0.7,1.2-1.1,2.8-1.3c1.5-0.2,2.4,0,2.8,0.6c0.2,0.3,0.3,0.6,0.4,0.9
		c0,0.3,0.1,0.7,0.1,1.2l0.2,7.4l0.3,9.2c0,0.9,0.1,1.4,0.3,1.6c0.2,0.2,0.5,0.3,1,0.2c0.5-0.1,0.8-0.1,1-0.1c0.2,0,0.4,0.1,0.6,0.2
		c0.5,0.3,0.8,1.1,0.8,2.4c0,1.5-0.2,2.4-0.6,2.8C-16.7-36.8-17.4-36.5-18.4-36.4 M-18.9-28l-0.2,13.8c0,0.2,0,0.3,0,0.5
		c0,0.3,0,0.6-0.1,0.9c0,0.3-0.2,0.7-0.4,1.1c-0.4,0.7-1.3,1.1-2.7,1.2c-1.4,0.1-2.4,0-2.9-0.3c-0.5-0.3-0.8-0.8-0.8-1.5
		c-1,1.5-2.6,2.3-4.9,2.4c-2.3,0.2-4.4-0.7-6.3-2.7c-0.1-0.1-0.1-0.1-0.2-0.2c-1.8-1.9-2.7-4.2-2.6-6.8c0-2.7,1.1-5.2,3.1-7.4
		c2-2.2,4.2-3.4,6.5-3.6c0.9-0.1,1.7,0,2.5,0.3c0.7,0.3,1.2,0.5,1.5,0.8c0.3,0.3,0.5,0.5,0.7,0.8c0.2-1.5,1.2-2.3,3.2-2.4
		c1-0.1,1.8-0.1,2.3,0.1c0.5,0.1,0.8,0.4,1,0.8c0.2,0.4,0.3,0.7,0.3,1C-18.9-29.1-18.9-28.6-18.9-28 M-39.6-9.5
		c-0.3,0.4-0.6,0.8-1,1.1c-0.4,0.3-0.8,0.7-1.1,1C-42.1-7.1-42.9-6.7-44-6c-1.2,0.6-2.3,1.1-3.4,1.3c-1.1,0.2-2.3,0.3-3.5,0.3
		c-1.2-0.1-2.4-0.3-3.8-0.7c-1.3-0.4-2.5-1-3.6-1.8c-1.1-0.8-2.1-1.9-2.9-3.3c-0.8-1.4-1.3-3-1.6-4.9c0-0.4-0.1-0.8-0.1-1.2
		c-0.1-1.4,0.1-2.7,0.4-4c0.4-1.6,1.1-3,1.9-4.2c0,0,0.2-4.3,1.2-5.3c0.8-0.9,2.5,0.7,3.1,1.3c1.8-1.2,3.6-2,5.5-2.4l0.1,0
		c0.1-0.5,0.7-3.5,2-3.5c1.5,0,2.3,2.3,2.6,3.5c0.6,0.1,1.1,0.2,1.5,0.4l0.9,0.3c0.5,0.2,0.8,0.3,1.1,0.4c0.7,0.4,1.1,0.9,1.1,1.5
		c0.1,0.6-0.1,1.3-0.5,2.1c-0.8,1.5-1.5,2.3-2.3,2.4c-0.4,0.1-3-0.4-4.9-0.2c-1.6,0.2-3.3,0.9-4.6,2.3c-1.3,1.5-1.7,3.2-1.5,4.4
		c0.1,1.2,0.5,2.2,1.1,3l0,0.1c0.6,0.8,1.3,1.4,2.1,1.8c1.6,0.7,3.2,0.9,4.7,0.6c0.7-0.1,1.4-0.4,2.1-0.7c0.3-0.2,0.6-0.3,0.8-0.5
		c0.2-0.1,0.4-0.2,0.5-0.4c0,0,0.6-0.5,1-0.6c0.7-0.1,1.5,0.3,2.4,1.2c0.1,0.1,0.2,0.2,0.2,0.2c0.6,0.7,1,1.3,1,1.8
		C-39.2-10.4-39.3-9.9-39.6-9.5 M-64.8-32.4c-1.4-0.4-2.4-0.8-2.9-1.3l-0.4-0.3c-1.1-0.8-1.7-1.6-1.8-2.3c-0.1-0.7,0.3-1.7,1.1-2.9
		c0.8-1.2,1.6-1.9,2.4-2.1c0.8-0.2,1.7,0.1,2.7,0.8c1,0.7,2.1,0.9,3.2,0.7c1.1-0.2,1.9-0.8,2.5-1.7c0.6-0.9,0.8-1.9,0.7-3.1
		l-0.6-4.1l-1.6-11.3c-0.2-1.6-0.1-2.8,0.4-3.4c0.6-0.7,1.4-1.1,2.5-1.4c1.1-0.2,1.9-0.3,2.5-0.3c0.5,0.1,1,0.3,1.2,0.6
		c0.4,0.6,0.7,1.4,0.8,2.5l1.5,11.2l0.7,4.8c0.4,2.9-0.3,5.7-2.1,8.3c-1.8,2.7-4.4,4.4-7.7,5.1C-61.6-31.8-63.3-31.9-64.8-32.4
		 M-45.2-50.2c0.6-0.7,1.2-1.2,1.9-1.7c1.5-1.1,3.2-1.7,5.2-2c2.3-0.3,4.1-0.1,5.6,0.8c2,1.1,3.3,3.2,3.4,5.5
		c0.1,1.5-0.2,2.6-0.9,3.4c-0.7,0.8-1.5,1.3-2.4,1.4l-8.5,1.3c0,0.7,0.3,1.2,0.8,1.9c2,2.7,5.8,0.4,5.8,0.4c0.4-0.2,1.5-0.8,1.9-0.9
		c0.8-0.1,1.5,0.2,2.2,1.2c0.4,0.6,0.5,1.1,0.6,1.6c0.1,2.1-1.1,3.8-6.2,4.5c-2.2,0.3-4.4,0-6.4-0.9c-4.5-2.1-5.4-6.3-5.5-8.7
		C-47.9-45.6-47.1-48.1-45.2-50.2 M-14.2-44.7l0.7-8.4l1-12.7c0-0.6,0.1-1,0.2-1.2c0.1-0.3,0.2-0.6,0.4-1c0.4-0.6,1.3-1,2.9-1
		c1.5,0,2.3,0.3,2.7,0.9c0.2,0.4,0.3,0.7,0.3,1c0,0.3,0,0.7,0,1.3l-1,13.4l-0.6,7.3c-0.1,0.9,0,1.4,0.1,1.6c0.1,0.2,0.4,0.3,0.9,0.3
		c0.5,0,0.8,0,1,0c0.2,0,0.4,0.1,0.6,0.3c0.5,0.3,0.6,1.2,0.5,2.5c-0.1,1.5-0.4,2.4-0.9,2.8c-0.4,0.3-1.1,0.4-2.1,0.4
		c-0.7,0-1.5,0-2.4-0.2c-1.8-0.2-3-0.8-3.4-1.8C-14.2-40.3-14.4-42.1-14.2-44.7 M19.9-57.9c-0.6-0.7-1.3-1.3-2.4-1.8l0,0l0,0
		c-1.1-0.5-2.1-0.8-3.1-0.8c-1.5,0-2.8,0.5-3.8,1.7c-0.4,0.4-0.6,0.7-0.9,1.1c-0.1,0.1-0.2,0.3-2,3.4l-0.3-0.7
		c-1.5-3.1-1.6-3.4-1.6-3.5l0,0l0,0c-0.3-0.6-0.7-1.1-1.3-1.5l0,0l0,0c-0.7-0.5-1.6-0.8-2.7-0.9c-1,0-2.1,0.3-3.5,1l0,0l0,0
		c-0.9,0.5-1.6,0.9-2.1,1.5l0.6-7.4c0.1-0.7,0.1-1.2,0.1-1.6c0-0.7-0.2-1.3-0.5-2l0,0l0,0c-0.3-0.7-1-1.6-2.4-2.1
		C-6.9-71.9-7.8-72-8.9-72c-1.1,0-2,0.1-2.9,0.4c-1.5,0.5-3.4,1.5-4.5,4.7c-0.7,2.3-0.9,3.8-0.9,3.8v0c-0.1-0.6-0.4-1.1-0.7-1.7l0,0
		l0,0c-0.4-0.6-1.2-1.4-2.6-1.8c-0.8-0.2-1.7-0.2-2.8-0.1c-1.1,0.1-2,0.4-2.8,0.7c-1.5,0.7-2.2,1.7-2.6,2.5l0,0.1l0,0.1
		c-0.3,0.7-0.4,1.3-0.5,1.9c0,0.4,0,0.9,0,1.6l0.2,5.3c-1-1-2.2-1.7-3.6-2.1c-1.7-0.5-3.6-0.6-5.7-0.3c-2.6,0.4-5.9,2.4-7.9,3.9
		l-0.5-2c-1.2-5.8-2.2-9.2-3.1-10.7c-0.1-0.1-0.2-0.3-0.3-0.4c0,0,0-0.1-0.1-0.1l0-0.1l0-0.1c-0.8-1-2-1.7-3.4-1.8h0
		c-1-0.1-2.1,0-3.6,0.3c-1.9,0.4-3.5,1.3-4.6,2.6l0,0l0,0c-1.6,2-1.5,4.5-1.3,6.2l1.6,11.7C-73-42.9-80.3-36.8-80-30.3
		c0.3,5.3,5.6,9.8,14.2,12.9c0,0.9,0,1.8,0.1,2.8c0.3,2.2,0.9,4.2,1.9,5.9c1,1.7,2.2,3.1,3.6,4.1c1.3,1,2.8,1.7,4.3,2.2
		c1.5,0.5,3.1,0.8,4.5,0.9c1.4,0.1,2.8,0,4.2-0.3c1.4-0.3,2.9-0.8,4.3-1.6c1.8-1,2.5-1.5,2.9-1.8c0.4-0.3,0.8-0.7,1.2-1
		c0.6-0.5,1.1-1.1,1.5-1.7c0-0.1,0.1-0.1,0.1-0.2c0.5,0.3,0.9,0.5,1.4,0.7c1.5,0.6,3.1,0.9,4.7,0.8c1.8-0.1,3.2-0.6,4.3-1.1
		c1,0.5,2.4,0.7,4.3,0.5c1.1-0.1,2.1-0.3,2.9-0.7c0.7-0.3,1.3-0.7,1.8-1.2c0.4,2.3,1.4,4.1,2.7,5.5c1.9,2.1,4.8,3.3,8.7,3.6
		C-5.4,0-4.8,0-4.3,0c0.7,0,1.5-0.2,2.3-0.5l0,0l0,0c0.9-0.4,2.2-1.2,3.2-2.9c0.5-0.9,0.9-1.8,1.2-3.1C2.7-7.8,2.8-9.1,2.6-10
		C2.3-11.7,2-12.7,1-13.8c-0.6-0.6-1.8-1.2-2.6-1.4c0.4,0,0.8,0,1.1,0c0.7,0,1.5-0.2,2.3-0.5l0.1,0l0.1,0c0.9-0.4,2.2-1.2,3.1-3
		c0.2-0.3,0.3-0.7,0.5-1.1c6.1-2.5,10.9-5.5,13.7-8.8c0,0,0.1-0.1,0-0.2c0,0-0.1-0.1-0.1-0.1c-0.4-0.3-0.8-0.6-1.1-1.1
		c-0.9-1.3-0.8-3.1,0.2-4.3c0,0,0.1-0.1,0.1-0.2c0-0.1-0.1-0.1-0.2-0.2c-1.3-0.9-1.6-2.7-0.7-4c0.1-0.1,0.2-0.2,0.3-0.3
		c0.1-0.1,0.2-0.2,0.3-0.3c0.1-0.2,0.1-0.4,0.1-0.4c0-0.8,0.5-1.6,1.2-2.1c0,0,0.1-0.1,0.1-0.1c0-0.1-0.1-0.1-0.1-0.2
		c-0.9-1-2-2-3.4-2.8l3.8-6.7l0.2-0.3c0-0.1,0.1-0.1,0.1-0.2c0.5-0.8,0.8-1.6,0.9-2.5C21-55.8,20.6-57,19.9-57.9"/>
</g>
</svg>
