<?xml version="1.0" encoding="utf-8"?>
<!-- Generator: Adobe Illustrator 22.0.1, SVG Export Plug-In . SVG Version: 6.00 Build 0)  -->
<svg version="1.1" id="Layer_1" xmlns="http://www.w3.org/2000/svg" xmlns:xlink="http://www.w3.org/1999/xlink" x="0px" y="0px"
	 viewBox="0 0 105 72" style="enable-background:new 0 0 105 72;" xml:space="preserve">
<style type="text/css">
	.st0{fill:#EB1751;}
	.st1{filter:url(#Adobe_OpacityMaskFilter);}
	.st2{fill:#FFFFFF;}
	.st3{mask:url(#b_1_);fill:#EB1751;}
</style>
<g transform="translate(100 100)">
	<path class="st0" d="M5-66.9c-0.3-1-1.6-1.5-3-1.1c-1.4,0.3-1.7,1.3-1.4,2.3c0.3,1,1,1.6,2.3,1.2C4.3-64.9,5.2-65.9,5-66.9
		 M1.9-61.5c-0.7,0-0.9,0.4-1,1c0,0.6,0.2,1,0.8,1.1c0.7,0,1.6-0.4,1.6-0.9C3.4-61,2.6-61.5,1.9-61.5 M-54.7-74.9
		c0-0.6-0.3-1.1-0.8-1.4c-0.5-0.3-1.2-0.4-2.1-0.3c-0.9,0.1-1.7,0.6-2.6,1.5c-0.8,0.9-1.2,1.7-1.2,2.5l5.1-0.8
		C-55.1-73.5-54.7-74-54.7-74.9 M-49.9-52.5c-1.3,0.1-2.4,0.6-3.2,1.6c-0.8,1-1.2,2-1.3,3.1c0,1.1,0.4,2,1.2,2.8
		c0.8,0.8,1.9,1.2,3.1,1.1c1.2-0.1,2.2-0.6,3.1-1.5c0.8-0.9,1.2-1.9,1.3-3c0-1.1-0.4-2-1.1-2.9C-47.5-52.2-48.6-52.6-49.9-52.5"/>
	<defs>
		<filter id="Adobe_OpacityMaskFilter" filterUnits="userSpaceOnUse" x="-100" y="-100" width="100.9" height="72">
			<feColorMatrix  type="matrix" values="1 0 0 0 0  0 1 0 0 0  0 0 1 0 0  0 0 0 1 0"/>
		</filter>
	</defs>
	<mask maskUnits="userSpaceOnUse" x="-100" y="-100" width="100.9" height="72" id="b_1_">
		<g class="st1">
			<path id="a_1_" class="st2" d="M-100-100H0.9v72H-100V-100z"/>
		</g>
	</mask>
	<path class="st3" d="M-2.1-82.7c0,0.4-0.2,0.8-0.4,1.2c-0.2,0.4-0.4,0.6-0.4,0.6l-3.7,6.5l-8.1,14.3c-0.2,0.5-0.4,0.8-0.6,1
		c-0.2,0.2-0.4,0.5-0.7,0.7c-0.3,0.2-0.7,0.3-1.1,0.3c-0.4,0-1-0.2-1.8-0.6c-1.3-0.7-2-1.4-1.9-2.3c0.1-0.6,1.5-3.3,4.4-8.1
		l-4.9-10.3l-0.9-1.9c-0.4-0.8-0.6-1.4-0.5-1.8c0.1-0.8,0.8-1.5,2.2-2.2c0.9-0.5,1.5-0.7,2-0.7c0.5,0,0.8,0.1,1.1,0.3
		c0.3,0.2,0.4,0.4,0.6,0.6c0.1,0.2,0.6,1.3,1.6,3.4c0.9,1.9,1.8,3.8,2.7,5.7c0.1-0.1,0.2-0.4,0.5-0.9c0.4-0.7,1.1-1.9,2-3.5
		c0.8-1.4,1.6-2.7,2.3-4.1c0.1-0.2,0.3-0.4,0.5-0.6c0.4-0.4,0.8-0.6,1.4-0.6c0.6,0,1.2,0.2,1.9,0.6C-2.6-84.4-2-83.6-2.1-82.7
		 M-17.5-50.3c-0.3,1.8-0.9,2.9-1.7,3.3c-0.5,0.2-0.9,0.3-1.2,0.3c-0.3,0-0.8,0-1.5,0l-2.8-0.4l-0.5,2.9l-0.5,3.1
		c-0.1,0.8-0.1,1.4,0.1,1.7c0.2,0.4,0.6,0.6,1.3,0.6c0.7,0,1.2,0.1,1.5,0.2c0.4,0.1,0.7,0.2,1.1,0.5c0.6,0.4,0.8,1.4,0.5,3
		c-0.3,1.8-0.9,2.9-1.8,3.3c-0.5,0.2-0.9,0.3-1.2,0.3c-0.3,0-0.8,0-1.5,0c-3-0.2-5.2-1.1-6.5-2.6c-1.3-1.5-1.7-3.8-1.2-7.1l0.2-1.3
		l0.8-5.1c-0.6,0-2.8-0.1-3.4-0.2c-0.6,0-1.1-0.3-1.5-0.9c-0.3-0.5-0.4-1.4-0.2-2.6c0.2-1.2,0.1-2,0.4-2.5c0.2-0.5,0.5-0.9,0.8-1.1
		c0.5-0.3,1.1-0.5,1.8-0.4l3.3,0.4l0.7-4.5c0.1-0.7,0.2-1.2,0.3-1.5c0.1-0.3,0.3-0.7,0.6-1c0.5-0.7,1.7-1,3.5-0.8
		c2,0.1,3,0.8,3.2,1.9c0.1,0.5,0,1.2-0.1,2.2l-0.7,4.3c1.3,0,2.3,0,2.9,0c0.7,0,1.1,0.1,1.5,0.2c0.3,0.1,0.7,0.2,1.1,0.5
		C-17.4-53.3-17.2-52.2-17.5-50.3 M-38.4-64.4c-0.7,0.1-1.5,0.1-2.4,0.1c-1.9,0-3.1-0.5-3.7-1.4c-0.7-1.1-1.1-2.9-1.2-5.4L-46-81.5
		l-0.2-6.6c0-0.5,0-1,0-1.2c0-0.3,0.1-0.6,0.3-1c0.3-0.7,1.2-1.1,2.8-1.3c1.5-0.2,2.4,0,2.8,0.6c0.2,0.3,0.3,0.6,0.4,0.9
		c0,0.3,0.1,0.7,0.1,1.2l0.2,7.4l0.3,9.2c0,0.9,0.1,1.4,0.3,1.6c0.2,0.2,0.5,0.3,1,0.2c0.5-0.1,0.8-0.1,1-0.1c0.2,0,0.4,0.1,0.6,0.2
		c0.5,0.3,0.8,1.1,0.8,2.4c0,1.5-0.2,2.4-0.6,2.8C-36.7-64.8-37.4-64.5-38.4-64.4 M-38.9-56l-0.2,13.8c0,0.2,0,0.3,0,0.5
		c0,0.3,0,0.6-0.1,0.9c0,0.3-0.2,0.7-0.4,1.1c-0.4,0.7-1.3,1.1-2.7,1.2c-1.4,0.1-2.4,0-2.9-0.3c-0.5-0.3-0.8-0.8-0.8-1.5
		c-1,1.5-2.6,2.3-4.9,2.4c-2.3,0.2-4.4-0.7-6.3-2.7c-0.1-0.1-0.1-0.1-0.2-0.2c-1.8-1.9-2.7-4.2-2.6-6.8c0-2.7,1.1-5.2,3.1-7.4
		c2-2.2,4.2-3.4,6.5-3.6c0.9-0.1,1.7,0,2.5,0.3c0.7,0.3,1.2,0.5,1.5,0.8c0.3,0.3,0.5,0.5,0.7,0.8c0.2-1.5,1.2-2.3,3.2-2.4
		c1-0.1,1.8-0.1,2.3,0.1c0.5,0.1,0.8,0.4,1,0.8c0.2,0.4,0.3,0.7,0.3,1C-38.9-57.1-38.9-56.6-38.9-56 M-59.6-37.5
		c-0.3,0.4-0.6,0.8-1,1.1c-0.4,0.3-0.8,0.7-1.1,1c-0.4,0.3-1.1,0.8-2.3,1.4c-1.2,0.6-2.3,1.1-3.4,1.3c-1.1,0.2-2.3,0.3-3.5,0.3
		c-1.2-0.1-2.4-0.3-3.8-0.7c-1.3-0.4-2.5-1-3.6-1.8c-1.1-0.8-2.1-1.9-2.9-3.3c-0.8-1.4-1.3-3-1.6-4.9c0-0.4-0.1-0.8-0.1-1.2
		c-0.1-1.4,0.1-2.7,0.4-4c0.4-1.6,1.1-3,1.9-4.2c0,0,0.2-4.3,1.2-5.3c0.8-0.9,2.5,0.7,3.1,1.3c1.8-1.2,3.6-2,5.5-2.4l0.1,0
		c0.1-0.5,0.7-3.5,2-3.5c1.5,0,2.3,2.3,2.6,3.5c0.6,0.1,1.1,0.2,1.5,0.4l0.9,0.3c0.5,0.2,0.8,0.3,1.1,0.4c0.7,0.4,1.1,0.9,1.1,1.5
		c0.1,0.6-0.1,1.3-0.5,2.1c-0.8,1.5-1.5,2.3-2.3,2.4c-0.4,0.1-3-0.4-4.9-0.2c-1.6,0.2-3.3,0.9-4.6,2.3c-1.3,1.5-1.7,3.2-1.5,4.4
		c0.1,1.2,0.5,2.2,1.1,3l0,0.1c0.6,0.8,1.3,1.4,2.1,1.8c1.6,0.7,3.2,0.9,4.7,0.6c0.7-0.1,1.4-0.4,2.1-0.7c0.3-0.2,0.6-0.3,0.8-0.5
		c0.2-0.1,0.4-0.2,0.5-0.4c0,0,0.6-0.5,1-0.6c0.7-0.1,1.5,0.3,2.4,1.2c0.1,0.1,0.2,0.2,0.2,0.2c0.6,0.7,1,1.3,1,1.8
		C-59.2-38.4-59.3-37.9-59.6-37.5 M-84.8-60.4c-1.4-0.4-2.4-0.8-2.9-1.3l-0.4-0.3c-1.1-0.8-1.7-1.6-1.8-2.3
		c-0.1-0.7,0.3-1.7,1.1-2.9c0.8-1.2,1.6-1.9,2.4-2.1c0.8-0.2,1.7,0.1,2.7,0.8c1,0.7,2.1,0.9,3.2,0.7c1.1-0.2,1.9-0.8,2.5-1.7
		c0.6-0.9,0.8-1.9,0.7-3.1l-0.6-4.1l-1.6-11.3c-0.2-1.6-0.1-2.8,0.4-3.4c0.6-0.7,1.4-1.1,2.5-1.4c1.1-0.2,1.9-0.3,2.5-0.3
		c0.5,0.1,1,0.3,1.2,0.6c0.4,0.6,0.7,1.4,0.8,2.5l1.5,11.2l0.7,4.8c0.4,2.9-0.3,5.7-2.1,8.3c-1.8,2.7-4.4,4.4-7.7,5.1
		C-81.6-59.8-83.3-59.9-84.8-60.4 M-65.2-78.2c0.6-0.7,1.2-1.2,1.9-1.7c1.5-1.1,3.2-1.7,5.2-2c2.3-0.3,4.1-0.1,5.6,0.8
		c2,1.1,3.3,3.2,3.4,5.5c0.1,1.5-0.2,2.6-0.9,3.4c-0.7,0.8-1.5,1.3-2.4,1.4l-8.5,1.3c0,0.7,0.3,1.2,0.8,1.9c2,2.7,5.8,0.4,5.8,0.4
		c0.4-0.2,1.5-0.8,1.9-0.9c0.8-0.1,1.5,0.2,2.2,1.2c0.4,0.6,0.5,1.1,0.6,1.6c0.1,2.1-1.1,3.8-6.2,4.5c-2.2,0.3-4.4,0-6.4-0.9
		c-4.5-2.1-5.4-6.3-5.5-8.7C-67.9-73.6-67.1-76.1-65.2-78.2 M-34.2-72.7l0.7-8.4l1-12.7c0-0.6,0.1-1,0.2-1.2c0.1-0.3,0.2-0.6,0.4-1
		c0.4-0.6,1.3-1,2.9-1c1.5,0,2.3,0.3,2.7,0.9c0.2,0.4,0.3,0.7,0.3,1c0,0.3,0,0.7,0,1.3l-1,13.4l-0.6,7.3c-0.1,0.9,0,1.4,0.1,1.6
		c0.1,0.2,0.4,0.3,0.9,0.3c0.5,0,0.8,0,1,0c0.2,0,0.4,0.1,0.6,0.3c0.5,0.3,0.6,1.2,0.5,2.5c-0.1,1.5-0.4,2.4-0.9,2.8
		c-0.4,0.3-1.1,0.4-2.1,0.4c-0.7,0-1.5,0-2.4-0.2c-1.8-0.2-3-0.8-3.4-1.8C-34.2-68.3-34.4-70.1-34.2-72.7 M-0.1-85.9
		c-0.6-0.7-1.3-1.3-2.4-1.8l0,0l0,0c-1.1-0.5-2.1-0.8-3.1-0.8c-1.5,0-2.8,0.5-3.8,1.7c-0.4,0.4-0.6,0.7-0.9,1.1
		c-0.1,0.1-0.2,0.3-2,3.4l-0.3-0.7c-1.5-3.1-1.6-3.4-1.6-3.5l0,0l0,0c-0.3-0.6-0.7-1-1.3-1.5l0,0l0,0c-0.7-0.5-1.6-0.8-2.7-0.9
		c-1,0-2.1,0.3-3.5,1l0,0l0,0c-0.9,0.5-1.6,0.9-2.1,1.5l0.6-7.4c0.1-0.7,0.1-1.2,0.1-1.6c0-0.7-0.2-1.3-0.5-2l0,0l0,0
		c-0.3-0.7-1-1.6-2.4-2.1c-0.8-0.3-1.7-0.4-2.7-0.4c-1.1,0-2,0.1-2.9,0.4c-1.5,0.5-3.4,1.5-4.5,4.7c-0.7,2.3-0.9,3.8-0.9,3.8v0
		c-0.1-0.6-0.4-1.1-0.7-1.7l0,0l0,0c-0.4-0.6-1.2-1.4-2.6-1.8c-0.8-0.2-1.7-0.2-2.8-0.1c-1.1,0.1-2,0.4-2.8,0.7
		c-1.5,0.7-2.2,1.7-2.6,2.5l0,0.1l0,0.1c-0.3,0.7-0.4,1.3-0.5,1.9c0,0.4,0,0.9,0,1.6l0.2,5.3c-1-1-2.2-1.7-3.6-2.1
		c-1.7-0.5-3.6-0.6-5.7-0.3c-2.6,0.4-5.9,2.4-7.9,3.9l-0.5-2c-1.2-5.8-2.2-9.2-3.1-10.7c-0.1-0.1-0.2-0.3-0.3-0.4c0,0,0-0.1-0.1-0.1
		l0-0.1l0-0.1c-0.8-1-2-1.7-3.4-1.8h0c-1-0.1-2.1,0-3.6,0.3c-1.9,0.4-3.5,1.3-4.6,2.6l0,0l0,0c-1.6,1.9-1.5,4.5-1.3,6.2l1.6,11.7
		c-11.7,4.3-19,10.5-18.6,16.9c0.3,5.3,5.6,9.8,14.2,12.9c0,0.9,0,1.8,0.1,2.8c0.3,2.2,0.9,4.2,1.9,5.9c1,1.7,2.2,3.1,3.6,4.1
		c1.3,1,2.8,1.7,4.3,2.2c1.5,0.5,3.1,0.8,4.5,0.9c1.4,0.1,2.8,0,4.2-0.3c1.4-0.3,2.9-0.8,4.3-1.6c1.8-1,2.5-1.5,2.9-1.8
		c0.4-0.3,0.8-0.7,1.2-1c0.6-0.5,1.1-1.1,1.5-1.7c0-0.1,0.1-0.1,0.1-0.2c0.5,0.3,0.9,0.5,1.4,0.7c1.5,0.6,3.1,0.9,4.7,0.8
		c1.8-0.1,3.2-0.6,4.3-1.1c1,0.5,2.4,0.7,4.3,0.5c1.1-0.1,2.1-0.3,2.9-0.7c0.7-0.3,1.3-0.7,1.8-1.2c0.4,2.3,1.4,4.1,2.7,5.5
		c1.9,2.1,4.8,3.3,8.7,3.6c0.8,0.1,1.4,0.1,1.9,0c0.7,0,1.5-0.2,2.3-0.5l0,0l0,0c0.9-0.4,2.2-1.2,3.2-2.9c0.5-0.9,0.9-1.8,1.2-3.1
		c0.2-1.2,0.3-2.5,0.2-3.4c-0.3-1.7-0.6-2.7-1.6-3.7c-0.6-0.6-1.8-1.2-2.6-1.4c0.4,0,0.8,0,1.1,0c0.7,0,1.5-0.2,2.3-0.5l0.1,0l0.1,0
		c0.9-0.4,2.2-1.2,3.1-3c0.2-0.3,0.3-0.7,0.5-1.1c6.1-2.5,10.9-5.5,13.7-8.8c0,0,0.1-0.1,0-0.2c0,0-0.1-0.1-0.1-0.1
		c-0.4-0.3-0.8-0.6-1.1-1.1c-0.9-1.3-0.8-3.1,0.2-4.3c0,0,0.1-0.1,0.1-0.2c0-0.1-0.1-0.1-0.2-0.2c-1.3-0.9-1.6-2.7-0.7-4
		c0.1-0.1,0.2-0.2,0.3-0.3C-2.2-67-2-67.1-2-67.2c0.1-0.2,0.1-0.4,0.1-0.4c0-0.8,0.5-1.6,1.2-2.1c0,0,0.1-0.1,0.1-0.2
		c0-0.1-0.1-0.1-0.1-0.2c-0.9-1-2-2-3.4-2.8l3.8-6.7l0.2-0.3c0-0.1,0.1-0.1,0.1-0.2c0.5-0.8,0.8-1.6,0.9-2.5C1-83.8,0.6-85-0.1-85.9
		"/>
</g>
</svg>
