<svg xmlns="http://www.w3.org/2000/svg" xmlns:xlink="http://www.w3.org/1999/xlink" width="285" height="244" viewBox="0 0 285 244">
    <defs>
        <path id="a" d="M0 0h100.882v72H0z"/>
    </defs>
    <g fill="none" fill-rule="evenodd">
        <path fill="#FFF" d="M0 0h1280v7472H0z"/>
        <g transform="translate(80 72)">
            <path fill="#FFF" d="M104.957 33.135c-.257-.96-1.591-1.461-2.981-1.118-1.39.344-1.677 1.298-1.42 2.258.256.959.96 1.562 2.35 1.219 1.39-.345 2.308-1.4 2.05-2.36M101.88 38.457c-.676-.036-.947.392-.992.954-.044.564.154 1.05.83 1.087.675.035 1.588-.375 1.633-.939.045-.563-.796-1.067-1.471-1.102M45.29 25.067c-.038-.634-.307-1.106-.804-1.42-.497-.313-1.186-.403-2.066-.268-.88.134-1.73.633-2.553 1.496-.822.863-1.208 1.707-1.157 2.534l5.118-.783c1.028-.157 1.516-.676 1.462-1.56M50.142 47.468c-1.302.094-2.362.628-3.182 1.6-.82.973-1.238 1.997-1.254 3.074-.015 1.076.398 2.018 1.242 2.82.845.802 1.875 1.16 3.094 1.07 1.218-.086 2.238-.601 3.058-1.54.819-.94 1.237-1.94 1.253-3 .014-1.06-.358-2.02-1.119-2.877-.761-.858-1.792-1.24-3.092-1.147"/>
            <mask id="b" fill="#fff">
                <use xlink:href="#a"/>
            </mask>
            <path fill="#FFF" d="M97.891 17.305c-.049.43-.19.836-.424 1.214-.236.378-.354.58-.356.602l-3.675 6.493-8.1 14.31c-.242.45-.443.793-.6 1.03-.16.236-.394.457-.705.665-.312.209-.682.306-1.112.295-.43-.01-1.043-.206-1.839-.587-1.34-.659-1.96-1.419-1.863-2.28.065-.575 1.523-3.288 4.373-8.137l-4.887-10.347-.883-1.867c-.389-.802-.561-1.395-.517-1.778.087-.767.819-1.515 2.195-2.249.867-.458 1.527-.68 1.981-.668.454.011.813.117 1.08.315.263.2.45.403.558.61.109.206.64 1.336 1.594 3.39a263.517 263.517 0 0 0 2.747 5.743c.061-.144.217-.445.467-.902.407-.745 1.063-1.906 1.97-3.484a500.01 500.01 0 0 1 2.347-4.063c.103-.164.263-.364.482-.6.356-.398.815-.59 1.377-.576.561.014 1.205.2 1.933.554 1.338.66 1.958 1.431 1.857 2.317M82.454 49.677c-.296 1.829-.866 2.917-1.712 3.266-.466.171-.869.266-1.208.285-.338.019-.839.002-1.503-.048l-2.786-.384-.464 2.867-.51 3.144c-.125.785-.095 1.36.094 1.727.188.366.623.575 1.301.627.678.05 1.193.11 1.548.18.353.072.713.238 1.08.5.602.428.777 1.426.523 2.993-.297 1.83-.882 2.918-1.756 3.263-.466.172-.869.266-1.207.286-.338.019-.825.004-1.461-.043-3-.225-5.17-1.077-6.507-2.56-1.338-1.482-1.743-3.849-1.216-7.1l.215-1.33.829-5.118c-.563.047-2.758-.103-3.392-.152-.636-.047-1.123-.333-1.46-.858-.34-.525-.412-1.383-.22-2.573.193-1.19.138-2.01.37-2.538.232-.526.496-.895.793-1.109.522-.342 1.132-.489 1.824-.438l3.262.394.727-4.487c.108-.668.21-1.16.305-1.477.095-.316.288-.654.58-1.014.493-.698 1.663-.978 3.51-.84 1.962.147 3.044.773 3.245 1.875.07.475.02 1.222-.143 2.238l-.692 4.269c1.29-.021 2.258-.008 2.907.04.65.05 1.136.107 1.462.176.324.068.684.236 1.08.5.689.433.883 1.58.582 3.439M61.6 35.574c-.665.078-1.47.115-2.416.112-1.859-.019-3.08-.484-3.662-1.394-.71-1.085-1.107-2.9-1.187-5.445l-.326-10.332-.211-6.648c-.017-.547-.012-.96.016-1.238.027-.277.119-.605.276-.981.316-.682 1.243-1.113 2.781-1.295 1.467-.172 2.391.041 2.771.64.204.334.328.642.373.924.045.28.076.695.094 1.241l.233 7.365.29 9.151c.026.857.116 1.39.267 1.598.151.21.474.285.965.226.493-.058.825-.079.994-.063.17.016.377.093.623.231.49.253.757 1.068.802 2.448.046 1.498-.165 2.442-.635 2.832-.367.3-1.05.51-2.048.628m-.477 8.408l-.2 13.79c-.002.17-.005.325-.011.47a8.766 8.766 0 0 1-.068.894c-.044.305-.16.662-.352 1.068-.38.711-1.29 1.117-2.73 1.222-1.442.104-2.404-.003-2.89-.322-.483-.318-.76-.817-.829-1.494-.998 1.462-2.642 2.277-4.928 2.444-2.288.165-4.394-.718-6.32-2.652-.07-.069-.134-.14-.2-.21-1.79-1.891-2.669-4.158-2.63-6.807.04-2.744 1.058-5.219 3.058-7.423 2-2.205 4.176-3.393 6.53-3.564.898-.065 1.716.033 2.451.295.736.261 1.248.519 1.535.774.286.255.52.507.702.756.18-1.483 1.235-2.294 3.164-2.434 1.033-.075 1.797-.052 2.297.07.5.12.847.371 1.04.75.192.38.307.72.342 1.019.034.3.048.752.039 1.354M40.433 62.464c-.28.392-.62.76-1.018 1.105-.396.347-.778.677-1.142.99-.364.314-1.13.783-2.299 1.406-1.168.623-2.318 1.051-3.448 1.283-1.131.233-2.292.321-3.481.266-1.19-.055-2.44-.301-3.75-.74a13.339 13.339 0 0 1-3.61-1.845c-1.096-.793-2.055-1.9-2.874-3.326-.82-1.424-1.341-3.047-1.564-4.87a15.49 15.49 0 0 1-.096-1.191c-.059-1.384.08-2.704.421-3.96.44-1.611 1.08-3 1.927-4.168 0 0 .237-4.283 1.194-5.347.798-.885 2.53.653 3.083 1.303 1.787-1.21 3.63-2.017 5.532-2.408l.064-.01c.083-.496.655-3.52 2.048-3.518 1.499 0 2.285 2.325 2.582 3.477.62.093 1.129.212 1.528.355l.917.315c.46.168.818.311 1.076.424.678.365 1.056.856 1.13 1.475.077.62-.095 1.32-.512 2.1-.774 1.452-1.532 2.254-2.268 2.406-.43.088-3.049-.428-4.939-.201-1.568.188-3.3.915-4.59 2.35-1.342 1.492-1.663 3.239-1.52 4.418.143 1.18.51 2.19 1.1 3.026l.038.052c.582.81 1.266 1.405 2.051 1.783 1.578.731 3.152.933 4.723.611a8.123 8.123 0 0 0 2.055-.71c.323-.164.598-.319.824-.464a3.59 3.59 0 0 0 .518-.386s.645-.534.978-.602c.681-.14 1.483.275 2.402 1.23.075.08.151.155.229.242.623.71.964 1.31 1.024 1.801.06.492-.051.934-.333 1.328M15.158 39.648c-1.384-.403-2.365-.822-2.945-1.261l-.382-.255c-1.12-.8-1.73-1.562-1.831-2.291-.1-.727.27-1.694 1.115-2.899.844-1.205 1.644-1.891 2.4-2.058.757-.168 1.66.1 2.71.802 1.048.702 2.112.934 3.19.695 1.078-.238 1.918-.79 2.52-1.66.602-.869.821-1.893.659-3.075l-.567-4.1L20.47 12.24c-.228-1.647-.094-2.766.402-3.357.572-.663 1.405-1.117 2.498-1.359 1.092-.24 1.91-.33 2.452-.265.543.065.954.278 1.236.639.395.564.666 1.382.815 2.452l1.54 11.17.658 4.771c.398 2.883-.315 5.666-2.14 8.346-1.824 2.682-4.388 4.387-7.692 5.117-1.85.409-3.542.372-5.08-.107M34.76 21.832a11.298 11.298 0 0 1 1.93-1.737c1.49-1.059 3.232-1.737 5.227-2.033 2.25-.334 4.128-.076 5.637.765a6.68 6.68 0 0 1 3.404 5.478c.091 1.457-.208 2.59-.896 3.395-.688.808-1.476 1.277-2.364 1.41l-8.532 1.264c.042.664.296 1.246.826 1.94 2.03 2.664 5.818.355 5.818.355.403-.215 1.476-.834 1.86-.891.768-.115 1.531.185 2.15 1.17.352.593.543 1.114.571 1.563.133 2.108-1.078 3.766-6.19 4.524a11.184 11.184 0 0 1-6.415-.936c-4.52-2.13-5.362-6.307-5.51-8.675-.189-2.984.64-5.515 2.484-7.592m31.08 5.461l.65-8.447.978-12.69c.044-.55.095-.964.153-1.24.058-.275.184-.594.382-.955.386-.649 1.346-.98 2.88-.992 1.463-.012 2.348.304 2.657.948.163.358.251.68.265.968.012.286-.003.705-.046 1.256l-1.032 13.386-.561 7.285c-.068.862-.04 1.406.087 1.633.124.226.433.337.924.333.491-.004.82.012.985.046.164.035.36.135.587.3.455.309.627 1.157.516 2.544-.12 1.51-.432 2.433-.939 2.773-.394.262-1.089.396-2.084.405-.663.005-1.46-.047-2.391-.153-1.827-.224-2.977-.826-3.45-1.804-.578-1.167-.765-3.032-.562-5.596M99.893 14.09c-.556-.694-1.328-1.279-2.357-1.785l-.005-.003-.004-.001c-1.096-.536-2.108-.809-3.09-.834-1.474-.038-2.834.548-3.835 1.652-.36.388-.64.745-.856 1.093-.064.103-.167.268-1.97 3.402l-.34-.73c-1.452-3.13-1.584-3.382-1.646-3.502l-.003-.004-.002-.004c-.29-.552-.728-1.05-1.303-1.482l-.001-.001-.002-.001c-.721-.542-1.618-.83-2.664-.856-1.015-.026-2.136.304-3.529 1.04l-.005.003-.003.002c-.854.455-1.55.932-2.117 1.452l.57-7.413c.055-.691.071-1.207.052-1.625-.03-.655-.196-1.307-.51-1.993l-.009-.022-.012-.022C75.934 1.789 75.26.89 73.862.39c-.762-.272-1.658-.4-2.741-.39-1.11.009-2.045.148-2.856.428-1.547.533-3.447 1.455-4.463 4.683-.724 2.299-.896 3.819-.896 3.819v.028a5.338 5.338 0 0 0-.679-1.66l-.013-.023-.013-.02c-.394-.62-1.17-1.43-2.629-1.767-.796-.185-1.71-.211-2.794-.084-1.114.133-2.036.373-2.82.738-1.492.695-2.214 1.721-2.557 2.46l-.027.058-.024.058c-.281.673-.446 1.288-.504 1.878-.04.415-.05.93-.027 1.62l.167 5.315a9.17 9.17 0 0 0-3.553-2.08c-1.672-.529-3.59-.639-5.7-.326-2.642.392-5.874 2.437-7.852 3.926l-.486-2.034c-1.198-5.837-2.153-9.202-3.07-10.73a23.56 23.56 0 0 0-.275-.446c-.021-.033-.04-.07-.063-.102l-.043-.062-.046-.06c-.797-1.026-1.961-1.658-3.366-1.824h-.005c-.956-.112-2.108-.008-3.628.328-1.915.423-3.462 1.306-4.6 2.626l-.017.02-.017.02c-1.636 1.95-1.508 4.483-1.268 6.22l1.616 11.717C6.953 29.072-.347 35.222.013 41.655c.293 5.255 5.643 9.76 14.17 12.892-.036.914 0 1.845.115 2.791.265 2.184.906 4.17 1.903 5.9 1 1.74 2.214 3.133 3.606 4.139a16.018 16.018 0 0 0 4.33 2.212c1.546.518 3.066.814 4.514.881a17.161 17.161 0 0 0 4.228-.324c1.423-.294 2.875-.831 4.314-1.598 1.843-.983 2.525-1.492 2.912-1.827.365-.314.752-.65 1.151-.997a9.824 9.824 0 0 0 1.547-1.688c.05-.068.091-.135.138-.204.453.273.916.512 1.388.709 1.5.629 3.093.887 4.738.768 1.776-.129 3.203-.563 4.345-1.147 1.037.498 2.395.658 4.3.52 1.133-.083 2.09-.305 2.93-.68a5.928 5.928 0 0 0 1.774-1.211c.369 2.262 1.375 4.081 2.68 5.529 1.907 2.11 4.838 3.33 8.715 3.62.808.06 1.42.074 1.928.046.72-.04 1.475-.208 2.309-.513l.046-.017.045-.018c.93-.368 2.233-1.175 3.179-2.933.505-.94.948-1.793 1.166-3.143.194-1.195.314-2.483.158-3.379-.3-1.706-.594-2.68-1.64-3.736-.604-.608-1.825-1.208-2.648-1.415.41.017.76.017 1.066 0 .721-.041 1.476-.209 2.308-.514l.072-.027.07-.028c.913-.376 2.194-1.194 3.117-2.954.182-.348.345-.72.487-1.12 6.13-2.505 10.88-5.528 13.703-8.819.018-.021.067-.102.043-.156-.021-.048-.114-.069-.146-.089a3.585 3.585 0 0 1-1.09-1.06 3.567 3.567 0 0 1 .233-4.267c.027-.032.106-.107.09-.178-.015-.07-.125-.135-.165-.163a2.877 2.877 0 0 1-.412-4.353c.059-.06.229-.177.307-.333.079-.156.065-.352.069-.422a2.622 2.622 0 0 1 1.185-2.077c.03-.02.086-.072.07-.15a.482.482 0 0 0-.11-.17c-.92-1.002-2.048-1.954-3.366-2.85l3.791-6.699.15-.26c.033-.058.08-.132.138-.228.49-.788.788-1.64.888-2.534a4.37 4.37 0 0 0-.959-3.292" mask="url(#b)"/>
        </g>
    </g>
</svg>
