<svg xmlns="http://www.w3.org/2000/svg" xmlns:xlink="http://www.w3.org/1999/xlink" width="276" height="227" viewBox="0 0 276 227">
    <defs>
        <path id="a" d="M0 0h92.235v66H0z"/>
    </defs>
    <g fill="none" fill-rule="evenodd">
        <path fill="#FFF" d="M0-7245h1280V227H0z"/>
        <g transform="translate(80 100)">
            <path fill="#EB1751" d="M95.96 30.373c-.235-.88-1.454-1.339-2.725-1.024-1.271.315-1.533 1.19-1.299 2.07.235.879.878 1.432 2.15 1.117 1.27-.316 2.11-1.283 1.875-2.163M93.147 35.252c-.617-.033-.866.36-.906.875-.041.516.14.963.758.996.618.032 1.452-.343 1.494-.86.04-.517-.729-.979-1.346-1.011M41.408 22.978c-.035-.58-.28-1.014-.735-1.301-.455-.288-1.084-.37-1.889-.247-.804.124-1.582.581-2.334 1.372-.752.79-1.104 1.565-1.058 2.323l4.679-.717c.94-.145 1.387-.62 1.337-1.43M45.844 43.513c-1.19.086-2.16.575-2.909 1.466-.75.892-1.132 1.83-1.146 2.818-.014.986.364 1.85 1.135 2.584.772.736 1.714 1.064 2.829.982 1.114-.08 2.045-.551 2.795-1.412.75-.862 1.132-1.779 1.146-2.75.013-.972-.327-1.851-1.023-2.638-.696-.786-1.638-1.136-2.827-1.05"/>
            <mask id="b" fill="#fff">
                <use xlink:href="#a"/>
            </mask>
            <path fill="#EB1751" d="M89.5 15.863a2.667 2.667 0 0 1-.388 1.112c-.215.347-.323.532-.325.553l-3.36 5.951-7.405 13.118a12.43 12.43 0 0 1-.55.943 2.3 2.3 0 0 1-.644.611c-.285.191-.623.28-1.016.27-.393-.01-.954-.189-1.681-.538-1.225-.604-1.793-1.3-1.704-2.09.06-.527 1.393-3.014 3.998-7.458l-4.468-9.486-.807-1.71c-.356-.736-.513-1.28-.473-1.631.08-.703.749-1.388 2.007-2.061.792-.42 1.396-.624 1.811-.613.415.01.744.108.987.29.241.182.412.368.51.558.1.19.586 1.225 1.458 3.107a241.84 241.84 0 0 0 2.511 5.265c.057-.132.2-.408.428-.827.371-.683.972-1.747 1.801-3.193a458.644 458.644 0 0 1 2.146-3.725c.093-.15.24-.334.44-.55.326-.365.745-.54 1.26-.528.512.013 1.1.183 1.766.508 1.223.604 1.791 1.312 1.699 2.124M75.387 45.537c-.272 1.677-.793 2.675-1.566 2.994-.425.157-.794.243-1.104.26-.31.018-.767.003-1.374-.042l-2.547-.353-.425 2.629-.466 2.881c-.115.72-.087 1.247.086 1.583.172.336.57.527 1.19.575.62.046 1.09.102 1.415.166.323.065.652.218.987.458.55.392.71 1.307.478 2.743-.271 1.679-.807 2.675-1.605 2.992-.426.157-.794.244-1.104.261-.309.017-.754.004-1.336-.04-2.743-.206-4.727-.987-5.95-2.346-1.222-1.358-1.593-3.528-1.11-6.508l.196-1.219.758-4.691c-.515.042-2.522-.095-3.102-.14-.58-.043-1.026-.305-1.334-.786-.31-.481-.377-1.268-.2-2.359.175-1.092.125-1.843.338-2.327.21-.482.453-.82.724-1.016.478-.313 1.035-.448 1.667-.401l2.983.36.665-4.112c.098-.613.191-1.063.278-1.354.087-.29.264-.6.531-.93.45-.64 1.52-.896 3.208-.77 1.795.135 2.784.709 2.968 1.719.063.435.019 1.12-.131 2.051l-.632 3.913c1.178-.019 2.064-.007 2.657.038.594.045 1.04.098 1.337.16.296.063.625.217.987.458.63.398.808 1.45.533 3.153M56.319 32.609c-.608.072-1.344.106-2.209.103-1.7-.017-2.816-.444-3.348-1.278-.65-.995-1.012-2.658-1.085-4.991l-.298-9.471-.193-6.094c-.015-.501-.01-.88.014-1.135.025-.253.11-.554.253-.899.289-.625 1.137-1.02 2.543-1.187 1.34-.158 2.186.038 2.533.587.187.306.3.588.341.846.041.258.07.637.086 1.138l.213 6.751.265 8.39c.024.784.106 1.273.244 1.464.138.192.433.26.883.207.45-.053.754-.072.908-.058.155.015.345.086.57.212.448.231.692.98.733 2.244.042 1.373-.15 2.238-.58 2.596-.336.275-.96.467-1.873.575m-.436 7.708l-.182 12.64c-.003.157-.006.298-.011.432a8.056 8.056 0 0 1-.062.819c-.04.28-.147.607-.322.979-.347.652-1.18 1.024-2.497 1.12-1.318.096-2.197-.003-2.64-.295-.443-.292-.695-.749-.76-1.37-.912 1.341-2.415 2.088-4.505 2.24-2.091.152-4.018-.657-5.779-2.43-.063-.063-.121-.128-.182-.192-1.637-1.734-2.44-3.813-2.405-6.24.036-2.516.968-4.784 2.797-6.805 1.828-2.021 3.817-3.11 5.97-3.267.821-.06 1.568.03 2.24.27.673.24 1.141.476 1.404.71.261.234.476.465.642.693.165-1.36 1.129-2.103 2.893-2.23.944-.07 1.643-.048 2.1.063.458.11.774.34.95.688.177.349.28.66.314.933.03.275.043.69.035 1.242M36.968 57.258c-.257.36-.568.698-.931 1.014-.363.317-.712.62-1.045.907-.332.288-1.033.718-2.101 1.289-1.069.571-2.12.964-3.153 1.176a12.774 12.774 0 0 1-3.183.244c-1.088-.05-2.23-.276-3.428-.678a12.184 12.184 0 0 1-3.3-1.692c-1.003-.726-1.88-1.742-2.628-3.049-.75-1.305-1.227-2.793-1.43-4.465a14.235 14.235 0 0 1-.088-1.09 11.861 11.861 0 0 1 .385-3.63c.401-1.477.988-2.751 1.762-3.822 0 0 .216-3.925 1.091-4.9.73-.812 2.313.598 2.82 1.194 1.633-1.11 3.319-1.849 5.057-2.207l.058-.01c.077-.455.6-3.226 1.873-3.225 1.37 0 2.09 2.132 2.361 3.188a7.53 7.53 0 0 1 1.397.325l.838.288c.42.155.748.286.984.39.62.334.965.784 1.034 1.352.069.568-.088 1.209-.469 1.924-.708 1.331-1.4 2.067-2.074 2.206-.392.08-2.787-.392-4.515-.184-1.434.172-3.017.838-4.197 2.154-1.227 1.367-1.52 2.969-1.39 4.05.131 1.082.467 2.007 1.006 2.774l.035.047c.532.743 1.157 1.288 1.875 1.634 1.443.67 2.882.856 4.318.561a7.414 7.414 0 0 0 1.879-.65c.295-.152.546-.293.754-.426.197-.126.355-.245.473-.354 0 0 .59-.49.894-.552.623-.128 1.356.252 2.196 1.128.07.072.138.142.21.221.57.651.881 1.202.936 1.651.054.451-.047.857-.304 1.217m-23.11-20.914c-1.265-.37-2.162-.753-2.692-1.156l-.349-.234c-1.024-.732-1.582-1.432-1.674-2.1-.092-.666.247-1.552 1.019-2.657.772-1.105 1.504-1.734 2.195-1.887.692-.153 1.517.092 2.476.735.96.644 1.932.856 2.918.637.985-.218 1.754-.724 2.305-1.522.55-.795.75-1.735.601-2.817l-.518-3.76-1.425-10.362c-.208-1.51-.085-2.535.368-3.077.523-.608 1.284-1.024 2.284-1.246.998-.22 1.746-.302 2.242-.243.496.06.872.255 1.13.586.36.517.61 1.267.745 2.247l1.408 10.24.602 4.373c.363 2.642-.289 5.194-1.956 7.65-1.668 2.459-4.013 4.022-7.034 4.692-1.69.374-3.238.34-4.645-.099m17.923-16.332a10.34 10.34 0 0 1 1.764-1.592c1.364-.97 2.956-1.592 4.78-1.863 2.057-.306 3.774-.07 5.153.701a6.111 6.111 0 0 1 1.762 1.492c.816 1.018 1.267 2.195 1.35 3.53.085 1.335-.189 2.373-.818 3.112-.63.74-1.35 1.17-2.162 1.292l-7.8 1.159c.038.608.27 1.142.755 1.779 1.857 2.441 5.32.325 5.32.325.368-.198 1.349-.765 1.7-.818.702-.104 1.4.17 1.966 1.073.321.544.496 1.022.522 1.433.12 1.933-.986 3.452-5.66 4.147a10.201 10.201 0 0 1-5.865-.858c-4.132-1.953-4.903-5.781-5.038-7.952-.172-2.735.585-5.055 2.271-6.96m28.416 5.007l.595-7.744.894-11.632c.04-.505.087-.884.14-1.137.053-.252.168-.544.349-.875.353-.595 1.23-.898 2.634-.91 1.337-.01 2.146.28 2.428.87.15.327.23.623.242.887.012.262-.002.646-.041 1.151l-.944 12.27-.513 6.678c-.062.79-.036 1.29.08 1.497.113.208.395.31.845.306.449-.004.75.011.9.042.15.032.33.124.537.275.416.283.573 1.06.472 2.332-.11 1.384-.396 2.23-.859 2.542-.36.24-.995.363-1.905.37a18.227 18.227 0 0 1-2.187-.14c-1.67-.205-2.721-.756-3.153-1.653-.53-1.07-.7-2.78-.514-5.129M91.33 12.915c-.509-.636-1.214-1.172-2.155-1.637l-.005-.002-.003-.001c-1.002-.491-1.928-.741-2.826-.764a4.507 4.507 0 0 0-3.506 1.514 6.6 6.6 0 0 0-.782 1.002c-.059.094-.153.246-1.8 3.118-.105-.222-.208-.445-.312-.67-1.328-2.868-1.448-3.099-1.506-3.21l-.002-.003-.002-.004c-.266-.505-.666-.962-1.191-1.358l-.001-.001h-.002c-.66-.497-1.479-.76-2.436-.786-.927-.023-1.953.279-3.226.954l-.005.002-.003.003c-.78.416-1.417.854-1.935 1.33l.52-6.795c.051-.633.066-1.106.049-1.49-.028-.6-.18-1.197-.466-1.826l-.009-.02-.01-.021c-.291-.61-.908-1.433-2.186-1.891-.697-.25-1.516-.367-2.506-.359-1.015.009-1.87.137-2.612.393-1.414.489-3.15 1.334-4.08 4.293-.662 2.107-.819 3.5-.819 3.5v.026a4.9 4.9 0 0 0-.62-1.522l-.013-.02-.012-.02c-.36-.568-1.069-1.31-2.403-1.619-.728-.169-1.563-.193-2.555-.076-1.018.121-1.861.342-2.577.676-1.365.637-2.025 1.578-2.339 2.255l-.024.053-.022.053c-.258.617-.408 1.18-.461 1.722-.037.38-.046.853-.025 1.486l.153 4.87a8.379 8.379 0 0 0-3.249-1.906c-1.528-.484-3.281-.585-5.21-.298-2.417.36-5.371 2.234-7.18 3.598l-.444-1.864c-1.096-5.35-1.968-8.436-2.807-9.837a21.606 21.606 0 0 0-.251-.408c-.02-.03-.037-.064-.058-.093l-.04-.057-.042-.055c-.729-.94-1.793-1.52-3.077-1.672h-.005c-.873-.103-1.927-.007-3.317.3-1.751.388-3.165 1.198-4.206 2.407l-.015.019-.015.018c-1.496 1.788-1.38 4.11-1.16 5.703l1.478 10.74C6.357 26.65-.317 32.287.012 38.185.28 43 5.172 47.13 12.967 50c-.032.838 0 1.691.105 2.559.243 2.002.828 3.822 1.74 5.409.915 1.594 2.025 2.87 3.297 3.793a14.631 14.631 0 0 0 3.958 2.028c1.415.474 2.804.746 4.128.808 1.31.06 2.61-.04 3.865-.298 1.302-.269 2.63-.761 3.945-1.464 1.685-.901 2.308-1.368 2.662-1.675.334-.288.688-.596 1.053-.914a8.997 8.997 0 0 0 1.414-1.547c.045-.063.084-.124.126-.187.415.25.838.469 1.27.65a9.328 9.328 0 0 0 4.33.704c1.625-.118 2.93-.517 3.974-1.052.947.456 2.19.603 3.932.477 1.035-.076 1.91-.28 2.678-.624a5.42 5.42 0 0 0 1.622-1.11c.337 2.074 1.257 3.742 2.45 5.068 1.744 1.935 4.424 3.052 7.968 3.318.739.056 1.3.07 1.763.043.658-.037 1.349-.19 2.111-.47l.042-.016.042-.016c.85-.337 2.041-1.077 2.906-2.689.462-.86.866-1.643 1.066-2.88.177-1.096.287-2.277.144-3.098-.273-1.564-.543-2.456-1.5-3.425-.551-.557-1.668-1.107-2.42-1.297.375.015.695.015.975 0 .66-.038 1.35-.192 2.11-.471l.066-.025.064-.026c.834-.345 2.006-1.094 2.85-2.707.166-.32.314-.66.445-1.027 5.605-2.296 9.947-5.068 12.528-8.084.017-.02.061-.094.04-.143-.02-.044-.105-.063-.134-.081a3.281 3.281 0 0 1-.997-.972 3.277 3.277 0 0 1 .214-3.912c.024-.03.096-.098.082-.163-.014-.065-.114-.124-.15-.15a2.643 2.643 0 0 1-.376-3.99c.052-.055.207-.162.28-.305.07-.143.058-.323.062-.386a2.404 2.404 0 0 1 1.083-1.904c.029-.019.079-.066.065-.138a.442.442 0 0 0-.102-.156c-.84-.919-1.872-1.791-3.076-2.613l3.465-6.14.137-.239c.03-.053.073-.12.127-.209a5.55 5.55 0 0 0 .812-2.322 4.013 4.013 0 0 0-.877-3.018" mask="url(#b)"/>
        </g>
    </g>
</svg>
