<svg xmlns="http://www.w3.org/2000/svg" xmlns:xlink="http://www.w3.org/1999/xlink" width="172" height="167" viewBox="0 0 172 167">
    <defs>
        <path id="a" d="M0 .088H171.98v165.911H0z"/>
        <linearGradient id="b" x1="0%" y1="100%" y2="0%">
            <stop offset="0%" stop-color="#FF9600"/>
            <stop offset="100%" stop-color="#FDCC80"/>
        </linearGradient>
    </defs>
    <g fill="none" fill-rule="evenodd">
        <g transform="translate(0 .913)">
            <mask id="c" fill="#fff">
                <use xlink:href="#a"/>
            </mask>
            <path fill="url(#b)" d="M156.209 84.392c-20.706-16.927-55.277-12.227-71.982-33.072-6.54-8.16-9.081-19.017-13.892-28.196.299-.278.416-.682.301-1.237-1.257-5.994-.924-18.925-4.688-21.267-3.499-2.178-10.589 2.794-13.458 6.529-6.235-1.906-13.184-1.78-19.75.037a40.36 40.36 0 0 0-8.693 3.55C21.133 7.295 12.736 2.56 9.339 5.305c-3.449 2.789.469 13.229-.993 20.704-.04.208-.044.388-.027.554-6.553 11.244-8.8 25.07-8.235 38.206 1.353 31.593 17.723 62.148 43.298 80.819 25.573 18.67 59.832 25.08 90.62 16.952 14.715-3.885 32.863-14.047 36.746-30.102.227-.938.421-1.894.583-2.861 2.661-15.75-2.965-35.247-15.122-45.185" mask="url(#c)"/>
        </g>
        <path fill="#FFF" d="M29.727 49.152c7.107-7.934-5.213-18.993-12.33-11.046-7.107 7.936 5.21 18.993 12.33 11.046"/>
        <path fill="#000" d="M39.75 56.366c1.047-.125 1.899-.687 2.365-1.262.066-.08.129-.168.188-.253a.496.496 0 0 1 .746-.092 3.56 3.56 0 0 0 1.394.766c1.504.417 3.256-.254 4.09-1.56.16-.25.118-.593-.118-.77a.558.558 0 0 0-.806.15c-.575.926-1.809 1.403-2.868 1.11-.874-.242-1.573-.995-1.785-1.86-.004-.06-.052-.167-.125-.293a.511.511 0 0 0-.931.101c-.043.136-.067.25-.056.307a2.741 2.741 0 0 1-.593 1.695c-.44.547-2.007 1.624-3.937.096a.557.557 0 0 0-.811.133c-.163.25-.077.585.157.767 1.092.852 2.166 1.078 3.09.965M41.362 49.144c1.554-.23 2.892-.221 2.91.242.018.462-.873 1.53-2.243 1.734-1.369.204-3.012-.5-3.006-.925.007-.426.784-.82 2.34-1.051M15.755 55.121c1.994-.262 1.59-3.36-.407-3.097-1.993.262-1.588 3.361.407 3.097M70.691 47.52c2.17-.285 1.73-3.656-.443-3.37-2.168.286-1.729 3.656.443 3.37M19.787 48.168a.18.18 0 0 1 .203-.241c.821.165 3.356.967 5.344.629 2.392-.406 4.013-2.426 4.106-2.23.185.39-.62 2.923-3.592 3.633-2.788.665-5.576-.535-6.06-1.791M52.305 43.455c-.094-.182.06-.392.258-.347.924.207 3.326.926 5.229.605 2.396-.406 4.014-2.426 4.107-2.232.185.391-.62 2.923-3.594 3.634-2.69.643-5.381-.455-6-1.66"/>
    </g>
</svg>
