<svg xmlns="http://www.w3.org/2000/svg" xmlns:xlink="http://www.w3.org/1999/xlink" width="210" height="275" viewBox="0 0 210 275">
    <defs>
        <path id="a" d="M0 .159h209.832V274H0z"/>
    </defs>
    <g fill="none" fill-rule="evenodd">
        <g transform="translate(0 .841)">
            <mask id="b" fill="#fff">
                <use xlink:href="#a"/>
            </mask>
            <path fill="#FDCC80" d="M203.214 182.273c-18.238-33.236-66.178-45.4-77.076-81.666-4.213-14.014-1.909-29.42-3.25-43.877.206-.252.36-.581.437-1.018 1.53-8.547 8.826-25.367 5.121-30.445-3.24-4.441-14.037-2.242-20.09.859-7.255-6.062-16.66-9.727-26.482-10.847a57.325 57.325 0 0 0-12.948.015C66.916 9.226 58.397-1.444 52.476.362c-6.012 1.835-6.403 17.637-12.29 26.687-.08.123-.137.24-.193.356-14.844 11.302-25.3 28.472-31.599 46.24-14.98 42.249-9.674 91.1 14.037 129.21 23.712 38.112 65.346 64.713 110.13 70.363 21.403 2.7 50.652-1.03 64.274-20.075a58.722 58.722 0 0 0 2.285-3.451c11.854-19.292 14.802-47.903 4.094-67.42" mask="url(#b)"/>
        </g>
        <path fill="#000" d="M62.033 68.95c.068 1.206.737 2.332 2.097 2.166 1.435-.176 2.617-1.184 3.474-2.279.26-.33.938-.075.941.333.004.406-.147 2.46.472 3.405.696 1.064 1.702.65 2.537.005.551-.423 1.31.086.987.758-.712 1.483-2.72 1.866-4.003.886-1.094-.835-1.309-2.193-1.243-3.513-1.037 1.1-2.342 1.988-3.888 1.79-1.788-.232-3.005-1.97-2.533-3.707.18-.665 1.121-.5 1.16.155M66.595 65.543c.65-1.594 4.92-.221 4.27 1.583-.651 1.804-4.92.01-4.27-1.583M51.168 46.247c.7-.308 1.463-.538 2.221-.443 1.617.201 2.686 1.756 3.383 3.228.645 1.357 1.169 2.82 1.114 4.32-.064 1.74-.922 3.392-2.15 4.625-2.696 2.71-8.135 4.821-10.02.228-1.872-4.565 1.194-10.082 5.452-11.958M86.853 57.508c.678-.272 1.415-.469 2.135-.355 1.538.244 2.51 1.76 3.131 3.188.572 1.315 1.028 2.727.93 4.158-.115 1.66-.986 3.21-2.196 4.35-2.657 2.504-7.917 4.352-9.573-.092-1.648-4.416 1.45-9.59 5.573-11.249"/>
        <path fill="#FFF" d="M55.562 54.004c-2.763-2.643 1.338-6.942 4.107-4.294 2.764 2.642-1.339 6.94-4.107 4.294M91.415 65.855c-2.263-2.164 1.096-5.685 3.364-3.517 2.263 2.164-1.097 5.685-3.364 3.517"/>
        <path fill="#000" d="M96.337 82.768c-2.23-1.902.722-5.37 2.955-3.465 2.23 1.903-.722 5.37-2.955 3.465M35.188 62.117c-2.23-1.901.721-5.37 2.954-3.464 2.23 1.9-.723 5.369-2.955 3.464"/>
    </g>
</svg>
