<svg xmlns="http://www.w3.org/2000/svg" width="246" height="238" viewBox="0 0 246 238">
    <defs>
        <linearGradient id="a" x1="50%" x2="50%" y1="0%" y2="100%">
            <stop offset="0%" stop-color="#70058A"/>
            <stop offset="100%" stop-color="#460575"/>
        </linearGradient>
    </defs>
    <g fill="none" fill-rule="evenodd">
        <path fill="url(#a)" d="M.36 97.385c-2.73 33.069 10.251 67.208 34.335 90.302 11.512 11.037 30.512 21.719 46.992 16.422a43.944 43.944 0 0 0 2.877-1.041c15.54-6.224 29.901-21.903 32.15-38.204 3.83-27.763-19.258-56.115-9.738-82.44 3.882-10.74 12.757-19.198 18.32-29.014 3.251-1.716 10.342-3.721 11.005-6.2.663-2.486-3.89-5.868-6.442-6.617 1.246-9.83-2.986-19.544-10.04-26.844 1.538-1.99 2.715-4.565 1.767-6.015-1.429-2.191-9.043-1.83-12.593-2.495-.266-.05-.469-.007-.624.105a38.504 38.504 0 0 0-7.892-2.937C82.793-1.99 64.03 4.424 48.987 14.52 21.473 32.988 3.088 64.317.36 97.385" transform="rotate(-50 112.531 52.474)"/>
        <path fill="#EB1751" d="M84.974 66.74c.04.568.196 1.144.542 1.596.345.454.905.767 1.473.721.557-.042 1.043-.415 1.364-.872.319-.458.495-.996.668-1.527.145-.448.29-.897.436-1.343.016-.053.035-.108.03-.163-.008-.077-.059-.14-.105-.202a10.184 10.184 0 0 1-1.084-1.74c.109.224-1.286.204-1.366.2-.393-.008-.777-.007-1.072.282-.726.707-.957 2.087-.886 3.047"/>
        <path fill="#000" d="M85.601 66.693c.039.519.182.955.415 1.26.244.315.604.502.924.477.313-.024.65-.251.895-.606.27-.386.43-.882.586-1.36l.394-1.218a11.12 11.12 0 0 1-.813-1.244 6.62 6.62 0 0 1-1.088.039c-.344-.008-.514.004-.613.101-.543.53-.762 1.686-.7 2.551m-.247 2.391a2.44 2.44 0 0 1-.337-.366c-.391-.506-.616-1.157-.672-1.933-.085-1.158.214-2.705 1.076-3.545.497-.485.834.087 1.243.097.321.01 1.135-.518 1.056-.333l.531.23s.313.846.705 1.35c.073.096.937.416.964.674.017.188.163.17.137.251l-.437 1.344c-.175.54-.374 1.151-.75 1.692-.468.67-1.136 1.086-1.832 1.141-.595.045-1.208-.18-1.684-.602M110.453 58.199c-.26 1.42-.665 2.88-1.637 3.949-.97 1.07-2.65 1.617-3.905.904-.757-.429-1.231-1.216-1.63-1.987-.237-.458-.461-.932-.528-1.444-.088-.665.101-1.331.286-1.975l.555-1.933c.34-1.177.696-2.389 1.451-3.357.754-.968 2.01-1.647 3.205-1.36 2.998.72 2.618 4.948 2.203 7.203"/>
        <path fill="#000" d="M84.444 63.905c1.01.354 2.038.224 2.72-.09.096-.045.19-.096.283-.147a.505.505 0 0 1 .723.25c.208.502.52.959.929 1.32 1.182 1.054 3.077 1.224 4.422.407.257-.156.373-.486.237-.752a.563.563 0 0 0-.8-.223c-.94.584-2.278.466-3.111-.275-.689-.61-.987-1.608-.795-2.492.025-.055.026-.176.016-.323a.517.517 0 0 0-.891-.322c-.101.104-.173.194-.188.253a2.782 2.782 0 0 1-1.3 1.28c-.646.299-2.554.581-3.63-1.673a.566.566 0 0 0-.798-.243c-.26.154-.331.497-.199.77.614 1.262 1.491 1.948 2.382 2.26M89.53 57.647c1.477.536 2.649 1.183 2.444 1.598-.203.417-1.496.932-2.8.46-1.3-.475-2.408-1.876-2.2-2.248.205-.371 1.079-.347 2.555.19M63.576 56.308c2.203.693 3.285-2.728 1.077-3.423-2.204-.694-3.286 2.73-1.077 3.423M109.872 72.523c1.912.601 2.85-2.368.937-2.97-1.911-.601-2.851 2.367-.937 2.97M81.439 43.55c.262 1.293.154 2.637-.123 3.926-.452 2.087-1.412 4.153-3.114 5.443-.359.275-.764.515-1.212.577-.454.061-.919-.067-1.333-.265-1.827-.867-2.808-2.996-2.797-5.017.008-2.021.843-3.947 1.844-5.705.48-.845 1.022-1.688 1.813-2.251 2.528-1.804 4.457 1.004 4.922 3.293"/>
        <path fill="#FFF" d="M109.763 57.937c2.265.575 3.163-2.946.893-3.521-2.267-.575-3.163 2.947-.893 3.52M80.694 46.804c2.266.574 3.163-2.947.892-3.522-2.266-.574-3.161 2.948-.892 3.522"/>
    </g>
</svg>
