<?xml version="1.0" encoding="utf-8"?>
<!-- Generator: Adobe Illustrator 22.0.1, SVG Export Plug-In . SVG Version: 6.00 Build 0)  -->
<svg version="1.1" id="Layer_1" xmlns="http://www.w3.org/2000/svg" xmlns:xlink="http://www.w3.org/1999/xlink" x="0px" y="0px"
	 viewBox="0 0 1280 82.3" style="enable-background:new 0 0 1280 82.3;" xml:space="preserve">
<style type="text/css">
	.st0{fill:#70058A;stroke:#979797;}
</style>
<path class="st0" d="M1279.5,82.2V29.7c-53.2,18.5-143.7,27.8-271.5,27.8c-19.8,0-50.5-3-94.2-8.9C882,44.3,871.4,42.7,781.8,29
	c-6.6-1-12.4-1.9-17.9-2.7C646.2,8.4,581.7,0.5,538.4,0.5c-39.3,0-95.4,5-181,14.9c-9.8,1.1-20,2.4-31.8,3.8
	c-7.8,0.9-46.6,5.6-57,6.9c-21.1,2.5-37.3,4.4-51.9,6c-35.7,3.9-59.9,5.9-75.1,5.9C98,37.9,51,35.1,0.5,29.5l0,0v52.8"/>
</svg>
