<?xml version="1.0" encoding="utf-8"?>
<!-- Generator: Adobe Illustrator 22.0.1, SVG Export Plug-In . SVG Version: 6.00 Build 0)  -->
<svg version="1.1" id="Layer_1" xmlns="http://www.w3.org/2000/svg" xmlns:xlink="http://www.w3.org/1999/xlink" x="0px" y="0px"
	 viewBox="0 0 1280 81.5" style="enable-background:new 0 0 1280 81.5;" xml:space="preserve">
<style type="text/css">
	.st0{fill:#70058A;stroke:#979797;}
</style>
<path class="st0" d="M0.5,0L0.5,0l0,50.8C93,33.5,183.5,24.9,272,24.9c30.9,0,68.5,3,116.1,8.8c35.2,4.3,57.2,7.4,137.1,19.3
	c12.9,1.9,22.4,3.3,31.8,4.7C667.3,73.7,734.8,81,793.5,81c38.7,0,75-3,110.9-8.8c28.9-4.7,55.9-10.7,88.3-19.4
	c2.3-0.6,53-14.6,66.4-17.9c23.1-5.7,41.3-9,58.4-10c55.7-3.3,109.7,5.3,162,25.8V0.1"/>
</svg>
